<svg width="170" height="109" viewBox="0 0 170 109" fill="none" xmlns="http://www.w3.org/2000/svg">
<g filter="url(#filter0_d_2155_47)">
<ellipse cx="130" cy="39.502" rx="20.0005" ry="19.502" fill="#2E2C44"/>
</g>
<path d="M137.693 39.5044L126.155 46.866V32.1428L137.693 39.5044Z" fill="#9783F5"/>
<rect y="79.123" width="112.793" height="29.5134" rx="11" fill="#252238"/>
<path d="M117.501 68.1455L112.15 96.2298L90.5014 80.3893L117.501 68.1455Z" fill="#252238"/>
<path d="M15.9926 98.088C15.4059 98.088 14.8633 97.9927 14.3646 97.802C13.8733 97.604 13.4443 97.329 13.0776 96.977C12.7183 96.6177 12.4359 96.1997 12.2306 95.723C12.0253 95.2463 11.9226 94.722 11.9226 94.15C11.9226 93.578 12.0253 93.0537 12.2306 92.577C12.4359 92.1003 12.7219 91.686 13.0886 91.334C13.4553 90.9747 13.8843 90.6997 14.3756 90.509C14.8743 90.311 15.4169 90.212 16.0036 90.212C16.5976 90.212 17.1439 90.3147 17.6426 90.52C18.1486 90.718 18.5776 91.015 18.9296 91.411L18.2146 92.104C17.9213 91.796 17.5913 91.5687 17.2246 91.422C16.8579 91.268 16.4656 91.191 16.0476 91.191C15.6149 91.191 15.2116 91.2643 14.8376 91.411C14.4709 91.5577 14.1519 91.763 13.8806 92.027C13.6093 92.291 13.3966 92.6063 13.2426 92.973C13.0959 93.3323 13.0226 93.7247 13.0226 94.15C13.0226 94.5753 13.0959 94.9713 13.2426 95.338C13.3966 95.6973 13.6093 96.009 13.8806 96.273C14.1519 96.537 14.4709 96.7423 14.8376 96.889C15.2116 97.0357 15.6149 97.109 16.0476 97.109C16.4656 97.109 16.8579 97.0357 17.2246 96.889C17.5913 96.735 17.9213 96.5003 18.2146 96.185L18.9296 96.878C18.5776 97.274 18.1486 97.5747 17.6426 97.78C17.1439 97.9853 16.5939 98.088 15.9926 98.088ZM20.6748 98V89.838H21.7308V98H20.6748ZM24.0771 98V92.17H25.1331V98H24.0771ZM24.6051 91.048C24.3997 91.048 24.2274 90.982 24.0881 90.85C23.9561 90.718 23.8901 90.5567 23.8901 90.366C23.8901 90.168 23.9561 90.003 24.0881 89.871C24.2274 89.739 24.3997 89.673 24.6051 89.673C24.8104 89.673 24.9791 89.739 25.1111 89.871C25.2504 89.9957 25.3201 90.1533 25.3201 90.344C25.3201 90.542 25.2541 90.7107 25.1221 90.85C24.9901 90.982 24.8177 91.048 24.6051 91.048ZM30.0203 98.066C29.4263 98.066 28.8947 97.9377 28.4253 97.681C27.9633 97.4243 27.6003 97.0723 27.3363 96.625C27.0723 96.1777 26.9403 95.6643 26.9403 95.085C26.9403 94.5057 27.0723 93.9923 27.3363 93.545C27.6003 93.0977 27.9633 92.7493 28.4253 92.5C28.8947 92.2433 29.4263 92.115 30.0203 92.115C30.5483 92.115 31.0177 92.2213 31.4283 92.434C31.8463 92.6393 32.169 92.9473 32.3963 93.358L31.5933 93.875C31.4027 93.589 31.168 93.38 30.8893 93.248C30.618 93.1087 30.3247 93.039 30.0093 93.039C29.628 93.039 29.287 93.1233 28.9863 93.292C28.6857 93.4607 28.4473 93.699 28.2713 94.007C28.0953 94.3077 28.0073 94.667 28.0073 95.085C28.0073 95.503 28.0953 95.866 28.2713 96.174C28.4473 96.482 28.6857 96.7203 28.9863 96.889C29.287 97.0577 29.628 97.142 30.0093 97.142C30.3247 97.142 30.618 97.076 30.8893 96.944C31.168 96.8047 31.4027 96.592 31.5933 96.306L32.3963 96.812C32.169 97.2153 31.8463 97.527 31.4283 97.747C31.0177 97.9597 30.5483 98.066 30.0203 98.066ZM34.8763 96.592L34.8983 95.239L38.2533 92.17H39.5293L36.9553 94.7L36.3833 95.184L34.8763 96.592ZM34.0183 98V89.838H35.0743V98H34.0183ZM38.4733 98L36.1853 95.162L36.8673 94.315L39.7713 98H38.4733ZM46.4127 98.066C45.8261 98.066 45.3714 97.9083 45.0487 97.593C44.7261 97.2777 44.5647 96.8267 44.5647 96.24V90.894H45.6207V96.196C45.6207 96.5113 45.6977 96.7533 45.8517 96.922C46.0131 97.0907 46.2404 97.175 46.5337 97.175C46.8637 97.175 47.1387 97.0833 47.3587 96.9L47.6887 97.659C47.5274 97.7983 47.3331 97.901 47.1057 97.967C46.8857 98.033 46.6547 98.066 46.4127 98.066ZM43.5747 93.039V92.17H47.2927V93.039H43.5747ZM52.9144 98V96.768L52.8594 96.537V94.436C52.8594 93.9887 52.7274 93.644 52.4634 93.402C52.2068 93.1527 51.8181 93.028 51.2974 93.028C50.9528 93.028 50.6154 93.0867 50.2854 93.204C49.9554 93.314 49.6768 93.4643 49.4494 93.655L49.0094 92.863C49.3101 92.621 49.6694 92.4377 50.0874 92.313C50.5128 92.181 50.9564 92.115 51.4184 92.115C52.2178 92.115 52.8338 92.3093 53.2664 92.698C53.6991 93.0867 53.9154 93.6807 53.9154 94.48V98H52.9144ZM51.0004 98.066C50.5678 98.066 50.1864 97.9927 49.8564 97.846C49.5338 97.6993 49.2844 97.4977 49.1084 97.241C48.9324 96.977 48.8444 96.68 48.8444 96.35C48.8444 96.0347 48.9178 95.7487 49.0644 95.492C49.2184 95.2353 49.4641 95.03 49.8014 94.876C50.1461 94.722 50.6081 94.645 51.1874 94.645H53.0354V95.404H51.2314C50.7034 95.404 50.3478 95.492 50.1644 95.668C49.9811 95.844 49.8894 96.0567 49.8894 96.306C49.8894 96.592 50.0031 96.823 50.2304 96.999C50.4578 97.1677 50.7731 97.252 51.1764 97.252C51.5724 97.252 51.9171 97.164 52.2104 96.988C52.5111 96.812 52.7274 96.5553 52.8594 96.218L53.0684 96.944C52.9291 97.2887 52.6834 97.5637 52.3314 97.769C51.9794 97.967 51.5358 98.066 51.0004 98.066ZM51.4734 100.156C51.3194 100.156 51.1874 100.105 51.0774 100.002C50.9674 99.8993 50.9124 99.7673 50.9124 99.606C50.9124 99.4373 50.9674 99.298 51.0774 99.188C51.1874 99.0853 51.3194 99.034 51.4734 99.034C51.6274 99.034 51.7594 99.0853 51.8694 99.188C51.9794 99.298 52.0344 99.4373 52.0344 99.606C52.0344 99.7673 51.9794 99.8993 51.8694 100.002C51.7594 100.105 51.6274 100.156 51.4734 100.156ZM58.6967 98.066C58.11 98.066 57.5893 97.9377 57.1347 97.681C56.68 97.4243 56.3207 97.0723 56.0567 96.625C55.7927 96.1703 55.6607 95.657 55.6607 95.085C55.6607 94.5057 55.7927 93.9923 56.0567 93.545C56.3207 93.0977 56.68 92.7493 57.1347 92.5C57.5893 92.2433 58.11 92.115 58.6967 92.115C59.276 92.115 59.793 92.2433 60.2477 92.5C60.7097 92.7493 61.069 93.0977 61.3257 93.545C61.5897 93.985 61.7217 94.4983 61.7217 95.085C61.7217 95.6643 61.5897 96.1777 61.3257 96.625C61.069 97.0723 60.7097 97.4243 60.2477 97.681C59.793 97.9377 59.276 98.066 58.6967 98.066ZM58.6967 97.142C59.0707 97.142 59.4043 97.0577 59.6977 96.889C59.9983 96.7203 60.233 96.482 60.4017 96.174C60.5703 95.8587 60.6547 95.4957 60.6547 95.085C60.6547 94.667 60.5703 94.3077 60.4017 94.007C60.233 93.699 59.9983 93.4607 59.6977 93.292C59.4043 93.1233 59.0707 93.039 58.6967 93.039C58.3227 93.039 57.989 93.1233 57.6957 93.292C57.4023 93.4607 57.1677 93.699 56.9917 94.007C56.8157 94.3077 56.7277 94.667 56.7277 95.085C56.7277 95.4957 56.8157 95.8587 56.9917 96.174C57.1677 96.482 57.4023 96.7203 57.6957 96.889C57.989 97.0577 58.3227 97.142 58.6967 97.142ZM66.9502 98V90.3H69.9532C70.6278 90.3 71.2035 90.4063 71.6802 90.619C72.1568 90.8317 72.5235 91.1397 72.7802 91.543C73.0368 91.9463 73.1652 92.4267 73.1652 92.984C73.1652 93.5413 73.0368 94.0217 72.7802 94.425C72.5235 94.821 72.1568 95.129 71.6802 95.349C71.2035 95.5617 70.6278 95.668 69.9532 95.668H67.5552L68.0502 95.151V98H66.9502ZM68.0502 95.261L67.5552 94.711H69.9202C70.6242 94.711 71.1558 94.5607 71.5152 94.26C71.8818 93.9593 72.0652 93.534 72.0652 92.984C72.0652 92.434 71.8818 92.0087 71.5152 91.708C71.1558 91.4073 70.6242 91.257 69.9202 91.257H67.5552L68.0502 90.707V95.261ZM78.1777 92.115C78.6543 92.115 79.0723 92.2067 79.4317 92.39C79.7983 92.5733 80.0843 92.852 80.2897 93.226C80.495 93.6 80.5977 94.073 80.5977 94.645V98H79.5417V94.766C79.5417 94.2013 79.4023 93.776 79.1237 93.49C78.8523 93.204 78.4673 93.061 77.9687 93.061C77.5947 93.061 77.2683 93.1343 76.9897 93.281C76.711 93.4277 76.4947 93.644 76.3407 93.93C76.194 94.216 76.1207 94.5717 76.1207 94.997V98H75.0647V89.838H76.1207V93.743L75.9117 93.325C76.1023 92.9437 76.3957 92.6467 76.7917 92.434C77.1877 92.2213 77.6497 92.115 78.1777 92.115ZM85.379 98.066C84.7923 98.066 84.2716 97.9377 83.817 97.681C83.3623 97.4243 83.003 97.0723 82.739 96.625C82.475 96.1703 82.343 95.657 82.343 95.085C82.343 94.5057 82.475 93.9923 82.739 93.545C83.003 93.0977 83.3623 92.7493 83.817 92.5C84.2716 92.2433 84.7923 92.115 85.379 92.115C85.9583 92.115 86.4753 92.2433 86.93 92.5C87.392 92.7493 87.7513 93.0977 88.008 93.545C88.272 93.985 88.404 94.4983 88.404 95.085C88.404 95.6643 88.272 96.1777 88.008 96.625C87.7513 97.0723 87.392 97.4243 86.93 97.681C86.4753 97.9377 85.9583 98.066 85.379 98.066ZM85.379 97.142C85.753 97.142 86.0866 97.0577 86.38 96.889C86.6806 96.7203 86.9153 96.482 87.084 96.174C87.2526 95.8587 87.337 95.4957 87.337 95.085C87.337 94.667 87.2526 94.3077 87.084 94.007C86.9153 93.699 86.6806 93.4607 86.38 93.292C86.0866 93.1233 85.753 93.039 85.379 93.039C85.005 93.039 84.6713 93.1233 84.378 93.292C84.0846 93.4607 83.85 93.699 83.674 94.007C83.498 94.3077 83.41 94.667 83.41 95.085C83.41 95.4957 83.498 95.8587 83.674 96.174C83.85 96.482 84.0846 96.7203 84.378 96.889C84.6713 97.0577 85.005 97.142 85.379 97.142ZM85.203 91.323L83.355 89.893H84.697L86.193 91.323H85.203ZM93.3074 92.115C93.784 92.115 94.202 92.2067 94.5614 92.39C94.928 92.5733 95.214 92.852 95.4194 93.226C95.6247 93.6 95.7274 94.073 95.7274 94.645V98H94.6714V94.766C94.6714 94.2013 94.532 93.776 94.2534 93.49C93.982 93.204 93.597 93.061 93.0984 93.061C92.7244 93.061 92.398 93.1343 92.1194 93.281C91.8407 93.4277 91.6244 93.644 91.4704 93.93C91.3237 94.216 91.2504 94.5717 91.2504 94.997V98H90.1944V92.17H91.2064V93.743L91.0414 93.325C91.232 92.9437 91.5254 92.6467 91.9214 92.434C92.3174 92.2213 92.7794 92.115 93.3074 92.115ZM100.564 100.2C100.028 100.2 99.5077 100.123 99.0017 99.969C98.503 99.8223 98.096 99.6097 97.7807 99.331L98.2867 98.517C98.558 98.7517 98.8917 98.935 99.2877 99.067C99.6837 99.2063 100.098 99.276 100.531 99.276C101.22 99.276 101.726 99.1147 102.049 98.792C102.371 98.4693 102.533 97.978 102.533 97.318V96.086L102.643 94.931L102.588 93.765V92.17H103.589V97.208C103.589 98.2347 103.332 98.99 102.819 99.474C102.305 99.958 101.554 100.2 100.564 100.2ZM100.432 97.758C99.867 97.758 99.361 97.6407 98.9137 97.406C98.4737 97.164 98.1217 96.8303 97.8577 96.405C97.601 95.9797 97.4727 95.4883 97.4727 94.931C97.4727 94.3663 97.601 93.875 97.8577 93.457C98.1217 93.0317 98.4737 92.7017 98.9137 92.467C99.361 92.2323 99.867 92.115 100.432 92.115C100.93 92.115 101.385 92.2177 101.796 92.423C102.206 92.621 102.533 92.929 102.775 93.347C103.024 93.765 103.149 94.293 103.149 94.931C103.149 95.5617 103.024 96.086 102.775 96.504C102.533 96.922 102.206 97.2373 101.796 97.45C101.385 97.6553 100.93 97.758 100.432 97.758ZM100.553 96.834C100.941 96.834 101.286 96.7533 101.587 96.592C101.887 96.4307 102.122 96.207 102.291 95.921C102.467 95.635 102.555 95.305 102.555 94.931C102.555 94.557 102.467 94.227 102.291 93.941C102.122 93.655 101.887 93.435 101.587 93.281C101.286 93.1197 100.941 93.039 100.553 93.039C100.164 93.039 99.8157 93.1197 99.5077 93.281C99.207 93.435 98.9687 93.655 98.7927 93.941C98.624 94.227 98.5397 94.557 98.5397 94.931C98.5397 95.305 98.624 95.635 98.7927 95.921C98.9687 96.207 99.207 96.4307 99.5077 96.592C99.8157 96.7533 100.164 96.834 100.553 96.834Z" fill="#978EBF"/>
<defs>
<filter id="filter0_d_2155_47" x="90" y="0" width="80.001" height="79.0039" filterUnits="userSpaceOnUse" color-interpolation-filters="sRGB">
<feFlood flood-opacity="0" result="BackgroundImageFix"/>
<feColorMatrix in="SourceAlpha" type="matrix" values="0 0 0 0 0 0 0 0 0 0 0 0 0 0 0 0 0 0 127 0" result="hardAlpha"/>
<feOffset/>
<feGaussianBlur stdDeviation="10"/>
<feComposite in2="hardAlpha" operator="out"/>
<feColorMatrix type="matrix" values="0 0 0 0 0.570895 0 0 0 0 0.483496 0 0 0 0 0.685 0 0 0 0.46 0"/>
<feBlend mode="normal" in2="BackgroundImageFix" result="effect1_dropShadow_2155_47"/>
<feBlend mode="normal" in="SourceGraphic" in2="effect1_dropShadow_2155_47" result="shape"/>
</filter>
</defs>
</svg>
