<svg width="14" height="14" viewBox="0 0 14 14" fill="none" xmlns="http://www.w3.org/2000/svg">
<path d="M7 10.5C7.19833 10.5 7.3647 10.4328 7.4991 10.2984C7.6335 10.164 7.70047 9.99787 7.7 9.8C7.7 9.60167 7.6328 9.43553 7.4984 9.3016C7.364 9.16767 7.19787 9.10047 7 9.1C6.80167 9.1 6.63553 9.1672 6.5016 9.3016C6.36767 9.436 6.30047 9.60213 6.3 9.8C6.3 9.99833 6.3672 10.1647 6.5016 10.2991C6.636 10.4335 6.80213 10.5005 7 10.5ZM6.3 7.7H7.7V3.5H6.3V7.7ZM7 14C6.03167 14 5.12167 13.8161 4.27 13.4484C3.41833 13.0807 2.6775 12.582 2.0475 11.9525C1.4175 11.3225 0.918867 10.5817 0.5516 9.73C0.184333 8.87833 0.000466667 7.96833 0 7C0 6.03167 0.183867 5.12167 0.5516 4.27C0.919333 3.41833 1.41797 2.6775 2.0475 2.0475C2.6775 1.4175 3.41833 0.918867 4.27 0.5516C5.12167 0.184333 6.03167 0.000466667 7 0C7.96833 0 8.87833 0.183867 9.73 0.5516C10.5817 0.919333 11.3225 1.41797 11.9525 2.0475C12.5825 2.6775 13.0814 3.41833 13.4491 4.27C13.8168 5.12167 14.0005 6.03167 14 7C14 7.96833 13.8161 8.87833 13.4484 9.73C13.0807 10.5817 12.582 11.3225 11.9525 11.9525C11.3225 12.5825 10.5817 13.0814 9.73 13.4491C8.87833 13.8168 7.96833 14.0005 7 14Z" fill="#CAA6F9"/>
</svg>
