<svg width="13" height="13" viewBox="0 0 13 13" fill="none" xmlns="http://www.w3.org/2000/svg">
<path d="M6.59093 0.000603915C2.93547 -0.0487664 -0.0487688 2.93533 0.000603944 6.59061C0.0493517 10.0962 2.90391 12.9506 6.40968 12.9994C10.0658 13.0494 13.0494 10.0653 12.9994 6.41C12.9513 2.90377 10.0967 0.0493493 6.59093 0.000603915ZM6.06626 6.01473L7.67713 4.17115C7.76439 4.07129 7.88776 4.01018 8.02008 4.00128C8.15241 3.99237 8.28285 4.03639 8.38272 4.12365C8.48258 4.21092 8.54369 4.33428 8.5526 4.4666C8.56151 4.59891 8.51748 4.72935 8.43022 4.82921L6.81935 6.67279C6.77614 6.72223 6.72361 6.76269 6.66477 6.79183C6.60592 6.82098 6.54191 6.83825 6.47639 6.84266C6.41087 6.84707 6.34513 6.83854 6.2829 6.81754C6.22068 6.79654 6.16321 6.76349 6.11376 6.72028C6.06431 6.67707 6.02386 6.62455 5.99471 6.56571C5.96556 6.50687 5.94829 6.44286 5.94388 6.37734C5.93947 6.31182 5.94801 6.24608 5.969 6.18386C5.99 6.12164 6.02305 6.06417 6.06626 6.01473ZM4.85194 8.85352C4.75819 8.94721 4.63107 8.99984 4.49852 8.99984C4.36598 8.99984 4.23886 8.94721 4.1451 8.85352L2.64673 7.35366C2.60032 7.30721 2.56351 7.25207 2.53841 7.1914C2.51331 7.13072 2.5004 7.0657 2.50043 7.00004C2.50046 6.93437 2.51342 6.86936 2.53858 6.80871C2.56373 6.74805 2.60059 6.69295 2.64704 6.64654C2.6935 6.60013 2.74864 6.56333 2.80932 6.53822C2.86999 6.51312 2.93502 6.50022 3.00069 6.50025C3.06635 6.50028 3.13137 6.51324 3.19202 6.53839C3.25268 6.56355 3.30779 6.6004 3.3542 6.64685L4.85413 8.14671C4.94753 8.24075 4.99977 8.36803 4.99936 8.50057C4.99895 8.63311 4.94593 8.76006 4.85194 8.85352ZM10.3767 4.82921L6.8806 8.82884C6.83556 8.88044 6.78039 8.92225 6.71852 8.95165C6.65665 8.98105 6.58939 8.99742 6.52093 8.99976H6.50405C6.43836 8.99977 6.3733 8.98683 6.3126 8.96168C6.25191 8.93654 6.19676 8.89968 6.15032 8.85321L4.65226 7.35335C4.55853 7.25954 4.50591 7.13233 4.50596 6.99972C4.50602 6.86711 4.55876 6.73996 4.65258 6.64623C4.74639 6.5525 4.8736 6.49988 5.00622 6.49994C5.13884 6.49999 5.266 6.55273 5.35973 6.64654L6.29094 7.57864C6.31515 7.60285 6.34407 7.62184 6.37592 7.63441C6.40776 7.64699 6.44185 7.65289 6.47608 7.65174C6.5103 7.6506 6.54392 7.64244 6.57485 7.62777C6.60579 7.6131 6.63338 7.59223 6.65592 7.56645L9.62454 4.17115C9.7118 4.07129 9.83517 4.01018 9.96749 4.00128C10.0998 3.99237 10.2303 4.03639 10.3301 4.12365C10.43 4.21092 10.4911 4.33428 10.5 4.4666C10.5089 4.59891 10.4649 4.72935 10.3776 4.82921H10.3767Z" fill="#8FDF51"/>
</svg>
