<svg width="16" height="18" viewBox="0 0 16 18" fill="none" xmlns="http://www.w3.org/2000/svg">
<path d="M15.7842 12.1595C15.0897 10.9154 14.7209 9.12981 14.7209 6.99922C14.7209 5.14291 14.0128 3.36263 12.7524 2.05002C11.4921 0.737416 9.78264 0 8.00021 0C6.21777 0 4.50834 0.737416 3.24797 2.05002C1.9876 3.36263 1.27953 5.14291 1.27953 6.99922C1.27953 9.13065 0.912289 10.9154 0.217819 12.1595C0.07611 12.4132 0.000992823 12.7013 9.7743e-06 12.9949C-0.000973275 13.2884 0.0722124 13.577 0.212219 13.8318C0.351339 14.0867 0.553264 14.2983 0.797148 14.4448C1.04103 14.5913 1.31803 14.6673 1.59956 14.665H4.49425C4.57364 15.5763 4.97735 16.4237 5.62607 17.0408C6.27478 17.6579 7.12162 18 8.00021 18C8.87879 18 9.72563 17.6579 10.3743 17.0408C11.0231 16.4237 11.4268 15.5763 11.5062 14.665H14.4009C14.682 14.6668 14.9585 14.5906 15.2019 14.4441C15.4453 14.2977 15.6469 14.0863 15.7858 13.8318C15.9264 13.5774 16.0003 13.2889 16 12.9954C15.9997 12.7019 15.9253 12.4136 15.7842 12.1595ZM8.00021 15.9982C7.63132 15.9983 7.27374 15.8656 6.98797 15.6227C6.70221 15.3797 6.50582 15.0414 6.43205 14.665H9.56837C9.49459 15.0414 9.2982 15.3797 9.01244 15.6227C8.72668 15.8656 8.36909 15.9983 8.00021 15.9982ZM2.13241 12.6653C2.84048 11.1654 3.19972 9.26063 3.19972 6.99922C3.19972 5.67328 3.70548 4.40166 4.60575 3.46408C5.50602 2.5265 6.72704 1.99978 8.00021 1.99978C9.27337 1.99978 10.4944 2.5265 11.3947 3.46408C12.2949 4.40166 12.8007 5.67328 12.8007 6.99922C12.8007 9.2598 13.1591 11.1654 13.8672 12.6653H2.13241Z" fill="#949BA4"/>
</svg>
