<svg width="15" height="17" viewBox="0 0 15 17" fill="none" xmlns="http://www.w3.org/2000/svg">
<path fill-rule="evenodd" clip-rule="evenodd" d="M9.375 1.54545V1.76955C12.0863 2.43409 14.0625 4.50423 14.0625 6.95455V12.3636H15V13.9091H0V12.3636H0.9375V6.95455C0.937589 5.78955 1.39381 4.65567 2.23835 3.72151C3.08288 2.78734 4.27063 2.10276 5.625 1.76955V1.54545C5.625 1.13557 5.82254 0.742482 6.17418 0.452653C6.52581 0.162824 7.00272 0 7.5 0C7.99728 0 8.47419 0.162824 8.82582 0.452653C9.17746 0.742482 9.375 1.13557 9.375 1.54545ZM2.8125 12.3636H12.1875V6.95455C12.1875 5.92985 11.6936 4.94711 10.8146 4.22254C9.93549 3.49797 8.7432 3.09091 7.5 3.09091C6.2568 3.09091 5.06451 3.49797 4.18544 4.22254C3.30636 4.94711 2.8125 5.92985 2.8125 6.95455V12.3636ZM9.375 15.4545V14.6818H5.625V15.4545C5.625 15.8644 5.82254 16.2575 6.17418 16.5473C6.52581 16.8372 7.00272 17 7.5 17C7.99728 17 8.47419 16.8372 8.82582 16.5473C9.17746 16.2575 9.375 15.8644 9.375 15.4545Z" fill="#333333"/>
</svg>
