<svg width="479" height="344" viewBox="0 0 479 344" fill="none" xmlns="http://www.w3.org/2000/svg">
<rect x="0.5" y="0.5" width="478" height="343" rx="9.5" stroke="#949BA4"/>
<line x1="86.5" y1="310.004" x2="86.5" y2="53.9961" stroke="#949BA4" stroke-opacity="0.53"/>
<path d="M26.9769 61.096C26.3369 61.096 25.7249 61 25.1409 60.808C24.5569 60.608 24.0969 60.352 23.7609 60.04L24.2049 59.104C24.5249 59.384 24.9329 59.616 25.4289 59.8C25.9249 59.984 26.4409 60.076 26.9769 60.076C27.4649 60.076 27.8609 60.02 28.1649 59.908C28.4689 59.796 28.6929 59.644 28.8369 59.452C28.9809 59.252 29.0529 59.028 29.0529 58.78C29.0529 58.492 28.9569 58.26 28.7649 58.084C28.5809 57.908 28.3369 57.768 28.0329 57.664C27.7369 57.552 27.4089 57.456 27.0489 57.376C26.6889 57.296 26.3249 57.204 25.9569 57.1C25.5969 56.988 25.2649 56.848 24.9609 56.68C24.6649 56.512 24.4249 56.288 24.2409 56.008C24.0569 55.72 23.9649 55.352 23.9649 54.904C23.9649 54.472 24.0769 54.076 24.3009 53.716C24.5329 53.348 24.8849 53.056 25.3569 52.84C25.8369 52.616 26.4449 52.504 27.1809 52.504C27.6689 52.504 28.1529 52.568 28.6329 52.696C29.1129 52.824 29.5289 53.008 29.8809 53.248L29.4849 54.208C29.1249 53.968 28.7449 53.796 28.3449 53.692C27.9449 53.58 27.5569 53.524 27.1809 53.524C26.7089 53.524 26.3209 53.584 26.0169 53.704C25.7129 53.824 25.4889 53.984 25.3449 54.184C25.2089 54.384 25.1409 54.608 25.1409 54.856C25.1409 55.152 25.2329 55.388 25.4169 55.564C25.6089 55.74 25.8529 55.88 26.1489 55.984C26.4529 56.088 26.7849 56.184 27.1449 56.272C27.5049 56.352 27.8649 56.444 28.2249 56.548C28.5929 56.652 28.9249 56.788 29.2209 56.956C29.5249 57.124 29.7689 57.348 29.9529 57.628C30.1369 57.908 30.2289 58.268 30.2289 58.708C30.2289 59.132 30.1129 59.528 29.8809 59.896C29.6489 60.256 29.2889 60.548 28.8009 60.772C28.3209 60.988 27.7129 61.096 26.9769 61.096ZM34.85 61.072C34.306 61.072 33.826 60.972 33.41 60.772C33.002 60.572 32.682 60.268 32.45 59.86C32.226 59.444 32.114 58.924 32.114 58.3V54.64H33.266V58.168C33.266 58.792 33.414 59.26 33.71 59.572C34.014 59.884 34.438 60.04 34.982 60.04C35.382 60.04 35.73 59.96 36.026 59.8C36.322 59.632 36.55 59.392 36.71 59.08C36.87 58.76 36.95 58.376 36.95 57.928V54.64H38.102V61H37.01V59.284L37.19 59.74C36.982 60.164 36.67 60.492 36.254 60.724C35.838 60.956 35.37 61.072 34.85 61.072ZM44.0511 54.58C44.5711 54.58 45.0271 54.68 45.4191 54.88C45.8191 55.08 46.1311 55.384 46.3551 55.792C46.5791 56.2 46.6911 56.716 46.6911 57.34V61H45.5391V57.472C45.5391 56.856 45.3871 56.392 45.0831 56.08C44.7871 55.768 44.3671 55.612 43.8231 55.612C43.4151 55.612 43.0591 55.692 42.7551 55.852C42.4511 56.012 42.2151 56.248 42.0471 56.56C41.8871 56.872 41.8071 57.26 41.8071 57.724V61H40.6551V54.64H41.7591V56.356L41.5791 55.9C41.7871 55.484 42.1071 55.16 42.5391 54.928C42.9711 54.696 43.4751 54.58 44.0511 54.58Z" fill="#949BA4"/>
<path d="M24.277 101V92.6H25.261L29.029 98.948H28.501L32.221 92.6H33.205L33.217 101H32.065L32.053 94.412H32.329L29.017 99.98H28.465L25.129 94.412H25.429V101H24.277ZM38.6539 101.072C38.0139 101.072 37.4459 100.932 36.9499 100.652C36.4539 100.372 36.0619 99.988 35.7739 99.5C35.4859 99.004 35.3419 98.444 35.3419 97.82C35.3419 97.188 35.4859 96.628 35.7739 96.14C36.0619 95.652 36.4539 95.272 36.9499 95C37.4459 94.72 38.0139 94.58 38.6539 94.58C39.2859 94.58 39.8499 94.72 40.3459 95C40.8499 95.272 41.2419 95.652 41.5219 96.14C41.8099 96.62 41.9539 97.18 41.9539 97.82C41.9539 98.452 41.8099 99.012 41.5219 99.5C41.2419 99.988 40.8499 100.372 40.3459 100.652C39.8499 100.932 39.2859 101.072 38.6539 101.072ZM38.6539 100.064C39.0619 100.064 39.4259 99.972 39.7459 99.788C40.0739 99.604 40.3299 99.344 40.5139 99.008C40.6979 98.664 40.7899 98.268 40.7899 97.82C40.7899 97.364 40.6979 96.972 40.5139 96.644C40.3299 96.308 40.0739 96.048 39.7459 95.864C39.4259 95.68 39.0619 95.588 38.6539 95.588C38.2459 95.588 37.8819 95.68 37.5619 95.864C37.2419 96.048 36.9859 96.308 36.7939 96.644C36.6019 96.972 36.5059 97.364 36.5059 97.82C36.5059 98.268 36.6019 98.664 36.7939 99.008C36.9859 99.344 37.2419 99.604 37.5619 99.788C37.8819 99.972 38.2459 100.064 38.6539 100.064ZM47.3031 94.58C47.8231 94.58 48.2791 94.68 48.6711 94.88C49.0711 95.08 49.3831 95.384 49.6071 95.792C49.8311 96.2 49.9431 96.716 49.9431 97.34V101H48.7911V97.472C48.7911 96.856 48.6391 96.392 48.3351 96.08C48.0391 95.768 47.6191 95.612 47.0751 95.612C46.6671 95.612 46.3111 95.692 46.0071 95.852C45.7031 96.012 45.4671 96.248 45.2991 96.56C45.1391 96.872 45.0591 97.26 45.0591 97.724V101H43.9071V94.64H45.0111V96.356L44.8311 95.9C45.0391 95.484 45.3591 95.16 45.7911 94.928C46.2231 94.696 46.7271 94.58 47.3031 94.58Z" fill="#949BA4"/>
<path d="M26.3883 141V133.644H23.5083V132.6H30.4563V133.644H27.5763V141H26.3883ZM34.4789 141.072C33.9349 141.072 33.4549 140.972 33.0389 140.772C32.6309 140.572 32.3109 140.268 32.0789 139.86C31.8549 139.444 31.7429 138.924 31.7429 138.3V134.64H32.8949V138.168C32.8949 138.792 33.0429 139.26 33.3389 139.572C33.6429 139.884 34.0669 140.04 34.6109 140.04C35.0109 140.04 35.3589 139.96 35.6549 139.8C35.9509 139.632 36.1789 139.392 36.3389 139.08C36.4989 138.76 36.5789 138.376 36.5789 137.928V134.64H37.7309V141H36.6389V139.284L36.8189 139.74C36.6109 140.164 36.2989 140.492 35.8829 140.724C35.4669 140.956 34.9989 141.072 34.4789 141.072ZM43.116 141.072C42.436 141.072 41.836 140.932 41.316 140.652C40.804 140.372 40.404 139.988 40.116 139.5C39.836 139.012 39.696 138.452 39.696 137.82C39.696 137.188 39.832 136.628 40.104 136.14C40.384 135.652 40.764 135.272 41.244 135C41.732 134.72 42.28 134.58 42.888 134.58C43.504 134.58 44.048 134.716 44.52 134.988C44.992 135.26 45.36 135.644 45.624 136.14C45.896 136.628 46.032 137.2 46.032 137.856C46.032 137.904 46.028 137.96 46.02 138.024C46.02 138.088 46.016 138.148 46.008 138.204H40.596V137.376H45.408L44.94 137.664C44.948 137.256 44.864 136.892 44.688 136.572C44.512 136.252 44.268 136.004 43.956 135.828C43.652 135.644 43.296 135.552 42.888 135.552C42.488 135.552 42.132 135.644 41.82 135.828C41.508 136.004 41.264 136.256 41.088 136.584C40.912 136.904 40.824 137.272 40.824 137.688V137.88C40.824 138.304 40.92 138.684 41.112 139.02C41.312 139.348 41.588 139.604 41.94 139.788C42.292 139.972 42.696 140.064 43.152 140.064C43.528 140.064 43.868 140 44.172 139.872C44.484 139.744 44.756 139.552 44.988 139.296L45.624 140.04C45.336 140.376 44.976 140.632 44.544 140.808C44.12 140.984 43.644 141.072 43.116 141.072Z" fill="#949BA4"/>
<path d="M26.6406 181L23.8326 172.6H25.0686L27.6486 180.352H27.0246L29.7006 172.6H30.8046L33.4206 180.352H32.8206L35.4366 172.6H36.5766L33.7686 181H32.5086L30.0606 173.812H30.3846L27.9246 181H26.6406ZM40.5881 181.072C39.9081 181.072 39.3081 180.932 38.7881 180.652C38.2761 180.372 37.8761 179.988 37.5881 179.5C37.3081 179.012 37.1681 178.452 37.1681 177.82C37.1681 177.188 37.3041 176.628 37.5761 176.14C37.8561 175.652 38.2361 175.272 38.7161 175C39.2041 174.72 39.7521 174.58 40.3601 174.58C40.9761 174.58 41.5201 174.716 41.9921 174.988C42.4641 175.26 42.8321 175.644 43.0961 176.14C43.3681 176.628 43.5041 177.2 43.5041 177.856C43.5041 177.904 43.5001 177.96 43.4921 178.024C43.4921 178.088 43.4881 178.148 43.4801 178.204H38.0681V177.376H42.8801L42.4121 177.664C42.4201 177.256 42.3361 176.892 42.1601 176.572C41.9841 176.252 41.7401 176.004 41.4281 175.828C41.1241 175.644 40.7681 175.552 40.3601 175.552C39.9601 175.552 39.6041 175.644 39.2921 175.828C38.9801 176.004 38.7361 176.256 38.5601 176.584C38.3841 176.904 38.2961 177.272 38.2961 177.688V177.88C38.2961 178.304 38.3921 178.684 38.5841 179.02C38.7841 179.348 39.0601 179.604 39.4121 179.788C39.7641 179.972 40.1681 180.064 40.6241 180.064C41.0001 180.064 41.3401 180 41.6441 179.872C41.9561 179.744 42.2281 179.552 42.4601 179.296L43.0961 180.04C42.8081 180.376 42.4481 180.632 42.0161 180.808C41.5921 180.984 41.1161 181.072 40.5881 181.072ZM48.0917 181.072C47.4757 181.072 46.9237 180.936 46.4357 180.664C45.9557 180.392 45.5757 180.012 45.2957 179.524C45.0157 179.036 44.8757 178.468 44.8757 177.82C44.8757 177.172 45.0157 176.608 45.2957 176.128C45.5757 175.64 45.9557 175.26 46.4357 174.988C46.9237 174.716 47.4757 174.58 48.0917 174.58C48.6277 174.58 49.1117 174.7 49.5437 174.94C49.9757 175.18 50.3197 175.54 50.5757 176.02C50.8397 176.5 50.9717 177.1 50.9717 177.82C50.9717 178.54 50.8437 179.14 50.5877 179.62C50.3397 180.1 49.9997 180.464 49.5677 180.712C49.1357 180.952 48.6437 181.072 48.0917 181.072ZM48.1877 180.064C48.5877 180.064 48.9477 179.972 49.2677 179.788C49.5957 179.604 49.8517 179.344 50.0357 179.008C50.2277 178.664 50.3237 178.268 50.3237 177.82C50.3237 177.364 50.2277 176.972 50.0357 176.644C49.8517 176.308 49.5957 176.048 49.2677 175.864C48.9477 175.68 48.5877 175.588 48.1877 175.588C47.7797 175.588 47.4157 175.68 47.0957 175.864C46.7757 176.048 46.5197 176.308 46.3277 176.644C46.1357 176.972 46.0397 177.364 46.0397 177.82C46.0397 178.268 46.1357 178.664 46.3277 179.008C46.5197 179.344 46.7757 179.604 47.0957 179.788C47.4157 179.972 47.7797 180.064 48.1877 180.064ZM50.3597 181V179.284L50.4317 177.808L50.3117 176.332V172.096H51.4637V181H50.3597Z" fill="#949BA4"/>
<path d="M26.402 221V213.644H23.522V212.6H30.47V213.644H27.59V221H26.402ZM35.365 214.58C35.885 214.58 36.341 214.68 36.733 214.88C37.133 215.08 37.445 215.384 37.669 215.792C37.893 216.2 38.005 216.716 38.005 217.34V221H36.853V217.472C36.853 216.856 36.701 216.392 36.397 216.08C36.101 215.768 35.681 215.612 35.137 215.612C34.729 215.612 34.373 215.692 34.069 215.852C33.765 216.012 33.529 216.248 33.361 216.56C33.201 216.872 33.121 217.26 33.121 217.724V221H31.969V212.096H33.121V216.356L32.893 215.9C33.101 215.484 33.421 215.16 33.853 214.928C34.285 214.696 34.789 214.58 35.365 214.58ZM43.1729 221.072C42.6289 221.072 42.1489 220.972 41.7329 220.772C41.3249 220.572 41.0049 220.268 40.7729 219.86C40.5489 219.444 40.4369 218.924 40.4369 218.3V214.64H41.5889V218.168C41.5889 218.792 41.7369 219.26 42.0329 219.572C42.3369 219.884 42.7609 220.04 43.3049 220.04C43.7049 220.04 44.0529 219.96 44.3489 219.8C44.6449 219.632 44.8729 219.392 45.0329 219.08C45.1929 218.76 45.2729 218.376 45.2729 217.928V214.64H46.4249V221H45.3329V219.284L45.5129 219.74C45.3049 220.164 44.9929 220.492 44.5769 220.724C44.1609 220.956 43.6929 221.072 43.1729 221.072Z" fill="#949BA4"/>
<path d="M25.6343 256.572H29.9663V257.604H25.6343V256.572ZM25.7543 261H24.5543V252.6H30.4823V253.644H25.7543V261ZM32.2463 261V254.64H33.3503V256.368L33.2423 255.936C33.4183 255.496 33.7143 255.16 34.1303 254.928C34.5463 254.696 35.0583 254.58 35.6663 254.58V255.696C35.6183 255.688 35.5703 255.684 35.5223 255.684C35.4823 255.684 35.4423 255.684 35.4023 255.684C34.7863 255.684 34.2983 255.868 33.9383 256.236C33.5783 256.604 33.3983 257.136 33.3983 257.832V261H32.2463ZM37.4461 261V254.64H38.5981V261H37.4461ZM38.0221 253.416C37.7981 253.416 37.6101 253.344 37.4581 253.2C37.3141 253.056 37.2421 252.88 37.2421 252.672C37.2421 252.456 37.3141 252.276 37.4581 252.132C37.6101 251.988 37.7981 251.916 38.0221 251.916C38.2461 251.916 38.4301 251.988 38.5741 252.132C38.7261 252.268 38.8021 252.44 38.8021 252.648C38.8021 252.864 38.7301 253.048 38.5861 253.2C38.4421 253.344 38.2541 253.416 38.0221 253.416Z" fill="#949BA4"/>
<path d="M27.0511 301.096C26.4111 301.096 25.7991 301 25.2151 300.808C24.6311 300.608 24.1711 300.352 23.8351 300.04L24.2791 299.104C24.5991 299.384 25.0071 299.616 25.5031 299.8C25.9991 299.984 26.5151 300.076 27.0511 300.076C27.5391 300.076 27.9351 300.02 28.2391 299.908C28.5431 299.796 28.7671 299.644 28.9111 299.452C29.0551 299.252 29.1271 299.028 29.1271 298.78C29.1271 298.492 29.0311 298.26 28.8391 298.084C28.6551 297.908 28.4111 297.768 28.1071 297.664C27.8111 297.552 27.4831 297.456 27.1231 297.376C26.7631 297.296 26.3991 297.204 26.0311 297.1C25.6711 296.988 25.3391 296.848 25.0351 296.68C24.7391 296.512 24.4991 296.288 24.3151 296.008C24.1311 295.72 24.0391 295.352 24.0391 294.904C24.0391 294.472 24.1511 294.076 24.3751 293.716C24.6071 293.348 24.9591 293.056 25.4311 292.84C25.9111 292.616 26.5191 292.504 27.2551 292.504C27.7431 292.504 28.2271 292.568 28.7071 292.696C29.1871 292.824 29.6031 293.008 29.9551 293.248L29.5591 294.208C29.1991 293.968 28.8191 293.796 28.4191 293.692C28.0191 293.58 27.6311 293.524 27.2551 293.524C26.7831 293.524 26.3951 293.584 26.0911 293.704C25.7871 293.824 25.5631 293.984 25.4191 294.184C25.2831 294.384 25.2151 294.608 25.2151 294.856C25.2151 295.152 25.3071 295.388 25.4911 295.564C25.6831 295.74 25.9271 295.88 26.2231 295.984C26.5271 296.088 26.8591 296.184 27.2191 296.272C27.5791 296.352 27.9391 296.444 28.2991 296.548C28.6671 296.652 28.9991 296.788 29.2951 296.956C29.5991 297.124 29.8431 297.348 30.0271 297.628C30.2111 297.908 30.3031 298.268 30.3031 298.708C30.3031 299.132 30.1871 299.528 29.9551 299.896C29.7231 300.256 29.3631 300.548 28.8751 300.772C28.3951 300.988 27.7871 301.096 27.0511 301.096ZM36.1963 301V299.656L36.1363 299.404V297.112C36.1363 296.624 35.9923 296.248 35.7043 295.984C35.4243 295.712 35.0003 295.576 34.4323 295.576C34.0563 295.576 33.6883 295.64 33.3283 295.768C32.9683 295.888 32.6643 296.052 32.4163 296.26L31.9363 295.396C32.2643 295.132 32.6563 294.932 33.1123 294.796C33.5763 294.652 34.0603 294.58 34.5643 294.58C35.4363 294.58 36.1083 294.792 36.5803 295.216C37.0523 295.64 37.2883 296.288 37.2883 297.16V301H36.1963ZM34.1083 301.072C33.6363 301.072 33.2203 300.992 32.8603 300.832C32.5083 300.672 32.2363 300.452 32.0443 300.172C31.8523 299.884 31.7563 299.56 31.7563 299.2C31.7563 298.856 31.8363 298.544 31.9963 298.264C32.1643 297.984 32.4323 297.76 32.8003 297.592C33.1763 297.424 33.6803 297.34 34.3123 297.34H36.3283V298.168H34.3603C33.7843 298.168 33.3963 298.264 33.1963 298.456C32.9963 298.648 32.8963 298.88 32.8963 299.152C32.8963 299.464 33.0203 299.716 33.2683 299.908C33.5163 300.092 33.8603 300.184 34.3003 300.184C34.7323 300.184 35.1083 300.088 35.4283 299.896C35.7563 299.704 35.9923 299.424 36.1363 299.056L36.3643 299.848C36.2123 300.224 35.9443 300.524 35.5603 300.748C35.1763 300.964 34.6923 301.072 34.1083 301.072ZM41.9641 301.072C41.3241 301.072 40.8281 300.9 40.4761 300.556C40.1241 300.212 39.9481 299.72 39.9481 299.08V293.248H41.1001V299.032C41.1001 299.376 41.1841 299.64 41.3521 299.824C41.5281 300.008 41.7761 300.1 42.0961 300.1C42.4561 300.1 42.7561 300 42.9961 299.8L43.3561 300.628C43.1801 300.78 42.9681 300.892 42.7201 300.964C42.4801 301.036 42.2281 301.072 41.9641 301.072ZM38.8681 295.588V294.64H42.9241V295.588H38.8681Z" fill="#949BA4"/>
<path d="M68.495 29.096C67.839 29.096 67.251 28.928 66.731 28.592C66.219 28.256 65.811 27.768 65.507 27.128C65.211 26.488 65.063 25.712 65.063 24.8C65.063 23.888 65.211 23.112 65.507 22.472C65.811 21.832 66.219 21.344 66.731 21.008C67.251 20.672 67.839 20.504 68.495 20.504C69.143 20.504 69.727 20.672 70.247 21.008C70.767 21.344 71.175 21.832 71.471 22.472C71.767 23.112 71.915 23.888 71.915 24.8C71.915 25.712 71.767 26.488 71.471 27.128C71.175 27.768 70.767 28.256 70.247 28.592C69.727 28.928 69.143 29.096 68.495 29.096ZM68.495 28.028C68.935 28.028 69.319 27.908 69.647 27.668C69.983 27.428 70.243 27.068 70.427 26.588C70.619 26.108 70.715 25.512 70.715 24.8C70.715 24.088 70.619 23.492 70.427 23.012C70.243 22.532 69.983 22.172 69.647 21.932C69.319 21.692 68.935 21.572 68.495 21.572C68.055 21.572 67.667 21.692 67.331 21.932C66.995 22.172 66.731 22.532 66.539 23.012C66.355 23.492 66.263 24.088 66.263 24.8C66.263 25.512 66.355 26.108 66.539 26.588C66.731 27.068 66.995 27.428 67.331 27.668C67.667 27.908 68.055 28.028 68.495 28.028ZM74.7969 29L78.3609 21.104L78.6729 21.644H73.6809L74.2809 21.056V23.144H73.1289V20.6H79.4649V21.416L76.0689 29H74.7969ZM81.4344 24.224C81.2104 24.224 81.0184 24.148 80.8584 23.996C80.6984 23.836 80.6184 23.636 80.6184 23.396C80.6184 23.156 80.6984 22.96 80.8584 22.808C81.0184 22.656 81.2104 22.58 81.4344 22.58C81.6504 22.58 81.8344 22.656 81.9864 22.808C82.1464 22.96 82.2264 23.156 82.2264 23.396C82.2264 23.636 82.1464 23.836 81.9864 23.996C81.8344 24.148 81.6504 24.224 81.4344 24.224ZM81.4344 29.072C81.2104 29.072 81.0184 28.996 80.8584 28.844C80.6984 28.684 80.6184 28.484 80.6184 28.244C80.6184 28.004 80.6984 27.808 80.8584 27.656C81.0184 27.504 81.2104 27.428 81.4344 27.428C81.6504 27.428 81.8344 27.504 81.9864 27.656C82.1464 27.808 82.2264 28.004 82.2264 28.244C82.2264 28.484 82.1464 28.684 81.9864 28.844C81.8344 28.996 81.6504 29.072 81.4344 29.072ZM87.1532 29.096C86.4972 29.096 85.9092 28.928 85.3892 28.592C84.8772 28.256 84.4692 27.768 84.1652 27.128C83.8692 26.488 83.7212 25.712 83.7212 24.8C83.7212 23.888 83.8692 23.112 84.1652 22.472C84.4692 21.832 84.8772 21.344 85.3892 21.008C85.9092 20.672 86.4972 20.504 87.1532 20.504C87.8012 20.504 88.3852 20.672 88.9052 21.008C89.4252 21.344 89.8332 21.832 90.1292 22.472C90.4252 23.112 90.5732 23.888 90.5732 24.8C90.5732 25.712 90.4252 26.488 90.1292 27.128C89.8332 27.768 89.4252 28.256 88.9052 28.592C88.3852 28.928 87.8012 29.096 87.1532 29.096ZM87.1532 28.028C87.5932 28.028 87.9772 27.908 88.3052 27.668C88.6412 27.428 88.9012 27.068 89.0852 26.588C89.2772 26.108 89.3732 25.512 89.3732 24.8C89.3732 24.088 89.2772 23.492 89.0852 23.012C88.9012 22.532 88.6412 22.172 88.3052 21.932C87.9772 21.692 87.5932 21.572 87.1532 21.572C86.7132 21.572 86.3252 21.692 85.9892 21.932C85.6532 22.172 85.3892 22.532 85.1972 23.012C85.0132 23.492 84.9212 24.088 84.9212 24.8C84.9212 25.512 85.0132 26.108 85.1972 26.588C85.3892 27.068 85.6532 27.428 85.9892 27.668C86.3252 27.908 86.7132 28.028 87.1532 28.028ZM95.5171 29.096C94.8611 29.096 94.2731 28.928 93.7531 28.592C93.2411 28.256 92.8331 27.768 92.5291 27.128C92.2331 26.488 92.0851 25.712 92.0851 24.8C92.0851 23.888 92.2331 23.112 92.5291 22.472C92.8331 21.832 93.2411 21.344 93.7531 21.008C94.2731 20.672 94.8611 20.504 95.5171 20.504C96.1651 20.504 96.7491 20.672 97.2691 21.008C97.7891 21.344 98.1971 21.832 98.4931 22.472C98.7891 23.112 98.9371 23.888 98.9371 24.8C98.9371 25.712 98.7891 26.488 98.4931 27.128C98.1971 27.768 97.7891 28.256 97.2691 28.592C96.7491 28.928 96.1651 29.096 95.5171 29.096ZM95.5171 28.028C95.9571 28.028 96.3411 27.908 96.6691 27.668C97.0051 27.428 97.2651 27.068 97.4491 26.588C97.6411 26.108 97.7371 25.512 97.7371 24.8C97.7371 24.088 97.6411 23.492 97.4491 23.012C97.2651 22.532 97.0051 22.172 96.6691 21.932C96.3411 21.692 95.9571 21.572 95.5171 21.572C95.0771 21.572 94.6891 21.692 94.3531 21.932C94.0171 22.172 93.7531 22.532 93.5611 23.012C93.3771 23.492 93.2851 24.088 93.2851 24.8C93.2851 25.512 93.3771 26.108 93.5611 26.588C93.7531 27.068 94.0171 27.428 94.3531 27.668C94.6891 27.908 95.0771 28.028 95.5171 28.028Z" fill="#949BA4"/>
<path d="M129.052 29.096C128.396 29.096 127.808 28.928 127.288 28.592C126.776 28.256 126.368 27.768 126.064 27.128C125.768 26.488 125.62 25.712 125.62 24.8C125.62 23.888 125.768 23.112 126.064 22.472C126.368 21.832 126.776 21.344 127.288 21.008C127.808 20.672 128.396 20.504 129.052 20.504C129.7 20.504 130.284 20.672 130.804 21.008C131.324 21.344 131.732 21.832 132.028 22.472C132.324 23.112 132.472 23.888 132.472 24.8C132.472 25.712 132.324 26.488 132.028 27.128C131.732 27.768 131.324 28.256 130.804 28.592C130.284 28.928 129.7 29.096 129.052 29.096ZM129.052 28.028C129.492 28.028 129.876 27.908 130.204 27.668C130.54 27.428 130.8 27.068 130.984 26.588C131.176 26.108 131.272 25.512 131.272 24.8C131.272 24.088 131.176 23.492 130.984 23.012C130.8 22.532 130.54 22.172 130.204 21.932C129.876 21.692 129.492 21.572 129.052 21.572C128.612 21.572 128.224 21.692 127.888 21.932C127.552 22.172 127.288 22.532 127.096 23.012C126.912 23.492 126.82 24.088 126.82 24.8C126.82 25.512 126.912 26.108 127.096 26.588C127.288 27.068 127.552 27.428 127.888 27.668C128.224 27.908 128.612 28.028 129.052 28.028ZM135.354 29L138.918 21.104L139.23 21.644H134.238L134.838 21.056V23.144H133.686V20.6H140.022V21.416L136.626 29H135.354ZM141.991 24.224C141.767 24.224 141.575 24.148 141.415 23.996C141.255 23.836 141.175 23.636 141.175 23.396C141.175 23.156 141.255 22.96 141.415 22.808C141.575 22.656 141.767 22.58 141.991 22.58C142.207 22.58 142.391 22.656 142.543 22.808C142.703 22.96 142.783 23.156 142.783 23.396C142.783 23.636 142.703 23.836 142.543 23.996C142.391 24.148 142.207 24.224 141.991 24.224ZM141.991 29.072C141.767 29.072 141.575 28.996 141.415 28.844C141.255 28.684 141.175 28.484 141.175 28.244C141.175 28.004 141.255 27.808 141.415 27.656C141.575 27.504 141.767 27.428 141.991 27.428C142.207 27.428 142.391 27.504 142.543 27.656C142.703 27.808 142.783 28.004 142.783 28.244C142.783 28.484 142.703 28.684 142.543 28.844C142.391 28.996 142.207 29.072 141.991 29.072ZM146.99 29.096C146.398 29.096 145.822 29.004 145.262 28.82C144.71 28.636 144.258 28.388 143.906 28.076L144.458 27.128C144.738 27.392 145.102 27.608 145.55 27.776C145.998 27.944 146.474 28.028 146.978 28.028C147.618 28.028 148.11 27.892 148.454 27.62C148.798 27.348 148.97 26.984 148.97 26.528C148.97 26.216 148.894 25.944 148.742 25.712C148.59 25.48 148.326 25.304 147.95 25.184C147.582 25.056 147.074 24.992 146.426 24.992H144.518L144.962 20.6H149.702V21.644H145.406L146.03 21.056L145.682 24.524L145.058 23.948H146.678C147.518 23.948 148.194 24.056 148.706 24.272C149.218 24.488 149.59 24.788 149.822 25.172C150.054 25.548 150.17 25.984 150.17 26.48C150.17 26.96 150.054 27.4 149.822 27.8C149.59 28.192 149.238 28.508 148.766 28.748C148.302 28.98 147.71 29.096 146.99 29.096ZM154.96 29.096C154.304 29.096 153.716 28.928 153.196 28.592C152.684 28.256 152.276 27.768 151.972 27.128C151.676 26.488 151.528 25.712 151.528 24.8C151.528 23.888 151.676 23.112 151.972 22.472C152.276 21.832 152.684 21.344 153.196 21.008C153.716 20.672 154.304 20.504 154.96 20.504C155.608 20.504 156.192 20.672 156.712 21.008C157.232 21.344 157.64 21.832 157.936 22.472C158.232 23.112 158.38 23.888 158.38 24.8C158.38 25.712 158.232 26.488 157.936 27.128C157.64 27.768 157.232 28.256 156.712 28.592C156.192 28.928 155.608 29.096 154.96 29.096ZM154.96 28.028C155.4 28.028 155.784 27.908 156.112 27.668C156.448 27.428 156.708 27.068 156.892 26.588C157.084 26.108 157.18 25.512 157.18 24.8C157.18 24.088 157.084 23.492 156.892 23.012C156.708 22.532 156.448 22.172 156.112 21.932C155.784 21.692 155.4 21.572 154.96 21.572C154.52 21.572 154.132 21.692 153.796 21.932C153.46 22.172 153.196 22.532 153.004 23.012C152.82 23.492 152.728 24.088 152.728 24.8C152.728 25.512 152.82 26.108 153.004 26.588C153.196 27.068 153.46 27.428 153.796 27.668C154.132 27.908 154.52 28.028 154.96 28.028Z" fill="#949BA4"/>
<path d="M188.05 29.096C187.394 29.096 186.806 28.928 186.286 28.592C185.774 28.256 185.366 27.768 185.062 27.128C184.766 26.488 184.618 25.712 184.618 24.8C184.618 23.888 184.766 23.112 185.062 22.472C185.366 21.832 185.774 21.344 186.286 21.008C186.806 20.672 187.394 20.504 188.05 20.504C188.698 20.504 189.282 20.672 189.802 21.008C190.322 21.344 190.73 21.832 191.026 22.472C191.322 23.112 191.47 23.888 191.47 24.8C191.47 25.712 191.322 26.488 191.026 27.128C190.73 27.768 190.322 28.256 189.802 28.592C189.282 28.928 188.698 29.096 188.05 29.096ZM188.05 28.028C188.49 28.028 188.874 27.908 189.202 27.668C189.538 27.428 189.798 27.068 189.982 26.588C190.174 26.108 190.27 25.512 190.27 24.8C190.27 24.088 190.174 23.492 189.982 23.012C189.798 22.532 189.538 22.172 189.202 21.932C188.874 21.692 188.49 21.572 188.05 21.572C187.61 21.572 187.222 21.692 186.886 21.932C186.55 22.172 186.286 22.532 186.094 23.012C185.91 23.492 185.818 24.088 185.818 24.8C185.818 25.512 185.91 26.108 186.094 26.588C186.286 27.068 186.55 27.428 186.886 27.668C187.222 27.908 187.61 28.028 188.05 28.028ZM196.258 29.096C195.578 29.096 194.99 28.996 194.494 28.796C193.998 28.596 193.614 28.312 193.342 27.944C193.07 27.568 192.934 27.128 192.934 26.624C192.934 26.128 193.062 25.708 193.318 25.364C193.582 25.012 193.962 24.748 194.458 24.572C194.954 24.388 195.554 24.296 196.258 24.296C196.962 24.296 197.562 24.388 198.058 24.572C198.562 24.748 198.946 25.012 199.21 25.364C199.474 25.716 199.606 26.136 199.606 26.624C199.606 27.128 199.47 27.568 199.198 27.944C198.926 28.312 198.538 28.596 198.034 28.796C197.53 28.996 196.938 29.096 196.258 29.096ZM196.258 28.124C196.93 28.124 197.454 27.988 197.83 27.716C198.214 27.436 198.406 27.06 198.406 26.588C198.406 26.124 198.214 25.76 197.83 25.496C197.454 25.224 196.93 25.088 196.258 25.088C195.594 25.088 195.074 25.224 194.698 25.496C194.322 25.76 194.134 26.124 194.134 26.588C194.134 27.06 194.322 27.436 194.698 27.716C195.074 27.988 195.594 28.124 196.258 28.124ZM196.258 24.944C195.618 24.944 195.074 24.86 194.626 24.692C194.178 24.516 193.834 24.268 193.594 23.948C193.354 23.62 193.234 23.232 193.234 22.784C193.234 22.312 193.358 21.908 193.606 21.572C193.862 21.228 194.218 20.964 194.674 20.78C195.13 20.596 195.658 20.504 196.258 20.504C196.866 20.504 197.398 20.596 197.854 20.78C198.31 20.964 198.666 21.228 198.922 21.572C199.178 21.908 199.306 22.312 199.306 22.784C199.306 23.232 199.186 23.62 198.946 23.948C198.706 24.268 198.358 24.516 197.902 24.692C197.446 24.86 196.898 24.944 196.258 24.944ZM196.258 24.176C196.842 24.176 197.298 24.056 197.626 23.816C197.962 23.576 198.13 23.248 198.13 22.832C198.13 22.408 197.958 22.076 197.614 21.836C197.27 21.596 196.818 21.476 196.258 21.476C195.698 21.476 195.25 21.596 194.914 21.836C194.586 22.076 194.422 22.408 194.422 22.832C194.422 23.248 194.582 23.576 194.902 23.816C195.23 24.056 195.682 24.176 196.258 24.176ZM201.856 24.224C201.632 24.224 201.44 24.148 201.28 23.996C201.12 23.836 201.04 23.636 201.04 23.396C201.04 23.156 201.12 22.96 201.28 22.808C201.44 22.656 201.632 22.58 201.856 22.58C202.072 22.58 202.256 22.656 202.408 22.808C202.568 22.96 202.648 23.156 202.648 23.396C202.648 23.636 202.568 23.836 202.408 23.996C202.256 24.148 202.072 24.224 201.856 24.224ZM201.856 29.072C201.632 29.072 201.44 28.996 201.28 28.844C201.12 28.684 201.04 28.484 201.04 28.244C201.04 28.004 201.12 27.808 201.28 27.656C201.44 27.504 201.632 27.428 201.856 27.428C202.072 27.428 202.256 27.504 202.408 27.656C202.568 27.808 202.648 28.004 202.648 28.244C202.648 28.484 202.568 28.684 202.408 28.844C202.256 28.996 202.072 29.072 201.856 29.072ZM204.023 26.936V26.096L208.319 20.6H209.615L205.355 26.096L204.743 25.904H211.451V26.936H204.023ZM208.691 29V26.936L208.727 25.904V24.08H209.855V29H208.691ZM215.962 29.096C215.306 29.096 214.718 28.928 214.198 28.592C213.686 28.256 213.278 27.768 212.974 27.128C212.678 26.488 212.53 25.712 212.53 24.8C212.53 23.888 212.678 23.112 212.974 22.472C213.278 21.832 213.686 21.344 214.198 21.008C214.718 20.672 215.306 20.504 215.962 20.504C216.61 20.504 217.194 20.672 217.714 21.008C218.234 21.344 218.642 21.832 218.938 22.472C219.234 23.112 219.382 23.888 219.382 24.8C219.382 25.712 219.234 26.488 218.938 27.128C218.642 27.768 218.234 28.256 217.714 28.592C217.194 28.928 216.61 29.096 215.962 29.096ZM215.962 28.028C216.402 28.028 216.786 27.908 217.114 27.668C217.45 27.428 217.71 27.068 217.894 26.588C218.086 26.108 218.182 25.512 218.182 24.8C218.182 24.088 218.086 23.492 217.894 23.012C217.71 22.532 217.45 22.172 217.114 21.932C216.786 21.692 216.402 21.572 215.962 21.572C215.522 21.572 215.134 21.692 214.798 21.932C214.462 22.172 214.198 22.532 214.006 23.012C213.822 23.492 213.73 24.088 213.73 24.8C213.73 25.512 213.822 26.108 214.006 26.588C214.198 27.068 214.462 27.428 214.798 27.668C215.134 27.908 215.522 28.028 215.962 28.028Z" fill="#949BA4"/>
<path d="M249.333 29.096C248.677 29.096 248.089 28.928 247.569 28.592C247.057 28.256 246.649 27.768 246.345 27.128C246.049 26.488 245.901 25.712 245.901 24.8C245.901 23.888 246.049 23.112 246.345 22.472C246.649 21.832 247.057 21.344 247.569 21.008C248.089 20.672 248.677 20.504 249.333 20.504C249.981 20.504 250.565 20.672 251.085 21.008C251.605 21.344 252.013 21.832 252.309 22.472C252.605 23.112 252.753 23.888 252.753 24.8C252.753 25.712 252.605 26.488 252.309 27.128C252.013 27.768 251.605 28.256 251.085 28.592C250.565 28.928 249.981 29.096 249.333 29.096ZM249.333 28.028C249.773 28.028 250.157 27.908 250.485 27.668C250.821 27.428 251.081 27.068 251.265 26.588C251.457 26.108 251.553 25.512 251.553 24.8C251.553 24.088 251.457 23.492 251.265 23.012C251.081 22.532 250.821 22.172 250.485 21.932C250.157 21.692 249.773 21.572 249.333 21.572C248.893 21.572 248.505 21.692 248.169 21.932C247.833 22.172 247.569 22.532 247.377 23.012C247.193 23.492 247.101 24.088 247.101 24.8C247.101 25.512 247.193 26.108 247.377 26.588C247.569 27.068 247.833 27.428 248.169 27.668C248.505 27.908 248.893 28.028 249.333 28.028ZM256.989 20.504C257.749 20.504 258.389 20.668 258.909 20.996C259.437 21.324 259.837 21.8 260.109 22.424C260.381 23.04 260.517 23.796 260.517 24.692C260.517 25.644 260.349 26.448 260.013 27.104C259.677 27.76 259.213 28.256 258.621 28.592C258.029 28.928 257.337 29.096 256.545 29.096C256.153 29.096 255.773 29.056 255.405 28.976C255.045 28.896 254.729 28.772 254.457 28.604L254.913 27.668C255.137 27.812 255.385 27.916 255.657 27.98C255.937 28.036 256.229 28.064 256.533 28.064C257.381 28.064 258.057 27.8 258.561 27.272C259.065 26.736 259.317 25.944 259.317 24.896C259.317 24.728 259.309 24.528 259.293 24.296C259.277 24.064 259.241 23.836 259.185 23.612L259.581 24.02C259.469 24.388 259.281 24.7 259.017 24.956C258.761 25.204 258.449 25.392 258.081 25.52C257.721 25.64 257.325 25.7 256.893 25.7C256.341 25.7 255.849 25.596 255.417 25.388C254.985 25.18 254.645 24.888 254.397 24.512C254.149 24.128 254.025 23.676 254.025 23.156C254.025 22.612 254.153 22.144 254.409 21.752C254.673 21.352 255.029 21.044 255.477 20.828C255.933 20.612 256.437 20.504 256.989 20.504ZM257.037 21.476C256.677 21.476 256.357 21.544 256.077 21.68C255.797 21.816 255.577 22.004 255.417 22.244C255.265 22.484 255.189 22.772 255.189 23.108C255.189 23.604 255.361 24 255.705 24.296C256.049 24.584 256.513 24.728 257.097 24.728C257.481 24.728 257.817 24.656 258.105 24.512C258.401 24.368 258.629 24.172 258.789 23.924C258.957 23.676 259.041 23.4 259.041 23.096C259.041 22.8 258.965 22.532 258.813 22.292C258.661 22.052 258.437 21.856 258.141 21.704C257.845 21.552 257.477 21.476 257.037 21.476ZM262.823 24.224C262.599 24.224 262.407 24.148 262.247 23.996C262.087 23.836 262.007 23.636 262.007 23.396C262.007 23.156 262.087 22.96 262.247 22.808C262.407 22.656 262.599 22.58 262.823 22.58C263.039 22.58 263.223 22.656 263.375 22.808C263.535 22.96 263.615 23.156 263.615 23.396C263.615 23.636 263.535 23.836 263.375 23.996C263.223 24.148 263.039 24.224 262.823 24.224ZM262.823 29.072C262.599 29.072 262.407 28.996 262.247 28.844C262.087 28.684 262.007 28.484 262.007 28.244C262.007 28.004 262.087 27.808 262.247 27.656C262.407 27.504 262.599 27.428 262.823 27.428C263.039 27.428 263.223 27.504 263.375 27.656C263.535 27.808 263.615 28.004 263.615 28.244C263.615 28.484 263.535 28.684 263.375 28.844C263.223 28.996 263.039 29.072 262.823 29.072ZM264.978 29V28.184L268.398 24.884C268.702 24.596 268.926 24.344 269.07 24.128C269.222 23.904 269.322 23.7 269.37 23.516C269.426 23.324 269.454 23.14 269.454 22.964C269.454 22.532 269.302 22.192 268.998 21.944C268.694 21.696 268.25 21.572 267.666 21.572C267.218 21.572 266.814 21.648 266.454 21.8C266.094 21.944 265.782 22.172 265.518 22.484L264.702 21.776C265.022 21.368 265.45 21.056 265.986 20.84C266.53 20.616 267.126 20.504 267.774 20.504C268.358 20.504 268.866 20.6 269.298 20.792C269.73 20.976 270.062 21.244 270.294 21.596C270.534 21.948 270.654 22.364 270.654 22.844C270.654 23.116 270.618 23.384 270.546 23.648C270.474 23.912 270.338 24.192 270.138 24.488C269.938 24.784 269.65 25.116 269.274 25.484L266.226 28.424L265.938 27.956H271.014V29H264.978ZM275.072 29.096C274.48 29.096 273.904 29.004 273.344 28.82C272.792 28.636 272.34 28.388 271.988 28.076L272.54 27.128C272.82 27.392 273.184 27.608 273.632 27.776C274.08 27.944 274.556 28.028 275.06 28.028C275.7 28.028 276.192 27.892 276.536 27.62C276.88 27.348 277.052 26.984 277.052 26.528C277.052 26.216 276.976 25.944 276.824 25.712C276.672 25.48 276.408 25.304 276.032 25.184C275.664 25.056 275.156 24.992 274.508 24.992H272.6L273.044 20.6H277.784V21.644H273.488L274.112 21.056L273.764 24.524L273.14 23.948H274.76C275.6 23.948 276.276 24.056 276.788 24.272C277.3 24.488 277.672 24.788 277.904 25.172C278.136 25.548 278.252 25.984 278.252 26.48C278.252 26.96 278.136 27.4 277.904 27.8C277.672 28.192 277.32 28.508 276.848 28.748C276.384 28.98 275.792 29.096 275.072 29.096Z" fill="#949BA4"/>
<path d="M306.37 29V21.08L306.886 21.644H304.474V20.6H307.558V29H306.37ZM313.187 29.096C312.531 29.096 311.943 28.928 311.423 28.592C310.911 28.256 310.503 27.768 310.199 27.128C309.903 26.488 309.755 25.712 309.755 24.8C309.755 23.888 309.903 23.112 310.199 22.472C310.503 21.832 310.911 21.344 311.423 21.008C311.943 20.672 312.531 20.504 313.187 20.504C313.835 20.504 314.419 20.672 314.939 21.008C315.459 21.344 315.867 21.832 316.163 22.472C316.459 23.112 316.607 23.888 316.607 24.8C316.607 25.712 316.459 26.488 316.163 27.128C315.867 27.768 315.459 28.256 314.939 28.592C314.419 28.928 313.835 29.096 313.187 29.096ZM313.187 28.028C313.627 28.028 314.011 27.908 314.339 27.668C314.675 27.428 314.935 27.068 315.119 26.588C315.311 26.108 315.407 25.512 315.407 24.8C315.407 24.088 315.311 23.492 315.119 23.012C314.935 22.532 314.675 22.172 314.339 21.932C314.011 21.692 313.627 21.572 313.187 21.572C312.747 21.572 312.359 21.692 312.023 21.932C311.687 22.172 311.423 22.532 311.231 23.012C311.047 23.492 310.955 24.088 310.955 24.8C310.955 25.512 311.047 26.108 311.231 26.588C311.423 27.068 311.687 27.428 312.023 27.668C312.359 27.908 312.747 28.028 313.187 28.028ZM318.911 24.224C318.687 24.224 318.495 24.148 318.335 23.996C318.175 23.836 318.095 23.636 318.095 23.396C318.095 23.156 318.175 22.96 318.335 22.808C318.495 22.656 318.687 22.58 318.911 22.58C319.127 22.58 319.311 22.656 319.463 22.808C319.623 22.96 319.703 23.156 319.703 23.396C319.703 23.636 319.623 23.836 319.463 23.996C319.311 24.148 319.127 24.224 318.911 24.224ZM318.911 29.072C318.687 29.072 318.495 28.996 318.335 28.844C318.175 28.684 318.095 28.484 318.095 28.244C318.095 28.004 318.175 27.808 318.335 27.656C318.495 27.504 318.687 27.428 318.911 27.428C319.127 27.428 319.311 27.504 319.463 27.656C319.623 27.808 319.703 28.004 319.703 28.244C319.703 28.484 319.623 28.684 319.463 28.844C319.311 28.996 319.127 29.072 318.911 29.072ZM323.766 29.096C323.174 29.096 322.598 29.004 322.038 28.82C321.486 28.636 321.034 28.388 320.682 28.076L321.234 27.128C321.514 27.392 321.878 27.608 322.326 27.776C322.774 27.944 323.254 28.028 323.766 28.028C324.39 28.028 324.874 27.896 325.218 27.632C325.57 27.36 325.746 26.996 325.746 26.54C325.746 26.1 325.578 25.748 325.242 25.484C324.914 25.212 324.39 25.076 323.67 25.076H322.998V24.236L325.494 21.164L325.662 21.644H321.066V20.6H326.61V21.416L324.126 24.476L323.502 24.104H323.898C324.914 24.104 325.674 24.332 326.178 24.788C326.69 25.244 326.946 25.824 326.946 26.528C326.946 27 326.83 27.432 326.598 27.824C326.366 28.216 326.014 28.528 325.542 28.76C325.078 28.984 324.486 29.096 323.766 29.096ZM331.02 29.096C330.428 29.096 329.852 29.004 329.292 28.82C328.74 28.636 328.288 28.388 327.936 28.076L328.488 27.128C328.768 27.392 329.132 27.608 329.58 27.776C330.028 27.944 330.504 28.028 331.008 28.028C331.648 28.028 332.14 27.892 332.484 27.62C332.828 27.348 333 26.984 333 26.528C333 26.216 332.924 25.944 332.772 25.712C332.62 25.48 332.356 25.304 331.98 25.184C331.612 25.056 331.104 24.992 330.456 24.992H328.548L328.992 20.6H333.732V21.644H329.436L330.06 21.056L329.712 24.524L329.088 23.948H330.708C331.548 23.948 332.224 24.056 332.736 24.272C333.248 24.488 333.62 24.788 333.852 25.172C334.084 25.548 334.2 25.984 334.2 26.48C334.2 26.96 334.084 27.4 333.852 27.8C333.62 28.192 333.268 28.508 332.796 28.748C332.332 28.98 331.74 29.096 331.02 29.096Z" fill="#949BA4"/>
<path d="M362.305 29V21.08L362.821 21.644H360.409V20.6H363.493V29H362.305ZM367.107 29V21.08L367.623 21.644H365.211V20.6H368.295V29H367.107ZM371.284 24.224C371.06 24.224 370.868 24.148 370.708 23.996C370.548 23.836 370.468 23.636 370.468 23.396C370.468 23.156 370.548 22.96 370.708 22.808C370.868 22.656 371.06 22.58 371.284 22.58C371.5 22.58 371.684 22.656 371.836 22.808C371.996 22.96 372.076 23.156 372.076 23.396C372.076 23.636 371.996 23.836 371.836 23.996C371.684 24.148 371.5 24.224 371.284 24.224ZM371.284 29.072C371.06 29.072 370.868 28.996 370.708 28.844C370.548 28.684 370.468 28.484 370.468 28.244C370.468 28.004 370.548 27.808 370.708 27.656C370.868 27.504 371.06 27.428 371.284 27.428C371.5 27.428 371.684 27.504 371.836 27.656C371.996 27.808 372.076 28.004 372.076 28.244C372.076 28.484 371.996 28.684 371.836 28.844C371.684 28.996 371.5 29.072 371.284 29.072ZM374.987 29V21.08L375.503 21.644H373.091V20.6H376.175V29H374.987ZM381.084 29.096C380.492 29.096 379.916 29.004 379.356 28.82C378.804 28.636 378.352 28.388 378 28.076L378.552 27.128C378.832 27.392 379.196 27.608 379.644 27.776C380.092 27.944 380.568 28.028 381.072 28.028C381.712 28.028 382.204 27.892 382.548 27.62C382.892 27.348 383.064 26.984 383.064 26.528C383.064 26.216 382.988 25.944 382.836 25.712C382.684 25.48 382.42 25.304 382.044 25.184C381.676 25.056 381.168 24.992 380.52 24.992H378.612L379.056 20.6H383.796V21.644H379.5L380.124 21.056L379.776 24.524L379.152 23.948H380.772C381.612 23.948 382.288 24.056 382.8 24.272C383.312 24.488 383.684 24.788 383.916 25.172C384.148 25.548 384.264 25.984 384.264 26.48C384.264 26.96 384.148 27.4 383.916 27.8C383.684 28.192 383.332 28.508 382.86 28.748C382.396 28.98 381.804 29.096 381.084 29.096Z" fill="#949BA4"/>
<path d="M412.305 29V21.08L412.821 21.644H410.409V20.6H413.493V29H412.305ZM417.107 29V21.08L417.623 21.644H415.211V20.6H418.295V29H417.107ZM421.284 24.224C421.06 24.224 420.868 24.148 420.708 23.996C420.548 23.836 420.468 23.636 420.468 23.396C420.468 23.156 420.548 22.96 420.708 22.808C420.868 22.656 421.06 22.58 421.284 22.58C421.5 22.58 421.684 22.656 421.836 22.808C421.996 22.96 422.076 23.156 422.076 23.396C422.076 23.636 421.996 23.836 421.836 23.996C421.684 24.148 421.5 24.224 421.284 24.224ZM421.284 29.072C421.06 29.072 420.868 28.996 420.708 28.844C420.548 28.684 420.468 28.484 420.468 28.244C420.468 28.004 420.548 27.808 420.708 27.656C420.868 27.504 421.06 27.428 421.284 27.428C421.5 27.428 421.684 27.504 421.836 27.656C421.996 27.808 422.076 28.004 422.076 28.244C422.076 28.484 421.996 28.684 421.836 28.844C421.684 28.996 421.5 29.072 421.284 29.072ZM424.987 29V21.08L425.503 21.644H423.091V20.6H426.175V29H424.987ZM431.084 29.096C430.492 29.096 429.916 29.004 429.356 28.82C428.804 28.636 428.352 28.388 428 28.076L428.552 27.128C428.832 27.392 429.196 27.608 429.644 27.776C430.092 27.944 430.568 28.028 431.072 28.028C431.712 28.028 432.204 27.892 432.548 27.62C432.892 27.348 433.064 26.984 433.064 26.528C433.064 26.216 432.988 25.944 432.836 25.712C432.684 25.48 432.42 25.304 432.044 25.184C431.676 25.056 431.168 24.992 430.52 24.992H428.612L429.056 20.6H433.796V21.644H429.5L430.124 21.056L429.776 24.524L429.152 23.948H430.772C431.612 23.948 432.288 24.056 432.8 24.272C433.312 24.488 433.684 24.788 433.916 25.172C434.148 25.548 434.264 25.984 434.264 26.48C434.264 26.96 434.148 27.4 433.916 27.8C433.684 28.192 433.332 28.508 432.86 28.748C432.396 28.98 431.804 29.096 431.084 29.096Z" fill="#949BA4"/>
<rect x="138" y="49" width="64" height="259" rx="3" fill="url(#paint0_linear_2113_26)"/>
<rect x="256" y="49" width="64" height="259" rx="3" fill="url(#paint1_linear_2113_26)"/>
<rect x="365" y="49" width="64" height="259" rx="3" fill="url(#paint2_linear_2113_26)"/>
<g filter="url(#filter0_d_2113_26)">
<rect x="73" y="57" width="160" height="25.2695" rx="12.6348" fill="#7289DA"/>
<rect x="76" y="60" width="106" height="19" rx="9.5" fill="white"/>
<path d="M91.4532 72.08C91.0159 72.08 90.6132 72.008 90.2452 71.864C89.8772 71.72 89.5572 71.52 89.2852 71.264C89.0132 71.0027 88.8025 70.6987 88.6532 70.352C88.5039 70 88.4292 69.616 88.4292 69.2C88.4292 68.784 88.5039 68.4027 88.6532 68.056C88.8025 67.704 89.0132 67.4 89.2852 67.144C89.5572 66.8827 89.8772 66.68 90.2452 66.536C90.6132 66.392 91.0132 66.32 91.4452 66.32C91.8825 66.32 92.2825 66.392 92.6452 66.536C93.0132 66.68 93.3332 66.88 93.6052 67.136C93.8772 67.392 94.0879 67.696 94.2372 68.048C94.3865 68.4 94.4612 68.784 94.4612 69.2C94.4612 69.616 94.3865 70 94.2372 70.352C94.0879 70.704 93.8772 71.008 93.6052 71.264C93.3332 71.52 93.0132 71.72 92.6452 71.864C92.2825 72.008 91.8852 72.08 91.4532 72.08ZM93.2772 73.224C93.0799 73.224 92.8879 73.2 92.7012 73.152C92.5199 73.1093 92.3385 73.0347 92.1572 72.928C91.9812 72.8267 91.7972 72.6907 91.6052 72.52C91.4132 72.3547 91.2025 72.1493 90.9732 71.904L92.0772 71.616C92.2265 71.8133 92.3679 71.9707 92.5012 72.088C92.6399 72.2107 92.7732 72.2987 92.9012 72.352C93.0292 72.4053 93.1625 72.432 93.3012 72.432C93.6692 72.432 93.9892 72.2827 94.2612 71.984L94.7412 72.56C94.3679 73.0027 93.8799 73.224 93.2772 73.224ZM91.4452 71.168C91.7279 71.168 91.9892 71.12 92.2292 71.024C92.4692 70.928 92.6772 70.792 92.8532 70.616C93.0292 70.4347 93.1652 70.224 93.2612 69.984C93.3625 69.744 93.4132 69.4827 93.4132 69.2C93.4132 68.912 93.3625 68.6507 93.2612 68.416C93.1652 68.176 93.0292 67.968 92.8532 67.792C92.6772 67.6107 92.4692 67.472 92.2292 67.376C91.9892 67.28 91.7279 67.232 91.4452 67.232C91.1625 67.232 90.9012 67.28 90.6612 67.376C90.4212 67.472 90.2132 67.6107 90.0372 67.792C89.8612 67.968 89.7225 68.176 89.6212 68.416C89.5252 68.6507 89.4772 68.912 89.4772 69.2C89.4772 69.4827 89.5252 69.744 89.6212 69.984C89.7225 70.224 89.8612 70.4347 90.0372 70.616C90.2132 70.792 90.4212 70.928 90.6612 71.024C90.9012 71.12 91.1625 71.168 91.4452 71.168ZM97.5156 72.056C97.1529 72.056 96.8329 71.9893 96.5556 71.856C96.2782 71.7173 96.0622 71.5093 95.9076 71.232C95.7529 70.9493 95.6756 70.5947 95.6756 70.168V67.728H96.6756V70.032C96.6756 70.416 96.7609 70.704 96.9316 70.896C97.1076 71.0827 97.3556 71.176 97.6756 71.176C97.9102 71.176 98.1129 71.128 98.2836 71.032C98.4596 70.936 98.5956 70.792 98.6916 70.6C98.7929 70.408 98.8436 70.1707 98.8436 69.888V67.728H99.8436V72H98.8916V70.848L99.0596 71.2C98.9156 71.4773 98.7049 71.6907 98.4276 71.84C98.1502 71.984 97.8462 72.056 97.5156 72.056ZM104.025 72V71.136L103.969 70.952V69.44C103.969 69.1467 103.881 68.92 103.705 68.76C103.529 68.5947 103.262 68.512 102.905 68.512C102.665 68.512 102.428 68.5493 102.193 68.624C101.964 68.6987 101.769 68.8027 101.609 68.936L101.217 68.208C101.446 68.032 101.718 67.9013 102.033 67.816C102.353 67.7253 102.684 67.68 103.025 67.68C103.644 67.68 104.121 67.8293 104.457 68.128C104.798 68.4213 104.969 68.8773 104.969 69.496V72H104.025ZM102.681 72.056C102.361 72.056 102.081 72.0027 101.841 71.896C101.601 71.784 101.414 71.632 101.281 71.44C101.153 71.2427 101.089 71.0213 101.089 70.776C101.089 70.536 101.145 70.32 101.257 70.128C101.374 69.936 101.564 69.784 101.825 69.672C102.086 69.56 102.433 69.504 102.865 69.504H104.105V70.168H102.937C102.596 70.168 102.366 70.224 102.249 70.336C102.132 70.4427 102.073 70.576 102.073 70.736C102.073 70.9173 102.145 71.0613 102.289 71.168C102.433 71.2747 102.633 71.328 102.889 71.328C103.134 71.328 103.353 71.272 103.545 71.16C103.742 71.048 103.884 70.8827 103.969 70.664L104.137 71.264C104.041 71.5147 103.868 71.7093 103.617 71.848C103.372 71.9867 103.06 72.056 102.681 72.056ZM103.313 67.224L102.985 66.856C103.14 66.7813 103.249 66.704 103.313 66.624C103.382 66.5387 103.417 66.4453 103.417 66.344C103.417 66.2373 103.38 66.152 103.305 66.088C103.23 66.024 103.134 65.992 103.017 65.992C102.852 65.992 102.692 66.0427 102.537 66.144L102.321 65.704C102.433 65.624 102.558 65.5627 102.697 65.52C102.836 65.4773 102.977 65.456 103.121 65.456C103.382 65.456 103.593 65.5307 103.753 65.68C103.918 65.824 104.001 66.016 104.001 66.256C104.001 66.4747 103.945 66.664 103.833 66.824C103.721 66.984 103.548 67.1173 103.313 67.224ZM108.916 67.68C109.258 67.68 109.562 67.7467 109.828 67.88C110.1 68.0133 110.314 68.2187 110.468 68.496C110.623 68.768 110.7 69.12 110.7 69.552V72H109.7V69.68C109.7 69.3013 109.61 69.0187 109.428 68.832C109.252 68.6453 109.004 68.552 108.684 68.552C108.45 68.552 108.242 68.6 108.06 68.696C107.879 68.792 107.738 68.936 107.636 69.128C107.54 69.3147 107.492 69.552 107.492 69.84V72H106.492V67.728H107.444V68.88L107.276 68.528C107.426 68.256 107.642 68.048 107.924 67.904C108.212 67.7547 108.543 67.68 108.916 67.68ZM114.756 72V66.4H115.796V71.12H118.724V72H114.756ZM119.736 73.608C119.528 73.608 119.32 73.5733 119.112 73.504C118.904 73.4347 118.731 73.3387 118.592 73.216L118.992 72.48C119.093 72.5707 119.208 72.6427 119.336 72.696C119.464 72.7493 119.595 72.776 119.728 72.776C119.909 72.776 120.056 72.7307 120.168 72.64C120.28 72.5493 120.384 72.3973 120.48 72.184L120.728 71.624L120.808 71.504L122.424 67.728H123.384L121.384 72.344C121.251 72.664 121.101 72.9173 120.936 73.104C120.776 73.2907 120.595 73.4213 120.392 73.496C120.195 73.5707 119.976 73.608 119.736 73.608ZM120.616 72.152L118.688 67.728H119.728L121.296 71.416L120.616 72.152ZM120.264 67.144L121.344 66.048H122.52L121.128 67.144H120.264ZM127.932 72V67.28H126.076V66.4H130.828V67.28H128.972V72H127.932ZM134.158 72V71.136L134.102 70.952V69.44C134.102 69.1467 134.014 68.92 133.838 68.76C133.662 68.5947 133.395 68.512 133.038 68.512C132.798 68.512 132.561 68.5493 132.326 68.624C132.097 68.6987 131.902 68.8027 131.742 68.936L131.35 68.208C131.579 68.032 131.851 67.9013 132.166 67.816C132.486 67.7253 132.817 67.68 133.158 67.68C133.777 67.68 134.254 67.8293 134.59 68.128C134.931 68.4213 135.102 68.8773 135.102 69.496V72H134.158ZM132.814 72.056C132.494 72.056 132.214 72.0027 131.974 71.896C131.734 71.784 131.547 71.632 131.414 71.44C131.286 71.2427 131.222 71.0213 131.222 70.776C131.222 70.536 131.278 70.32 131.39 70.128C131.507 69.936 131.697 69.784 131.958 69.672C132.219 69.56 132.566 69.504 132.998 69.504H134.238V70.168H133.07C132.729 70.168 132.499 70.224 132.382 70.336C132.265 70.4427 132.206 70.576 132.206 70.736C132.206 70.9173 132.278 71.0613 132.422 71.168C132.566 71.2747 132.766 71.328 133.022 71.328C133.267 71.328 133.486 71.272 133.678 71.16C133.875 71.048 134.017 70.8827 134.102 70.664L134.27 71.264C134.174 71.5147 134.001 71.7093 133.75 71.848C133.505 71.9867 133.193 72.056 132.814 72.056ZM133.054 67.144L131.662 66.048H132.838L133.918 67.144H133.054ZM136.625 72V67.728H137.625V72H136.625ZM137.129 67.024C136.943 67.024 136.788 66.9653 136.665 66.848C136.548 66.7307 136.489 66.5893 136.489 66.424C136.489 66.2533 136.548 66.112 136.665 66C136.788 65.8827 136.943 65.824 137.129 65.824C137.316 65.824 137.468 65.88 137.585 65.992C137.708 66.0987 137.769 66.2347 137.769 66.4C137.769 66.576 137.711 66.7253 137.593 66.848C137.476 66.9653 137.321 67.024 137.129 67.024ZM142.653 70.68L142.597 69.448L145.533 66.4H146.701L144.261 68.992L143.685 69.624L142.653 70.68ZM141.725 72V66.4H142.765V72H141.725ZM145.629 72L143.485 69.448L144.173 68.688L146.845 72H145.629ZM150.121 67.68C150.462 67.68 150.766 67.7467 151.033 67.88C151.305 68.0133 151.518 68.2187 151.673 68.496C151.828 68.768 151.905 69.12 151.905 69.552V72H150.905V69.68C150.905 69.3013 150.814 69.0187 150.633 68.832C150.457 68.6453 150.209 68.552 149.889 68.552C149.654 68.552 149.446 68.6 149.265 68.696C149.084 68.792 148.942 68.936 148.841 69.128C148.745 69.3147 148.697 69.552 148.697 69.84V72H147.697V66.064H148.697V68.88L148.481 68.528C148.63 68.256 148.846 68.048 149.129 67.904C149.417 67.7547 149.748 67.68 150.121 67.68ZM155.341 72.056C154.904 72.056 154.515 71.9627 154.173 71.776C153.832 71.584 153.563 71.3227 153.365 70.992C153.168 70.6613 153.069 70.2853 153.069 69.864C153.069 69.4373 153.168 69.0613 153.365 68.736C153.563 68.4053 153.832 68.1467 154.173 67.96C154.515 67.7733 154.904 67.68 155.341 67.68C155.784 67.68 156.176 67.7733 156.517 67.96C156.864 68.1467 157.133 68.4027 157.325 68.728C157.523 69.0533 157.621 69.432 157.621 69.864C157.621 70.2853 157.523 70.6613 157.325 70.992C157.133 71.3227 156.864 71.584 156.517 71.776C156.176 71.9627 155.784 72.056 155.341 72.056ZM155.341 71.2C155.587 71.2 155.805 71.1467 155.997 71.04C156.189 70.9333 156.339 70.7787 156.445 70.576C156.557 70.3733 156.613 70.136 156.613 69.864C156.613 69.5867 156.557 69.3493 156.445 69.152C156.339 68.9493 156.189 68.7947 155.997 68.688C155.805 68.5813 155.589 68.528 155.349 68.528C155.104 68.528 154.885 68.5813 154.693 68.688C154.507 68.7947 154.357 68.9493 154.245 69.152C154.133 69.3493 154.077 69.5867 154.077 69.864C154.077 70.136 154.133 70.3733 154.245 70.576C154.357 70.7787 154.507 70.9333 154.693 71.04C154.885 71.1467 155.101 71.2 155.341 71.2ZM161.395 72V71.136L161.339 70.952V69.44C161.339 69.1467 161.251 68.92 161.075 68.76C160.899 68.5947 160.632 68.512 160.275 68.512C160.035 68.512 159.798 68.5493 159.563 68.624C159.334 68.6987 159.139 68.8027 158.979 68.936L158.587 68.208C158.816 68.032 159.088 67.9013 159.403 67.816C159.723 67.7253 160.054 67.68 160.395 67.68C161.014 67.68 161.491 67.8293 161.827 68.128C162.168 68.4213 162.339 68.8773 162.339 69.496V72H161.395ZM160.051 72.056C159.731 72.056 159.451 72.0027 159.211 71.896C158.971 71.784 158.784 71.632 158.651 71.44C158.523 71.2427 158.459 71.0213 158.459 70.776C158.459 70.536 158.515 70.32 158.627 70.128C158.744 69.936 158.934 69.784 159.195 69.672C159.456 69.56 159.803 69.504 160.235 69.504H161.475V70.168H160.307C159.966 70.168 159.736 70.224 159.619 70.336C159.502 70.4427 159.443 70.576 159.443 70.736C159.443 70.9173 159.515 71.0613 159.659 71.168C159.803 71.2747 160.003 71.328 160.259 71.328C160.504 71.328 160.723 71.272 160.915 71.16C161.112 71.048 161.254 70.8827 161.339 70.664L161.507 71.264C161.411 71.5147 161.238 71.7093 160.987 71.848C160.742 71.9867 160.43 72.056 160.051 72.056ZM160.683 67.224L160.355 66.856C160.51 66.7813 160.619 66.704 160.683 66.624C160.752 66.5387 160.787 66.4453 160.787 66.344C160.787 66.2373 160.75 66.152 160.675 66.088C160.6 66.024 160.504 65.992 160.387 65.992C160.222 65.992 160.062 66.0427 159.907 66.144L159.691 65.704C159.803 65.624 159.928 65.5627 160.067 65.52C160.206 65.4773 160.347 65.456 160.491 65.456C160.752 65.456 160.963 65.5307 161.123 65.68C161.288 65.824 161.371 66.016 161.371 66.256C161.371 66.4747 161.315 66.664 161.203 66.824C161.091 66.984 160.918 67.1173 160.683 67.224ZM166.286 67.68C166.628 67.68 166.932 67.7467 167.198 67.88C167.47 68.0133 167.684 68.2187 167.838 68.496C167.993 68.768 168.07 69.12 168.07 69.552V72H167.07V69.68C167.07 69.3013 166.98 69.0187 166.798 68.832C166.622 68.6453 166.374 68.552 166.054 68.552C165.82 68.552 165.612 68.6 165.43 68.696C165.249 68.792 165.108 68.936 165.006 69.128C164.91 69.3147 164.862 69.552 164.862 69.84V72H163.862V67.728H164.814V68.88L164.646 68.528C164.796 68.256 165.012 68.048 165.294 67.904C165.582 67.7547 165.913 67.68 166.286 67.68Z" fill="black"/>
</g>
<g filter="url(#filter1_d_2113_26)">
<rect x="290" y="89" width="120" height="25.2695" rx="12.6348" fill="#7289DA"/>
<rect x="293" y="92" width="113" height="19" rx="9.5" fill="white"/>
<path d="M309.297 105V100.28H307.441V99.4H312.193V100.28H310.337V105H309.297ZM315.542 100.68C315.883 100.68 316.187 100.747 316.454 100.88C316.726 101.013 316.939 101.219 317.094 101.496C317.248 101.768 317.326 102.12 317.326 102.552V105H316.326V102.68C316.326 102.301 316.235 102.019 316.054 101.832C315.878 101.645 315.63 101.552 315.31 101.552C315.075 101.552 314.867 101.6 314.686 101.696C314.504 101.792 314.363 101.936 314.262 102.128C314.166 102.315 314.118 102.552 314.118 102.84V105H313.118V99.064H314.118V101.88L313.902 101.528C314.051 101.256 314.267 101.048 314.55 100.904C314.838 100.755 315.168 100.68 315.542 100.68ZM320.85 105.056C320.375 105.056 319.959 104.963 319.602 104.776C319.25 104.584 318.975 104.323 318.778 103.992C318.586 103.661 318.49 103.285 318.49 102.864C318.49 102.437 318.583 102.061 318.77 101.736C318.962 101.405 319.223 101.147 319.554 100.96C319.89 100.773 320.271 100.68 320.698 100.68C321.114 100.68 321.485 100.771 321.81 100.952C322.135 101.133 322.391 101.389 322.578 101.72C322.765 102.051 322.858 102.44 322.858 102.888C322.858 102.931 322.855 102.979 322.85 103.032C322.85 103.085 322.847 103.136 322.842 103.184H319.282V102.52H322.314L321.922 102.728C321.927 102.483 321.877 102.267 321.77 102.08C321.663 101.893 321.517 101.747 321.33 101.64C321.149 101.533 320.938 101.48 320.698 101.48C320.453 101.48 320.237 101.533 320.05 101.64C319.869 101.747 319.725 101.896 319.618 102.088C319.517 102.275 319.466 102.496 319.466 102.752V102.912C319.466 103.168 319.525 103.395 319.642 103.592C319.759 103.789 319.925 103.941 320.138 104.048C320.351 104.155 320.597 104.208 320.874 104.208C321.114 104.208 321.33 104.171 321.522 104.096C321.714 104.021 321.885 103.904 322.034 103.744L322.57 104.36C322.378 104.584 322.135 104.757 321.842 104.88C321.554 104.997 321.223 105.056 320.85 105.056ZM319.146 100.144L320.218 99.048H321.13L322.202 100.144H321.378L320.29 99.224H321.058L319.97 100.144H319.146ZM329.451 100.68C329.792 100.68 330.093 100.747 330.355 100.88C330.621 101.013 330.829 101.219 330.979 101.496C331.128 101.768 331.203 102.12 331.203 102.552V105H330.203V102.68C330.203 102.301 330.12 102.019 329.955 101.832C329.789 101.645 329.552 101.552 329.243 101.552C329.024 101.552 328.829 101.6 328.659 101.696C328.493 101.792 328.363 101.933 328.267 102.12C328.176 102.307 328.131 102.544 328.131 102.832V105H327.131V102.68C327.131 102.301 327.048 102.019 326.883 101.832C326.717 101.645 326.48 101.552 326.171 101.552C325.952 101.552 325.757 101.6 325.587 101.696C325.421 101.792 325.291 101.933 325.195 102.12C325.104 102.307 325.059 102.544 325.059 102.832V105H324.059V100.728H325.011V101.864L324.843 101.528C324.987 101.251 325.195 101.04 325.467 100.896C325.744 100.752 326.059 100.68 326.411 100.68C326.811 100.68 327.157 100.779 327.451 100.976C327.749 101.173 327.947 101.472 328.043 101.872L327.651 101.736C327.789 101.416 328.019 101.16 328.339 100.968C328.659 100.776 329.029 100.68 329.451 100.68ZM334.587 105L336.947 101.752V102.536L334.699 99.4H335.875L337.547 101.72L337.067 101.728L338.723 99.4H339.851L337.619 102.48V101.728L339.995 105H338.795L337.035 102.536H337.507L335.771 105H334.587ZM342.636 105.056C342.199 105.056 341.809 104.963 341.468 104.776C341.127 104.584 340.857 104.323 340.66 103.992C340.463 103.661 340.364 103.285 340.364 102.864C340.364 102.437 340.463 102.061 340.66 101.736C340.857 101.405 341.127 101.147 341.468 100.96C341.809 100.773 342.199 100.68 342.636 100.68C343.079 100.68 343.471 100.773 343.812 100.96C344.159 101.147 344.428 101.403 344.62 101.728C344.817 102.053 344.916 102.432 344.916 102.864C344.916 103.285 344.817 103.661 344.62 103.992C344.428 104.323 344.159 104.584 343.812 104.776C343.471 104.963 343.079 105.056 342.636 105.056ZM342.636 104.2C342.881 104.2 343.1 104.147 343.292 104.04C343.484 103.933 343.633 103.779 343.74 103.576C343.852 103.373 343.908 103.136 343.908 102.864C343.908 102.587 343.852 102.349 343.74 102.152C343.633 101.949 343.484 101.795 343.292 101.688C343.1 101.581 342.884 101.528 342.644 101.528C342.399 101.528 342.18 101.581 341.988 101.688C341.801 101.795 341.652 101.949 341.54 102.152C341.428 102.349 341.372 102.587 341.372 102.864C341.372 103.136 341.428 103.373 341.54 103.576C341.652 103.779 341.801 103.933 341.988 104.04C342.18 104.147 342.396 104.2 342.636 104.2ZM341.956 100.144L343.036 99.048H344.212L342.82 100.144H341.956ZM348.69 105V104.136L348.634 103.952V102.44C348.634 102.147 348.546 101.92 348.37 101.76C348.194 101.595 347.927 101.512 347.57 101.512C347.33 101.512 347.092 101.549 346.858 101.624C346.628 101.699 346.434 101.803 346.274 101.936L345.882 101.208C346.111 101.032 346.383 100.901 346.698 100.816C347.018 100.725 347.348 100.68 347.69 100.68C348.308 100.68 348.786 100.829 349.122 101.128C349.463 101.421 349.634 101.877 349.634 102.496V105H348.69ZM347.346 105.056C347.026 105.056 346.746 105.003 346.506 104.896C346.266 104.784 346.079 104.632 345.946 104.44C345.818 104.243 345.754 104.021 345.754 103.776C345.754 103.536 345.81 103.32 345.922 103.128C346.039 102.936 346.228 102.784 346.49 102.672C346.751 102.56 347.098 102.504 347.53 102.504H348.77V103.168H347.602C347.26 103.168 347.031 103.224 346.914 103.336C346.796 103.443 346.738 103.576 346.738 103.736C346.738 103.917 346.81 104.061 346.954 104.168C347.098 104.275 347.298 104.328 347.554 104.328C347.799 104.328 348.018 104.272 348.21 104.16C348.407 104.048 348.548 103.883 348.634 103.664L348.802 104.264C348.706 104.515 348.532 104.709 348.282 104.848C348.036 104.987 347.724 105.056 347.346 105.056ZM354.84 105V100.28H352.984V99.4H357.736V100.28H355.88V105H354.84ZM361.066 105V104.136L361.01 103.952V102.44C361.01 102.147 360.922 101.92 360.746 101.76C360.57 101.595 360.303 101.512 359.946 101.512C359.706 101.512 359.469 101.549 359.234 101.624C359.005 101.699 358.81 101.803 358.65 101.936L358.258 101.208C358.487 101.032 358.759 100.901 359.074 100.816C359.394 100.725 359.725 100.68 360.066 100.68C360.685 100.68 361.162 100.829 361.498 101.128C361.839 101.421 362.01 101.877 362.01 102.496V105H361.066ZM359.722 105.056C359.402 105.056 359.122 105.003 358.882 104.896C358.642 104.784 358.455 104.632 358.322 104.44C358.194 104.243 358.13 104.021 358.13 103.776C358.13 103.536 358.186 103.32 358.298 103.128C358.415 102.936 358.605 102.784 358.866 102.672C359.127 102.56 359.474 102.504 359.906 102.504H361.146V103.168H359.978C359.637 103.168 359.407 103.224 359.29 103.336C359.173 103.443 359.114 103.576 359.114 103.736C359.114 103.917 359.186 104.061 359.33 104.168C359.474 104.275 359.674 104.328 359.93 104.328C360.175 104.328 360.394 104.272 360.586 104.16C360.783 104.048 360.925 103.883 361.01 103.664L361.178 104.264C361.082 104.515 360.909 104.709 360.658 104.848C360.413 104.987 360.101 105.056 359.722 105.056ZM359.962 100.144L358.57 99.048H359.746L360.826 100.144H359.962ZM363.533 105V100.728H364.533V105H363.533ZM364.037 100.024C363.851 100.024 363.696 99.9653 363.573 99.848C363.456 99.7307 363.397 99.5893 363.397 99.424C363.397 99.2533 363.456 99.112 363.573 99C363.696 98.8827 363.851 98.824 364.037 98.824C364.224 98.824 364.376 98.88 364.493 98.992C364.616 99.0987 364.677 99.2347 364.677 99.4C364.677 99.576 364.619 99.7253 364.501 99.848C364.384 99.9653 364.229 100.024 364.037 100.024ZM369.561 103.68L369.505 102.448L372.441 99.4H373.609L371.169 101.992L370.593 102.624L369.561 103.68ZM368.633 105V99.4H369.673V105H368.633ZM372.537 105L370.393 102.448L371.081 101.688L373.753 105H372.537ZM377.029 100.68C377.37 100.68 377.674 100.747 377.941 100.88C378.213 101.013 378.426 101.219 378.581 101.496C378.736 101.768 378.813 102.12 378.813 102.552V105H377.813V102.68C377.813 102.301 377.722 102.019 377.541 101.832C377.365 101.645 377.117 101.552 376.797 101.552C376.562 101.552 376.354 101.6 376.173 101.696C375.992 101.792 375.85 101.936 375.749 102.128C375.653 102.315 375.605 102.552 375.605 102.84V105H374.605V99.064H375.605V101.88L375.389 101.528C375.538 101.256 375.754 101.048 376.037 100.904C376.325 100.755 376.656 100.68 377.029 100.68ZM382.249 105.056C381.812 105.056 381.423 104.963 381.081 104.776C380.74 104.584 380.471 104.323 380.273 103.992C380.076 103.661 379.977 103.285 379.977 102.864C379.977 102.437 380.076 102.061 380.273 101.736C380.471 101.405 380.74 101.147 381.081 100.96C381.423 100.773 381.812 100.68 382.249 100.68C382.692 100.68 383.084 100.773 383.425 100.96C383.772 101.147 384.041 101.403 384.233 101.728C384.431 102.053 384.529 102.432 384.529 102.864C384.529 103.285 384.431 103.661 384.233 103.992C384.041 104.323 383.772 104.584 383.425 104.776C383.084 104.963 382.692 105.056 382.249 105.056ZM382.249 104.2C382.495 104.2 382.713 104.147 382.905 104.04C383.097 103.933 383.247 103.779 383.353 103.576C383.465 103.373 383.521 103.136 383.521 102.864C383.521 102.587 383.465 102.349 383.353 102.152C383.247 101.949 383.097 101.795 382.905 101.688C382.713 101.581 382.497 101.528 382.257 101.528C382.012 101.528 381.793 101.581 381.601 101.688C381.415 101.795 381.265 101.949 381.153 102.152C381.041 102.349 380.985 102.587 380.985 102.864C380.985 103.136 381.041 103.373 381.153 103.576C381.265 103.779 381.415 103.933 381.601 104.04C381.793 104.147 382.009 104.2 382.249 104.2ZM388.303 105V104.136L388.247 103.952V102.44C388.247 102.147 388.159 101.92 387.983 101.76C387.807 101.595 387.54 101.512 387.183 101.512C386.943 101.512 386.706 101.549 386.471 101.624C386.242 101.699 386.047 101.803 385.887 101.936L385.495 101.208C385.724 101.032 385.996 100.901 386.311 100.816C386.631 100.725 386.962 100.68 387.303 100.68C387.922 100.68 388.399 100.829 388.735 101.128C389.076 101.421 389.247 101.877 389.247 102.496V105H388.303ZM386.959 105.056C386.639 105.056 386.359 105.003 386.119 104.896C385.879 104.784 385.692 104.632 385.559 104.44C385.431 104.243 385.367 104.021 385.367 103.776C385.367 103.536 385.423 103.32 385.535 103.128C385.652 102.936 385.842 102.784 386.103 102.672C386.364 102.56 386.711 102.504 387.143 102.504H388.383V103.168H387.215C386.874 103.168 386.644 103.224 386.527 103.336C386.41 103.443 386.351 103.576 386.351 103.736C386.351 103.917 386.423 104.061 386.567 104.168C386.711 104.275 386.911 104.328 387.167 104.328C387.412 104.328 387.631 104.272 387.823 104.16C388.02 104.048 388.162 103.883 388.247 103.664L388.415 104.264C388.319 104.515 388.146 104.709 387.895 104.848C387.65 104.987 387.338 105.056 386.959 105.056ZM387.591 100.224L387.263 99.856C387.418 99.7813 387.527 99.704 387.591 99.624C387.66 99.5387 387.695 99.4453 387.695 99.344C387.695 99.2373 387.658 99.152 387.583 99.088C387.508 99.024 387.412 98.992 387.295 98.992C387.13 98.992 386.97 99.0427 386.815 99.144L386.599 98.704C386.711 98.624 386.836 98.5627 386.975 98.52C387.114 98.4773 387.255 98.456 387.399 98.456C387.66 98.456 387.871 98.5307 388.031 98.68C388.196 98.824 388.279 99.016 388.279 99.256C388.279 99.4747 388.223 99.664 388.111 99.824C387.999 99.984 387.826 100.117 387.591 100.224ZM393.194 100.68C393.536 100.68 393.84 100.747 394.106 100.88C394.378 101.013 394.592 101.219 394.746 101.496C394.901 101.768 394.978 102.12 394.978 102.552V105H393.978V102.68C393.978 102.301 393.888 102.019 393.706 101.832C393.53 101.645 393.282 101.552 392.962 101.552C392.728 101.552 392.52 101.6 392.338 101.696C392.157 101.792 392.016 101.936 391.914 102.128C391.818 102.315 391.77 102.552 391.77 102.84V105H390.77V100.728H391.722V101.88L391.554 101.528C391.704 101.256 391.92 101.048 392.202 100.904C392.49 100.755 392.821 100.68 393.194 100.68Z" fill="black"/>
</g>
<g filter="url(#filter2_d_2113_26)">
<rect x="122" y="166" width="166" height="25" rx="12.5" fill="#8FDF51"/>
<rect x="124.748" y="169" width="113.588" height="20" rx="10" fill="white"/>
<path d="M156.457 182.08C156.02 182.08 155.617 182.008 155.249 181.864C154.881 181.72 154.561 181.52 154.289 181.264C154.017 181.003 153.807 180.699 153.657 180.352C153.508 180 153.433 179.616 153.433 179.2C153.433 178.784 153.508 178.403 153.657 178.056C153.807 177.704 154.017 177.4 154.289 177.144C154.561 176.883 154.881 176.68 155.249 176.536C155.617 176.392 156.017 176.32 156.449 176.32C156.887 176.32 157.287 176.392 157.649 176.536C158.017 176.68 158.337 176.88 158.609 177.136C158.881 177.392 159.092 177.696 159.241 178.048C159.391 178.4 159.465 178.784 159.465 179.2C159.465 179.616 159.391 180 159.241 180.352C159.092 180.704 158.881 181.008 158.609 181.264C158.337 181.52 158.017 181.72 157.649 181.864C157.287 182.008 156.889 182.08 156.457 182.08ZM158.281 183.224C158.084 183.224 157.892 183.2 157.705 183.152C157.524 183.109 157.343 183.035 157.161 182.928C156.985 182.827 156.801 182.691 156.609 182.52C156.417 182.355 156.207 182.149 155.977 181.904L157.081 181.616C157.231 181.813 157.372 181.971 157.505 182.088C157.644 182.211 157.777 182.299 157.905 182.352C158.033 182.405 158.167 182.432 158.305 182.432C158.673 182.432 158.993 182.283 159.265 181.984L159.745 182.56C159.372 183.003 158.884 183.224 158.281 183.224ZM156.449 181.168C156.732 181.168 156.993 181.12 157.233 181.024C157.473 180.928 157.681 180.792 157.857 180.616C158.033 180.435 158.169 180.224 158.265 179.984C158.367 179.744 158.417 179.483 158.417 179.2C158.417 178.912 158.367 178.651 158.265 178.416C158.169 178.176 158.033 177.968 157.857 177.792C157.681 177.611 157.473 177.472 157.233 177.376C156.993 177.28 156.732 177.232 156.449 177.232C156.167 177.232 155.905 177.28 155.665 177.376C155.425 177.472 155.217 177.611 155.041 177.792C154.865 177.968 154.727 178.176 154.625 178.416C154.529 178.651 154.481 178.912 154.481 179.2C154.481 179.483 154.529 179.744 154.625 179.984C154.727 180.224 154.865 180.435 155.041 180.616C155.217 180.792 155.425 180.928 155.665 181.024C155.905 181.12 156.167 181.168 156.449 181.168ZM162.52 182.056C162.157 182.056 161.837 181.989 161.56 181.856C161.282 181.717 161.066 181.509 160.912 181.232C160.757 180.949 160.68 180.595 160.68 180.168V177.728H161.68V180.032C161.68 180.416 161.765 180.704 161.936 180.896C162.112 181.083 162.36 181.176 162.68 181.176C162.914 181.176 163.117 181.128 163.288 181.032C163.464 180.936 163.6 180.792 163.696 180.6C163.797 180.408 163.848 180.171 163.848 179.888V177.728H164.848V182H163.896V180.848L164.064 181.2C163.92 181.477 163.709 181.691 163.432 181.84C163.154 181.984 162.85 182.056 162.52 182.056ZM169.029 182V181.136L168.973 180.952V179.44C168.973 179.147 168.885 178.92 168.709 178.76C168.533 178.595 168.266 178.512 167.909 178.512C167.669 178.512 167.432 178.549 167.197 178.624C166.968 178.699 166.773 178.803 166.613 178.936L166.221 178.208C166.45 178.032 166.722 177.901 167.037 177.816C167.357 177.725 167.688 177.68 168.029 177.68C168.648 177.68 169.125 177.829 169.461 178.128C169.802 178.421 169.973 178.877 169.973 179.496V182H169.029ZM167.685 182.056C167.365 182.056 167.085 182.003 166.845 181.896C166.605 181.784 166.418 181.632 166.285 181.44C166.157 181.243 166.093 181.021 166.093 180.776C166.093 180.536 166.149 180.32 166.261 180.128C166.378 179.936 166.568 179.784 166.829 179.672C167.09 179.56 167.437 179.504 167.869 179.504H169.109V180.168H167.941C167.6 180.168 167.37 180.224 167.253 180.336C167.136 180.443 167.077 180.576 167.077 180.736C167.077 180.917 167.149 181.061 167.293 181.168C167.437 181.275 167.637 181.328 167.893 181.328C168.138 181.328 168.357 181.272 168.549 181.16C168.746 181.048 168.888 180.883 168.973 180.664L169.141 181.264C169.045 181.515 168.872 181.709 168.621 181.848C168.376 181.987 168.064 182.056 167.685 182.056ZM168.317 177.224L167.989 176.856C168.144 176.781 168.253 176.704 168.317 176.624C168.386 176.539 168.421 176.445 168.421 176.344C168.421 176.237 168.384 176.152 168.309 176.088C168.234 176.024 168.138 175.992 168.021 175.992C167.856 175.992 167.696 176.043 167.541 176.144L167.325 175.704C167.437 175.624 167.562 175.563 167.701 175.52C167.84 175.477 167.981 175.456 168.125 175.456C168.386 175.456 168.597 175.531 168.757 175.68C168.922 175.824 169.005 176.016 169.005 176.256C169.005 176.475 168.949 176.664 168.837 176.824C168.725 176.984 168.552 177.117 168.317 177.224ZM173.92 177.68C174.262 177.68 174.566 177.747 174.832 177.88C175.104 178.013 175.318 178.219 175.472 178.496C175.627 178.768 175.704 179.12 175.704 179.552V182H174.704V179.68C174.704 179.301 174.614 179.019 174.432 178.832C174.256 178.645 174.008 178.552 173.688 178.552C173.454 178.552 173.246 178.6 173.064 178.696C172.883 178.792 172.742 178.936 172.64 179.128C172.544 179.315 172.496 179.552 172.496 179.84V182H171.496V177.728H172.448V178.88L172.28 178.528C172.43 178.256 172.646 178.048 172.928 177.904C173.216 177.755 173.547 177.68 173.92 177.68ZM179.76 182V176.4H180.8V181.12H183.728V182H179.76ZM184.74 183.608C184.532 183.608 184.324 183.573 184.116 183.504C183.908 183.435 183.735 183.339 183.596 183.216L183.996 182.48C184.098 182.571 184.212 182.643 184.34 182.696C184.468 182.749 184.599 182.776 184.732 182.776C184.914 182.776 185.06 182.731 185.172 182.64C185.284 182.549 185.388 182.397 185.484 182.184L185.732 181.624L185.812 181.504L187.428 177.728H188.388L186.388 182.344C186.255 182.664 186.106 182.917 185.94 183.104C185.78 183.291 185.599 183.421 185.396 183.496C185.199 183.571 184.98 183.608 184.74 183.608ZM185.62 182.152L183.692 177.728H184.732L186.3 181.416L185.62 182.152ZM185.268 177.144L186.348 176.048H187.524L186.132 177.144H185.268ZM191.8 182V176.4H192.84V181.12H195.768V182H191.8ZM198.614 182.056C198.177 182.056 197.787 181.963 197.446 181.776C197.105 181.584 196.835 181.323 196.638 180.992C196.441 180.661 196.342 180.285 196.342 179.864C196.342 179.437 196.441 179.061 196.638 178.736C196.835 178.405 197.105 178.147 197.446 177.96C197.793 177.773 198.187 177.68 198.63 177.68C198.769 177.68 198.889 177.685 198.99 177.696C199.091 177.701 199.187 177.709 199.278 177.72C199.374 177.731 199.475 177.736 199.582 177.736C199.779 177.736 199.921 177.685 200.006 177.584C200.097 177.483 200.142 177.357 200.142 177.208C200.142 177.112 200.126 177.024 200.094 176.944C200.062 176.859 200.022 176.781 199.974 176.712L200.582 176.488C200.651 176.589 200.71 176.704 200.758 176.832C200.806 176.96 200.83 177.096 200.83 177.24C200.83 177.469 200.777 177.669 200.67 177.84C200.563 178.011 200.411 178.141 200.214 178.232C200.017 178.323 199.779 178.368 199.502 178.368C199.401 178.368 199.299 178.363 199.198 178.352C199.102 178.341 199.001 178.328 198.894 178.312L199.518 177.84C199.934 178 200.267 178.259 200.518 178.616C200.769 178.968 200.894 179.384 200.894 179.864C200.894 180.285 200.795 180.661 200.598 180.992C200.406 181.323 200.137 181.584 199.79 181.776C199.449 181.963 199.057 182.056 198.614 182.056ZM198.614 181.2C198.854 181.2 199.07 181.147 199.262 181.04C199.454 180.933 199.606 180.779 199.718 180.576C199.83 180.373 199.886 180.136 199.886 179.864C199.886 179.587 199.83 179.349 199.718 179.152C199.611 178.949 199.462 178.795 199.27 178.688C199.078 178.581 198.859 178.528 198.614 178.528C198.374 178.528 198.158 178.581 197.966 178.688C197.779 178.795 197.63 178.949 197.518 179.152C197.406 179.349 197.35 179.587 197.35 179.864C197.35 180.136 197.406 180.373 197.518 180.576C197.63 180.779 197.779 180.933 197.966 181.04C198.158 181.147 198.374 181.2 198.614 181.2ZM197.942 177.144L199.022 176.048H200.198L198.806 177.144H197.942ZM204.458 182.056C204.112 182.056 203.794 181.976 203.506 181.816C203.224 181.656 202.997 181.416 202.826 181.096C202.661 180.771 202.578 180.36 202.578 179.864C202.578 179.363 202.658 178.952 202.818 178.632C202.984 178.312 203.208 178.075 203.49 177.92C203.773 177.76 204.096 177.68 204.458 177.68C204.88 177.68 205.25 177.771 205.57 177.952C205.896 178.133 206.152 178.387 206.338 178.712C206.53 179.037 206.626 179.421 206.626 179.864C206.626 180.307 206.53 180.693 206.338 181.024C206.152 181.349 205.896 181.603 205.57 181.784C205.25 181.965 204.88 182.056 204.458 182.056ZM202.09 183.552V177.728H203.042V178.736L203.01 179.872L203.09 181.008V183.552H202.09ZM204.346 181.2C204.586 181.2 204.8 181.147 204.986 181.04C205.178 180.933 205.33 180.779 205.442 180.576C205.554 180.373 205.61 180.136 205.61 179.864C205.61 179.587 205.554 179.349 205.442 179.152C205.33 178.949 205.178 178.795 204.986 178.688C204.8 178.581 204.586 178.528 204.346 178.528C204.106 178.528 203.89 178.581 203.698 178.688C203.506 178.795 203.354 178.949 203.242 179.152C203.13 179.349 203.074 179.587 203.074 179.864C203.074 180.136 203.13 180.373 203.242 180.576C203.354 180.779 203.506 180.933 203.698 181.04C203.89 181.147 204.106 181.2 204.346 181.2Z" fill="black"/>
</g>
<g filter="url(#filter3_d_2113_26)">
<rect x="282" y="215" width="120" height="25" rx="12.5" fill="#DFAE51"/>
<rect x="285" y="218" width="81" height="19" rx="9.5" fill="white"/>
<path d="M302.431 231V226.28H300.575V225.4H305.327V226.28H303.471V231H302.431ZM308.675 226.68C309.017 226.68 309.321 226.747 309.587 226.88C309.859 227.013 310.073 227.219 310.227 227.496C310.382 227.768 310.459 228.12 310.459 228.552V231H309.459V228.68C309.459 228.301 309.369 228.019 309.187 227.832C309.011 227.645 308.763 227.552 308.443 227.552C308.209 227.552 308.001 227.6 307.819 227.696C307.638 227.792 307.497 227.936 307.395 228.128C307.299 228.315 307.251 228.552 307.251 228.84V231H306.251V225.064H307.251V227.88L307.035 227.528C307.185 227.256 307.401 227.048 307.683 226.904C307.971 226.755 308.302 226.68 308.675 226.68ZM313.896 231.056C313.458 231.056 313.069 230.963 312.728 230.776C312.386 230.584 312.117 230.323 311.92 229.992C311.722 229.661 311.624 229.285 311.624 228.864C311.624 228.437 311.722 228.061 311.92 227.736C312.117 227.405 312.386 227.147 312.728 226.96C313.069 226.773 313.458 226.68 313.896 226.68C314.338 226.68 314.73 226.773 315.072 226.96C315.418 227.147 315.688 227.403 315.88 227.728C316.077 228.053 316.176 228.432 316.176 228.864C316.176 229.285 316.077 229.661 315.88 229.992C315.688 230.323 315.418 230.584 315.072 230.776C314.73 230.963 314.338 231.056 313.896 231.056ZM313.896 230.2C314.141 230.2 314.36 230.147 314.552 230.04C314.744 229.933 314.893 229.779 315 229.576C315.112 229.373 315.168 229.136 315.168 228.864C315.168 228.587 315.112 228.349 315 228.152C314.893 227.949 314.744 227.795 314.552 227.688C314.36 227.581 314.144 227.528 313.904 227.528C313.658 227.528 313.44 227.581 313.248 227.688C313.061 227.795 312.912 227.949 312.8 228.152C312.688 228.349 312.632 228.587 312.632 228.864C312.632 229.136 312.688 229.373 312.8 229.576C312.912 229.779 313.061 229.933 313.248 230.04C313.44 230.147 313.656 230.2 313.896 230.2ZM312.36 226.144L313.432 225.048H314.344L315.416 226.144H314.592L313.504 225.224H314.272L313.184 226.144H312.36ZM319.796 226.68C320.137 226.68 320.441 226.747 320.708 226.88C320.98 227.013 321.193 227.219 321.348 227.496C321.503 227.768 321.58 228.12 321.58 228.552V231H320.58V228.68C320.58 228.301 320.489 228.019 320.308 227.832C320.132 227.645 319.884 227.552 319.564 227.552C319.329 227.552 319.121 227.6 318.94 227.696C318.759 227.792 318.617 227.936 318.516 228.128C318.42 228.315 318.372 228.552 318.372 228.84V231H317.372V226.728H318.324V227.88L318.156 227.528C318.305 227.256 318.521 227.048 318.804 226.904C319.092 226.755 319.423 226.68 319.796 226.68ZM325.032 232.608C324.638 232.608 324.251 232.555 323.872 232.448C323.499 232.347 323.192 232.197 322.952 232L323.4 231.248C323.587 231.403 323.822 231.525 324.104 231.616C324.392 231.712 324.683 231.76 324.976 231.76C325.446 231.76 325.79 231.651 326.008 231.432C326.227 231.219 326.336 230.896 326.336 230.464V229.704L326.416 228.736L326.384 227.768V226.728H327.336V230.352C327.336 231.125 327.139 231.693 326.744 232.056C326.35 232.424 325.779 232.608 325.032 232.608ZM324.904 230.808C324.499 230.808 324.131 230.723 323.8 230.552C323.475 230.376 323.216 230.133 323.024 229.824C322.838 229.515 322.744 229.152 322.744 228.736C322.744 228.325 322.838 227.965 323.024 227.656C323.216 227.347 323.475 227.107 323.8 226.936C324.131 226.765 324.499 226.68 324.904 226.68C325.267 226.68 325.592 226.752 325.88 226.896C326.168 227.04 326.398 227.264 326.568 227.568C326.744 227.872 326.832 228.261 326.832 228.736C326.832 229.211 326.744 229.603 326.568 229.912C326.398 230.216 326.168 230.443 325.88 230.592C325.592 230.736 325.267 230.808 324.904 230.808ZM325.056 229.96C325.307 229.96 325.531 229.909 325.728 229.808C325.926 229.701 326.078 229.557 326.184 229.376C326.296 229.189 326.352 228.976 326.352 228.736C326.352 228.496 326.296 228.285 326.184 228.104C326.078 227.917 325.926 227.776 325.728 227.68C325.531 227.579 325.307 227.528 325.056 227.528C324.806 227.528 324.579 227.579 324.376 227.68C324.179 227.776 324.024 227.917 323.912 228.104C323.806 228.285 323.752 228.496 323.752 228.736C323.752 228.976 323.806 229.189 323.912 229.376C324.024 229.557 324.179 229.701 324.376 229.808C324.579 229.909 324.806 229.96 325.056 229.96ZM331.438 231V225.4H334.062C334.734 225.4 335.246 225.533 335.598 225.8C335.95 226.061 336.126 226.413 336.126 226.856C336.126 227.155 336.057 227.411 335.918 227.624C335.779 227.832 335.593 227.995 335.358 228.112C335.129 228.224 334.878 228.28 334.606 228.28L334.75 227.992C335.065 227.992 335.347 228.051 335.598 228.168C335.849 228.28 336.046 228.445 336.19 228.664C336.339 228.883 336.414 229.155 336.414 229.48C336.414 229.96 336.23 230.333 335.862 230.6C335.494 230.867 334.947 231 334.222 231H331.438ZM332.478 230.184H334.158C334.547 230.184 334.846 230.12 335.054 229.992C335.262 229.864 335.366 229.659 335.366 229.376C335.366 229.099 335.262 228.896 335.054 228.768C334.846 228.635 334.547 228.568 334.158 228.568H332.398V227.76H333.95C334.313 227.76 334.59 227.696 334.782 227.568C334.979 227.44 335.078 227.248 335.078 226.992C335.078 226.731 334.979 226.536 334.782 226.408C334.59 226.28 334.313 226.216 333.95 226.216H332.478V230.184ZM340.3 231V230.136L340.244 229.952V228.44C340.244 228.147 340.156 227.92 339.98 227.76C339.804 227.595 339.537 227.512 339.18 227.512C338.94 227.512 338.703 227.549 338.468 227.624C338.239 227.699 338.044 227.803 337.884 227.936L337.492 227.208C337.721 227.032 337.993 226.901 338.308 226.816C338.628 226.725 338.959 226.68 339.3 226.68C339.919 226.68 340.396 226.829 340.732 227.128C341.073 227.421 341.244 227.877 341.244 228.496V231H340.3ZM338.956 231.056C338.636 231.056 338.356 231.003 338.116 230.896C337.876 230.784 337.689 230.632 337.556 230.44C337.428 230.243 337.364 230.021 337.364 229.776C337.364 229.536 337.42 229.32 337.532 229.128C337.649 228.936 337.839 228.784 338.1 228.672C338.361 228.56 338.708 228.504 339.14 228.504H340.38V229.168H339.212C338.871 229.168 338.641 229.224 338.524 229.336C338.407 229.443 338.348 229.576 338.348 229.736C338.348 229.917 338.42 230.061 338.564 230.168C338.708 230.275 338.908 230.328 339.164 230.328C339.409 230.328 339.628 230.272 339.82 230.16C340.017 230.048 340.159 229.883 340.244 229.664L340.412 230.264C340.316 230.515 340.143 230.709 339.892 230.848C339.647 230.987 339.335 231.056 338.956 231.056ZM338.716 226.144L339.796 225.048H340.972L339.58 226.144H338.716ZM344.695 231.056C344.258 231.056 343.869 230.963 343.527 230.776C343.186 230.584 342.917 230.323 342.719 229.992C342.522 229.661 342.423 229.285 342.423 228.864C342.423 228.437 342.522 228.061 342.719 227.736C342.917 227.405 343.186 227.147 343.527 226.96C343.869 226.773 344.258 226.68 344.695 226.68C345.138 226.68 345.53 226.773 345.871 226.96C346.218 227.147 346.487 227.403 346.679 227.728C346.877 228.053 346.975 228.432 346.975 228.864C346.975 229.285 346.877 229.661 346.679 229.992C346.487 230.323 346.218 230.584 345.871 230.776C345.53 230.963 345.138 231.056 344.695 231.056ZM344.695 230.2C344.941 230.2 345.159 230.147 345.351 230.04C345.543 229.933 345.693 229.779 345.799 229.576C345.911 229.373 345.967 229.136 345.967 228.864C345.967 228.587 345.911 228.349 345.799 228.152C345.693 227.949 345.543 227.795 345.351 227.688C345.159 227.581 344.943 227.528 344.703 227.528C344.458 227.528 344.239 227.581 344.047 227.688C343.861 227.795 343.711 227.949 343.599 228.152C343.487 228.349 343.431 228.587 343.431 228.864C343.431 229.136 343.487 229.373 343.599 229.576C343.711 229.779 343.861 229.933 344.047 230.04C344.239 230.147 344.455 230.2 344.695 230.2Z" fill="black"/>
</g>
<g filter="url(#filter4_d_2113_26)">
<rect x="76" y="272" width="231" height="25" rx="12.5" fill="#CAA6F9"/>
<rect x="81" y="275" width="106" height="19" rx="9.5" fill="white"/>
<path d="M97.57 288.08C97.1327 288.08 96.714 288.019 96.314 287.896C95.914 287.768 95.5967 287.605 95.362 287.408L95.722 286.6C95.946 286.776 96.2234 286.923 96.554 287.04C96.8847 287.157 97.2234 287.216 97.57 287.216C97.8634 287.216 98.1007 287.184 98.282 287.12C98.4634 287.056 98.5967 286.971 98.682 286.864C98.7674 286.752 98.81 286.627 98.81 286.488C98.81 286.317 98.7487 286.181 98.626 286.08C98.5034 285.973 98.3434 285.891 98.146 285.832C97.954 285.768 97.738 285.709 97.498 285.656C97.2634 285.603 97.026 285.541 96.786 285.472C96.5514 285.397 96.3354 285.304 96.138 285.192C95.946 285.075 95.7887 284.92 95.666 284.728C95.5434 284.536 95.482 284.291 95.482 283.992C95.482 283.688 95.562 283.411 95.722 283.16C95.8874 282.904 96.1354 282.701 96.466 282.552C96.802 282.397 97.226 282.32 97.738 282.32C98.074 282.32 98.4074 282.363 98.738 282.448C99.0687 282.533 99.3567 282.656 99.602 282.816L99.274 283.624C99.0234 283.475 98.7647 283.365 98.498 283.296C98.2314 283.221 97.9754 283.184 97.73 283.184C97.442 283.184 97.2074 283.219 97.026 283.288C96.85 283.357 96.7194 283.448 96.634 283.56C96.554 283.672 96.514 283.8 96.514 283.944C96.514 284.115 96.5727 284.253 96.69 284.36C96.8127 284.461 96.97 284.541 97.162 284.6C97.3594 284.659 97.578 284.717 97.818 284.776C98.058 284.829 98.2954 284.891 98.53 284.96C98.77 285.029 98.986 285.12 99.178 285.232C99.3754 285.344 99.5327 285.496 99.65 285.688C99.7727 285.88 99.834 286.123 99.834 286.416C99.834 286.715 99.7514 286.992 99.586 287.248C99.426 287.499 99.178 287.701 98.842 287.856C98.506 288.005 98.082 288.08 97.57 288.08ZM102.817 288.056C102.455 288.056 102.135 287.989 101.857 287.856C101.58 287.717 101.364 287.509 101.209 287.232C101.055 286.949 100.977 286.595 100.977 286.168V283.728H101.977V286.032C101.977 286.416 102.063 286.704 102.233 286.896C102.409 287.083 102.657 287.176 102.977 287.176C103.212 287.176 103.415 287.128 103.585 287.032C103.761 286.936 103.897 286.792 103.993 286.6C104.095 286.408 104.145 286.171 104.145 285.888V283.728H105.145V288H104.193V286.848L104.361 287.2C104.217 287.477 104.007 287.691 103.729 287.84C103.452 287.984 103.148 288.056 102.817 288.056ZM104.497 284.44V283.728H104.665C104.831 283.728 104.953 283.68 105.033 283.584C105.119 283.488 105.161 283.365 105.161 283.216C105.161 283.12 105.145 283.029 105.113 282.944C105.087 282.859 105.049 282.784 105.001 282.72L105.617 282.496C105.692 282.592 105.751 282.704 105.793 282.832C105.836 282.96 105.857 283.099 105.857 283.248C105.857 283.616 105.751 283.907 105.537 284.12C105.324 284.333 105.031 284.44 104.657 284.44H104.497ZM103.257 283.224L102.929 282.856C103.084 282.781 103.193 282.704 103.257 282.624C103.327 282.539 103.361 282.445 103.361 282.344C103.361 282.237 103.324 282.152 103.249 282.088C103.175 282.024 103.079 281.992 102.961 281.992C102.796 281.992 102.636 282.043 102.481 282.144L102.265 281.704C102.377 281.624 102.503 281.563 102.641 281.52C102.78 281.477 102.921 281.456 103.065 281.456C103.327 281.456 103.537 281.531 103.697 281.68C103.863 281.824 103.945 282.016 103.945 282.256C103.945 282.475 103.889 282.664 103.777 282.824C103.665 282.984 103.492 283.117 103.257 283.224ZM109.334 288V287.136L109.278 286.952V285.44C109.278 285.147 109.19 284.92 109.014 284.76C108.838 284.595 108.572 284.512 108.214 284.512C107.974 284.512 107.737 284.549 107.502 284.624C107.273 284.699 107.078 284.803 106.918 284.936L106.526 284.208C106.756 284.032 107.028 283.901 107.342 283.816C107.662 283.725 107.993 283.68 108.334 283.68C108.953 283.68 109.43 283.829 109.766 284.128C110.108 284.421 110.278 284.877 110.278 285.496V288H109.334ZM107.99 288.056C107.67 288.056 107.39 288.003 107.15 287.896C106.91 287.784 106.724 287.632 106.59 287.44C106.462 287.243 106.398 287.021 106.398 286.776C106.398 286.536 106.454 286.32 106.566 286.128C106.684 285.936 106.873 285.784 107.134 285.672C107.396 285.56 107.742 285.504 108.174 285.504H109.414V286.168H108.246C107.905 286.168 107.676 286.224 107.558 286.336C107.441 286.443 107.382 286.576 107.382 286.736C107.382 286.917 107.454 287.061 107.598 287.168C107.742 287.275 107.942 287.328 108.198 287.328C108.444 287.328 108.662 287.272 108.854 287.16C109.052 287.048 109.193 286.883 109.278 286.664L109.446 287.264C109.35 287.515 109.177 287.709 108.926 287.848C108.681 287.987 108.369 288.056 107.99 288.056ZM114.429 288V282.4H116.877C117.485 282.4 118.018 282.517 118.477 282.752C118.935 282.987 119.293 283.312 119.549 283.728C119.805 284.144 119.933 284.635 119.933 285.2C119.933 285.76 119.805 286.251 119.549 286.672C119.293 287.088 118.935 287.413 118.477 287.648C118.018 287.883 117.485 288 116.877 288H114.429ZM115.469 287.12H116.829C117.25 287.12 117.613 287.04 117.917 286.88C118.226 286.72 118.463 286.496 118.629 286.208C118.799 285.92 118.885 285.584 118.885 285.2C118.885 284.811 118.799 284.475 118.629 284.192C118.463 283.904 118.226 283.68 117.917 283.52C117.613 283.36 117.25 283.28 116.829 283.28H115.469V287.12ZM113.645 285.536V284.768H116.973V285.536H113.645ZM123.1 288.056C122.663 288.056 122.274 287.963 121.932 287.776C121.591 287.584 121.322 287.323 121.124 286.992C120.927 286.661 120.828 286.285 120.828 285.864C120.828 285.437 120.927 285.061 121.124 284.736C121.322 284.405 121.591 284.147 121.932 283.96C122.274 283.773 122.663 283.68 123.1 283.68C123.543 283.68 123.935 283.773 124.276 283.96C124.623 284.147 124.892 284.403 125.084 284.728C125.282 285.053 125.38 285.432 125.38 285.864C125.38 286.285 125.282 286.661 125.084 286.992C124.892 287.323 124.623 287.584 124.276 287.776C123.935 287.963 123.543 288.056 123.1 288.056ZM123.1 287.2C123.346 287.2 123.564 287.147 123.756 287.04C123.948 286.933 124.098 286.779 124.204 286.576C124.316 286.373 124.372 286.136 124.372 285.864C124.372 285.587 124.316 285.349 124.204 285.152C124.098 284.949 123.948 284.795 123.756 284.688C123.564 284.581 123.348 284.528 123.108 284.528C122.863 284.528 122.644 284.581 122.452 284.688C122.266 284.795 122.116 284.949 122.004 285.152C121.892 285.349 121.836 285.587 121.836 285.864C121.836 286.136 121.892 286.373 122.004 286.576C122.116 286.779 122.266 286.933 122.452 287.04C122.644 287.147 122.86 287.2 123.1 287.2ZM121.564 283.144L122.644 282.288H123.54L124.62 283.144H123.788L122.716 282.464H123.468L122.396 283.144H121.564ZM124.38 282.56L124.124 282.288C124.231 282.235 124.308 282.179 124.356 282.12C124.41 282.056 124.436 281.995 124.436 281.936C124.436 281.861 124.41 281.803 124.356 281.76C124.303 281.712 124.234 281.688 124.148 281.688C124.036 281.688 123.919 281.72 123.796 281.784L123.62 281.448C123.706 281.389 123.802 281.347 123.908 281.32C124.02 281.293 124.13 281.28 124.236 281.28C124.444 281.28 124.607 281.336 124.724 281.448C124.847 281.56 124.908 281.704 124.908 281.88C124.908 282.035 124.86 282.173 124.764 282.296C124.668 282.413 124.54 282.501 124.38 282.56ZM126.576 288V283.728H127.576V288H126.576ZM127.08 283.024C126.894 283.024 126.739 282.965 126.616 282.848C126.499 282.731 126.44 282.589 126.44 282.424C126.44 282.253 126.499 282.112 126.616 282C126.739 281.883 126.894 281.824 127.08 281.824C127.267 281.824 127.419 281.88 127.536 281.992C127.659 282.099 127.72 282.235 127.72 282.4C127.72 282.576 127.662 282.725 127.544 282.848C127.427 282.965 127.272 283.024 127.08 283.024ZM135.612 282.4H136.652V288H135.612V282.4ZM132.716 288H131.676V282.4H132.716V288ZM135.692 285.6H132.628V284.712H135.692V285.6ZM140.216 288.056C139.779 288.056 139.39 287.963 139.048 287.776C138.707 287.584 138.438 287.323 138.24 286.992C138.043 286.661 137.944 286.285 137.944 285.864C137.944 285.437 138.043 285.061 138.24 284.736C138.438 284.405 138.707 284.147 139.048 283.96C139.39 283.773 139.779 283.68 140.216 283.68C140.659 283.68 141.051 283.773 141.392 283.96C141.739 284.147 142.008 284.403 142.2 284.728C142.398 285.053 142.496 285.432 142.496 285.864C142.496 286.285 142.398 286.661 142.2 286.992C142.008 287.323 141.739 287.584 141.392 287.776C141.051 287.963 140.659 288.056 140.216 288.056ZM140.216 287.2C140.462 287.2 140.68 287.147 140.872 287.04C141.064 286.933 141.214 286.779 141.32 286.576C141.432 286.373 141.488 286.136 141.488 285.864C141.488 285.587 141.432 285.349 141.32 285.152C141.214 284.949 141.064 284.795 140.872 284.688C140.68 284.581 140.464 284.528 140.224 284.528C139.979 284.528 139.76 284.581 139.568 284.688C139.382 284.795 139.232 284.949 139.12 285.152C139.008 285.349 138.952 285.587 138.952 285.864C138.952 286.136 139.008 286.373 139.12 286.576C139.232 286.779 139.382 286.933 139.568 287.04C139.76 287.147 139.976 287.2 140.216 287.2ZM140.208 289.624C140.075 289.624 139.96 289.581 139.864 289.496C139.774 289.411 139.728 289.296 139.728 289.152C139.728 289.008 139.774 288.891 139.864 288.8C139.96 288.709 140.075 288.664 140.208 288.664C140.342 288.664 140.454 288.709 140.544 288.8C140.64 288.891 140.688 289.008 140.688 289.152C140.688 289.296 140.64 289.411 140.544 289.496C140.454 289.581 140.342 289.624 140.208 289.624ZM145.653 288.056C145.205 288.056 144.805 287.963 144.453 287.776C144.106 287.584 143.834 287.323 143.637 286.992C143.439 286.661 143.341 286.285 143.341 285.864C143.341 285.437 143.439 285.061 143.637 284.736C143.834 284.405 144.106 284.147 144.453 283.96C144.805 283.773 145.205 283.68 145.653 283.68C146.069 283.68 146.434 283.765 146.749 283.936C147.069 284.101 147.311 284.347 147.477 284.672L146.709 285.12C146.581 284.917 146.423 284.768 146.237 284.672C146.055 284.576 145.858 284.528 145.645 284.528C145.399 284.528 145.178 284.581 144.981 284.688C144.783 284.795 144.629 284.949 144.517 285.152C144.405 285.349 144.349 285.587 144.349 285.864C144.349 286.141 144.405 286.381 144.517 286.584C144.629 286.781 144.783 286.933 144.981 287.04C145.178 287.147 145.399 287.2 145.645 287.2C145.858 287.2 146.055 287.152 146.237 287.056C146.423 286.96 146.581 286.811 146.709 286.608L147.477 287.056C147.311 287.376 147.069 287.624 146.749 287.8C146.434 287.971 146.069 288.056 145.653 288.056ZM152.864 288.08C152.427 288.08 152.008 288.019 151.608 287.896C151.208 287.768 150.891 287.605 150.656 287.408L151.016 286.6C151.24 286.776 151.517 286.923 151.848 287.04C152.179 287.157 152.517 287.216 152.864 287.216C153.157 287.216 153.395 287.184 153.576 287.12C153.757 287.056 153.891 286.971 153.976 286.864C154.061 286.752 154.104 286.627 154.104 286.488C154.104 286.317 154.043 286.181 153.92 286.08C153.797 285.973 153.637 285.891 153.44 285.832C153.248 285.768 153.032 285.709 152.792 285.656C152.557 285.603 152.32 285.541 152.08 285.472C151.845 285.397 151.629 285.304 151.432 285.192C151.24 285.075 151.083 284.92 150.96 284.728C150.837 284.536 150.776 284.291 150.776 283.992C150.776 283.688 150.856 283.411 151.016 283.16C151.181 282.904 151.429 282.701 151.76 282.552C152.096 282.397 152.52 282.32 153.032 282.32C153.368 282.32 153.701 282.363 154.032 282.448C154.363 282.533 154.651 282.656 154.896 282.816L154.568 283.624C154.317 283.475 154.059 283.365 153.792 283.296C153.525 283.221 153.269 283.184 153.024 283.184C152.736 283.184 152.501 283.219 152.32 283.288C152.144 283.357 152.013 283.448 151.928 283.56C151.848 283.672 151.808 283.8 151.808 283.944C151.808 284.115 151.867 284.253 151.984 284.36C152.107 284.461 152.264 284.541 152.456 284.6C152.653 284.659 152.872 284.717 153.112 284.776C153.352 284.829 153.589 284.891 153.824 284.96C154.064 285.029 154.28 285.12 154.472 285.232C154.669 285.344 154.827 285.496 154.944 285.688C155.067 285.88 155.128 286.123 155.128 286.416C155.128 286.715 155.045 286.992 154.88 287.248C154.72 287.499 154.472 287.701 154.136 287.856C153.8 288.005 153.376 288.08 152.864 288.08ZM156.303 288V283.728H157.303V288H156.303ZM156.807 283.024C156.621 283.024 156.466 282.965 156.343 282.848C156.226 282.731 156.167 282.589 156.167 282.424C156.167 282.253 156.226 282.112 156.343 282C156.466 281.883 156.621 281.824 156.807 281.824C156.994 281.824 157.146 281.88 157.263 281.992C157.386 282.099 157.447 282.235 157.447 282.4C157.447 282.576 157.389 282.725 157.271 282.848C157.154 282.965 156.999 283.024 156.807 283.024ZM161.28 283.68C161.621 283.68 161.925 283.747 162.192 283.88C162.464 284.013 162.677 284.219 162.832 284.496C162.987 284.768 163.064 285.12 163.064 285.552V288H162.064V285.68C162.064 285.301 161.973 285.019 161.792 284.832C161.616 284.645 161.368 284.552 161.048 284.552C160.813 284.552 160.605 284.6 160.424 284.696C160.243 284.792 160.101 284.936 160 285.128C159.904 285.315 159.856 285.552 159.856 285.84V288H158.856V283.728H159.808V284.88L159.64 284.528C159.789 284.256 160.005 284.048 160.288 283.904C160.576 283.755 160.907 283.68 161.28 283.68ZM166.996 283.68C167.338 283.68 167.642 283.747 167.908 283.88C168.18 284.013 168.394 284.219 168.548 284.496C168.703 284.768 168.78 285.12 168.78 285.552V288H167.78V285.68C167.78 285.301 167.69 285.019 167.508 284.832C167.332 284.645 167.084 284.552 166.764 284.552C166.53 284.552 166.322 284.6 166.14 284.696C165.959 284.792 165.818 284.936 165.716 285.128C165.62 285.315 165.572 285.552 165.572 285.84V288H164.572V282.064H165.572V284.88L165.356 284.528C165.506 284.256 165.722 284.048 166.004 283.904C166.292 283.755 166.623 283.68 166.996 283.68Z" fill="black"/>
</g>
<defs>
<filter id="filter0_d_2113_26" x="69" y="57" width="168" height="33.2695" filterUnits="userSpaceOnUse" color-interpolation-filters="sRGB">
<feFlood flood-opacity="0" result="BackgroundImageFix"/>
<feColorMatrix in="SourceAlpha" type="matrix" values="0 0 0 0 0 0 0 0 0 0 0 0 0 0 0 0 0 0 127 0" result="hardAlpha"/>
<feOffset dy="4"/>
<feGaussianBlur stdDeviation="2"/>
<feComposite in2="hardAlpha" operator="out"/>
<feColorMatrix type="matrix" values="0 0 0 0 0 0 0 0 0 0 0 0 0 0 0 0 0 0 0.25 0"/>
<feBlend mode="normal" in2="BackgroundImageFix" result="effect1_dropShadow_2113_26"/>
<feBlend mode="normal" in="SourceGraphic" in2="effect1_dropShadow_2113_26" result="shape"/>
</filter>
<filter id="filter1_d_2113_26" x="286" y="89" width="128" height="33.2695" filterUnits="userSpaceOnUse" color-interpolation-filters="sRGB">
<feFlood flood-opacity="0" result="BackgroundImageFix"/>
<feColorMatrix in="SourceAlpha" type="matrix" values="0 0 0 0 0 0 0 0 0 0 0 0 0 0 0 0 0 0 127 0" result="hardAlpha"/>
<feOffset dy="4"/>
<feGaussianBlur stdDeviation="2"/>
<feComposite in2="hardAlpha" operator="out"/>
<feColorMatrix type="matrix" values="0 0 0 0 0 0 0 0 0 0 0 0 0 0 0 0 0 0 0.25 0"/>
<feBlend mode="normal" in2="BackgroundImageFix" result="effect1_dropShadow_2113_26"/>
<feBlend mode="normal" in="SourceGraphic" in2="effect1_dropShadow_2113_26" result="shape"/>
</filter>
<filter id="filter2_d_2113_26" x="118" y="166" width="174" height="33" filterUnits="userSpaceOnUse" color-interpolation-filters="sRGB">
<feFlood flood-opacity="0" result="BackgroundImageFix"/>
<feColorMatrix in="SourceAlpha" type="matrix" values="0 0 0 0 0 0 0 0 0 0 0 0 0 0 0 0 0 0 127 0" result="hardAlpha"/>
<feOffset dy="4"/>
<feGaussianBlur stdDeviation="2"/>
<feComposite in2="hardAlpha" operator="out"/>
<feColorMatrix type="matrix" values="0 0 0 0 0 0 0 0 0 0 0 0 0 0 0 0 0 0 0.25 0"/>
<feBlend mode="normal" in2="BackgroundImageFix" result="effect1_dropShadow_2113_26"/>
<feBlend mode="normal" in="SourceGraphic" in2="effect1_dropShadow_2113_26" result="shape"/>
</filter>
<filter id="filter3_d_2113_26" x="278" y="215" width="128" height="33" filterUnits="userSpaceOnUse" color-interpolation-filters="sRGB">
<feFlood flood-opacity="0" result="BackgroundImageFix"/>
<feColorMatrix in="SourceAlpha" type="matrix" values="0 0 0 0 0 0 0 0 0 0 0 0 0 0 0 0 0 0 127 0" result="hardAlpha"/>
<feOffset dy="4"/>
<feGaussianBlur stdDeviation="2"/>
<feComposite in2="hardAlpha" operator="out"/>
<feColorMatrix type="matrix" values="0 0 0 0 0 0 0 0 0 0 0 0 0 0 0 0 0 0 0.25 0"/>
<feBlend mode="normal" in2="BackgroundImageFix" result="effect1_dropShadow_2113_26"/>
<feBlend mode="normal" in="SourceGraphic" in2="effect1_dropShadow_2113_26" result="shape"/>
</filter>
<filter id="filter4_d_2113_26" x="72" y="272" width="239" height="33" filterUnits="userSpaceOnUse" color-interpolation-filters="sRGB">
<feFlood flood-opacity="0" result="BackgroundImageFix"/>
<feColorMatrix in="SourceAlpha" type="matrix" values="0 0 0 0 0 0 0 0 0 0 0 0 0 0 0 0 0 0 127 0" result="hardAlpha"/>
<feOffset dy="4"/>
<feGaussianBlur stdDeviation="2"/>
<feComposite in2="hardAlpha" operator="out"/>
<feColorMatrix type="matrix" values="0 0 0 0 0 0 0 0 0 0 0 0 0 0 0 0 0 0 0.25 0"/>
<feBlend mode="normal" in2="BackgroundImageFix" result="effect1_dropShadow_2113_26"/>
<feBlend mode="normal" in="SourceGraphic" in2="effect1_dropShadow_2113_26" result="shape"/>
</filter>
<linearGradient id="paint0_linear_2113_26" x1="170" y1="49" x2="170" y2="308" gradientUnits="userSpaceOnUse">
<stop stop-color="#949BA4" stop-opacity="0.55"/>
<stop offset="1" stop-color="#383B3E" stop-opacity="0.18"/>
</linearGradient>
<linearGradient id="paint1_linear_2113_26" x1="288" y1="49" x2="288" y2="308" gradientUnits="userSpaceOnUse">
<stop stop-color="#949BA4" stop-opacity="0.55"/>
<stop offset="1" stop-color="#383B3E" stop-opacity="0.18"/>
</linearGradient>
<linearGradient id="paint2_linear_2113_26" x1="397" y1="49" x2="397" y2="308" gradientUnits="userSpaceOnUse">
<stop stop-color="#949BA4" stop-opacity="0.55"/>
<stop offset="1" stop-color="#383B3E" stop-opacity="0.18"/>
</linearGradient>
</defs>
</svg>
