<svg width="16" height="14" viewBox="0 0 16 14" fill="none" xmlns="http://www.w3.org/2000/svg">
<path d="M12.2667 13.4613L11.9189 13.8694C12.0202 13.957 12.1504 14.0031 12.2837 13.9986L12.2667 13.4613ZM11.1296 11.6176C11.0419 11.5055 10.9137 11.4332 10.7732 11.4165C10.6326 11.3999 10.4913 11.4403 10.3803 11.5288C10.2692 11.6173 10.1976 11.7468 10.1811 11.8887C10.1646 12.0305 10.2046 12.1732 10.2923 12.2853L11.1296 11.6176ZM11.5541 11.1761L11.3685 10.6721C11.3614 10.6745 11.3543 10.677 11.3472 10.6797L11.5541 11.1761ZM9.70026 11.7318L9.61066 11.1998L9.60213 11.2009L9.70026 11.7318ZM6.38933 11.7189L6.288 12.2465L6.2912 12.2476L6.38933 11.7189ZM3.57654 10.7249L3.28 11.1718C3.29141 11.1798 3.30316 11.1874 3.3152 11.1944L3.57654 10.7249ZM3.46134 10.6603L3.7568 10.2123C3.73832 10.1999 3.71908 10.1888 3.6992 10.1789L3.46134 10.6603ZM3.41014 10.6215L3.78667 10.2403C3.75182 10.2052 3.71233 10.1751 3.66934 10.1509L3.41014 10.6215ZM5.70774 12.2584C5.79543 12.1463 5.83543 12.0036 5.81893 11.8617C5.80242 11.7199 5.73077 11.5904 5.61974 11.5019C5.5087 11.4133 5.36737 11.373 5.22684 11.3896C5.08632 11.4063 4.9581 11.4786 4.8704 11.5907L5.70774 12.2584ZM3.73334 13.4613L3.71627 13.9997C3.85213 14.0041 3.98453 13.956 4.0864 13.8651L3.73334 13.4613ZM0.533341 11.035H7.92397e-06C-0.000147816 11.0639 0.0019924 11.0927 0.00640792 11.1212L0.533341 11.035ZM2.37441 1.89438L2.05441 1.46362C1.97297 1.52545 1.91079 1.60953 1.87521 1.70592L2.37441 1.89438ZM5.96694 0.538571L6.49813 0.487957C6.48587 0.356479 6.42617 0.234136 6.3304 0.144193C6.23462 0.0542486 6.10944 0.00297618 5.97867 0.000124461L5.96694 0.538571ZM5.56374 1.94499C5.57717 2.08723 5.64603 2.21824 5.75515 2.30923C5.86427 2.40021 6.00472 2.4437 6.1456 2.43013C6.28648 2.41657 6.41626 2.34705 6.50638 2.23689C6.59649 2.12672 6.63957 1.98492 6.62613 1.84269L5.56374 1.94499ZM9.3248 1.87715C9.30683 2.01881 9.34535 2.16188 9.43186 2.27487C9.51838 2.38786 9.64581 2.46153 9.78613 2.47967C9.92645 2.49781 10.0682 2.45892 10.1801 2.37158C10.292 2.28423 10.365 2.15558 10.3829 2.01391L9.3248 1.87715ZM10.0331 0.538571L10.0213 0.000124461C9.89372 0.00293442 9.77133 0.0518594 9.6764 0.138014C9.58148 0.224168 9.52031 0.341837 9.504 0.469649L10.0331 0.538571ZM13.6256 1.89438L14.1248 1.70592C14.0892 1.60953 14.027 1.52545 13.9456 1.46362L13.6256 1.89438ZM15.4667 11.035L15.9936 11.1212C15.998 11.0927 16.0002 11.0639 16 11.035H15.4667ZM6.91307 8.39988L6.37973 8.39127V8.39988H6.91307ZM12.2667 13.4613L12.6144 13.0531L12.6123 13.051C12.5961 13.0379 12.5805 13.0243 12.5653 13.0101C12.3719 12.841 12.1813 12.6687 11.9936 12.4932C11.6469 12.1722 11.2896 11.8233 11.1296 11.6176L10.2923 12.2853C10.5141 12.5696 10.9355 12.9745 11.2715 13.2868C11.4797 13.48 11.6906 13.6702 11.904 13.8576L11.9147 13.8662L11.9179 13.8683L12.2667 13.4613ZM12.7317 9.96568C12.2411 10.292 11.7781 10.5181 11.3685 10.6721L11.7397 11.6812C12.2948 11.4702 12.8244 11.1964 13.3184 10.8649L12.7317 9.96568ZM11.3483 10.6797C10.7909 10.9203 10.2078 11.0952 9.61066 11.2009L9.78986 12.2627C10.4672 12.1431 11.1286 11.9451 11.7611 11.6726L11.3483 10.6797ZM9.60213 11.202C8.57215 11.3932 7.51586 11.3888 6.48747 11.189L6.2912 12.2476C7.44932 12.4719 8.63869 12.4763 9.7984 12.2605L9.60213 11.202ZM6.49067 11.1901C5.88044 11.0695 5.2824 10.8929 4.704 10.6624L4.31574 11.665C4.86187 11.8804 5.52107 12.0979 6.288 12.2465L6.49067 11.1901ZM4.704 10.6624C4.40605 10.5469 4.1163 10.4109 3.8368 10.2554L3.3152 11.1944C3.66294 11.3915 4.0064 11.5433 4.31574 11.665L4.704 10.6624ZM3.872 10.2769C3.83534 10.252 3.79683 10.2312 3.7568 10.2123C3.73547 10.2015 3.74507 10.2037 3.7568 10.2123L3.1648 11.1083C3.20161 11.1329 3.24011 11.1549 3.28 11.174C3.3024 11.1847 3.2928 11.1815 3.28 11.1718L3.872 10.2769ZM3.6992 10.1789C3.73133 10.1951 3.76082 10.2162 3.78667 10.2414L3.03254 11.0027C3.05707 11.0275 3.11894 11.0889 3.2224 11.1427L3.6992 10.1789ZM3.66934 10.1509C3.56773 10.0941 3.46812 10.0338 3.37067 9.96999L3.35894 9.96138C3.35858 9.96137 3.35929 9.96137 3.35894 9.96138L3.05174 10.4029L2.74667 10.8434L2.74774 10.8444L2.74987 10.8466L2.75734 10.8509L2.77974 10.866L2.85974 10.9187C2.928 10.9618 3.02614 11.0221 3.15094 11.0921L3.66934 10.1509ZM4.8704 11.5918C4.70827 11.7996 4.3488 12.1572 4.0032 12.4845C3.81401 12.6631 3.62271 12.8394 3.42934 13.0133L3.39307 13.0467L3.3824 13.0553L3.38134 13.0574H3.38027L3.73334 13.4613L4.0864 13.8651L4.08747 13.864L4.09067 13.8619L4.10134 13.8522L4.13974 13.8177C4.33885 13.6374 4.53619 13.455 4.73174 13.2707C5.06774 12.9519 5.48694 12.5416 5.70774 12.2584L4.8704 11.5918ZM3.7504 12.9228C2.50667 12.883 1.85387 12.3618 1.49974 11.889C1.30276 11.625 1.15791 11.3252 1.07307 11.006C1.06793 10.986 1.06331 10.9659 1.05921 10.9457V10.9478L0.533341 11.035C0.00640795 11.1212 0.00640792 11.1201 0.00747458 11.1212V11.1277C0.0152753 11.1737 0.0252422 11.2193 0.0373412 11.2644C0.156898 11.7252 0.364524 12.158 0.648541 12.5384C1.18721 13.2567 2.13441 13.9491 3.71627 13.9997L3.7504 12.9228ZM1.06667 11.035C1.06667 9.02448 1.51467 6.79208 1.97014 5.04321C2.2118 4.11698 2.48791 3.20025 2.79787 2.29498C2.8213 2.22807 2.84512 2.1613 2.86934 2.09468L2.8736 2.08391L2.37441 1.89438L1.87414 1.70592L1.87307 1.71023L1.86881 1.72208C1.8424 1.79357 1.8168 1.86537 1.79201 1.93745C1.47241 2.87 1.18776 3.81439 0.938674 4.7686C0.472541 6.55086 7.92397e-06 8.88772 7.92397e-06 11.035H1.06667ZM2.69441 2.32513C3.54774 1.679 4.37654 1.3667 4.98774 1.21594C5.28871 1.14185 5.59577 1.09571 5.90507 1.07809C5.92248 1.07744 5.93991 1.07708 5.95733 1.07702L5.96694 0.538571L5.97867 0.000124461H5.97333C5.96338 -4.14869e-05 5.95342 -4.14869e-05 5.94347 0.000124461H5.87094C5.78545 0.00325809 5.70008 0.00900418 5.61494 0.0173548C5.31835 0.0463687 5.02424 0.0971164 4.73494 0.169196C3.7641 0.412626 2.85222 0.852237 2.05441 1.46147L2.69441 2.32513ZM5.43574 0.589185L5.56374 1.94499L6.62613 1.84269L6.49813 0.487957L5.43574 0.589185ZM10.3829 2.01391L10.5621 0.607492L9.504 0.469649L9.3248 1.87715L10.3829 2.01391ZM10.0331 0.538571L10.0437 1.07702H10.0427C10.0601 1.07615 10.0775 1.07615 10.0949 1.07702C10.1355 1.07917 10.2016 1.0824 10.2859 1.09102C10.4565 1.10609 10.7061 1.14163 11.0123 1.21701C11.843 1.42616 12.6232 1.80312 13.3056 2.32513L13.9456 1.46362C13.1478 0.854365 12.2359 0.414751 11.2651 0.17135C10.9758 0.0988963 10.6817 0.0477883 10.3851 0.0184316C10.2656 0.00720162 10.1456 0.00109378 10.0256 0.000124461H10.0213L10.0331 0.538571ZM13.6256 1.89438L13.1253 2.08176L13.1264 2.08499L13.1307 2.09468L13.1445 2.13453L13.2011 2.29498C13.5114 3.20025 13.7878 4.11697 14.0299 5.04321C14.4864 6.79208 14.9333 9.02448 14.9333 11.035H16C16 8.88772 15.5264 6.55086 15.0613 4.7686C14.8122 3.81441 14.5275 2.87003 14.208 1.93745C14.188 1.88063 14.1678 1.82391 14.1472 1.7673L14.1312 1.72208L14.1269 1.71131L14.1259 1.707L13.6256 1.89438ZM15.4667 11.035L14.9408 10.9489V10.9457L14.9387 10.9543L14.928 11.0049C14.9152 11.0533 14.896 11.1266 14.8629 11.217C14.7968 11.4001 14.6848 11.6435 14.5003 11.889C14.1461 12.3618 13.4933 12.883 12.2496 12.9228L12.2837 13.9997C13.8656 13.9491 14.8117 13.2567 15.3515 12.5395C15.6356 12.1587 15.8432 11.7256 15.9627 11.2644C15.9731 11.2223 15.9824 11.18 15.9904 11.1373L15.9925 11.1266V11.1223C15.9925 11.1212 15.9925 11.1201 15.4667 11.035ZM5.6096 6.42917C4.5408 6.42917 3.77174 7.36284 3.77174 8.39988H4.8384C4.8384 7.86359 5.2192 7.50606 5.6096 7.50606V6.42917ZM3.77174 8.39988C3.77174 9.44124 4.5568 10.3706 5.6096 10.3706V9.2937C5.2288 9.2937 4.8384 8.93402 4.8384 8.39988H3.77174ZM5.6096 10.3706C6.67627 10.3706 7.4464 9.43801 7.4464 8.39988H6.37973C6.37973 8.93833 5.99893 9.2937 5.6096 9.2937V10.3706ZM7.44533 8.41065C7.4624 7.35745 6.66987 6.42917 5.6096 6.42917L5.60854 7.50714C6.00533 7.50714 6.3872 7.87113 6.37867 8.39235L7.44533 8.41065ZM10.2752 6.42917C9.2064 6.43025 8.43733 7.36391 8.43733 8.40096H9.504C9.504 7.86467 9.8848 7.50714 10.2752 7.50714V6.42917ZM8.43733 8.40204C8.43733 9.44339 9.2224 10.3728 10.2752 10.3728V9.29586C9.8944 9.29586 9.504 8.93618 9.504 8.40204H8.43733ZM10.2752 10.3728C11.3419 10.3728 12.112 9.44016 12.112 8.40204H11.0453C11.0453 8.94048 10.6645 9.29586 10.2752 9.29586V10.3728ZM12.112 8.40204C12.112 7.36499 11.3429 6.43132 10.2752 6.43132V7.50714C10.6645 7.50714 11.0453 7.86575 11.0453 8.40204H12.112ZM3.98934 3.70463C5.52854 2.85712 6.78293 2.4619 8.0032 2.46082C9.22453 2.46082 10.4757 2.85389 12.0117 3.70356L12.5237 2.7602C10.9003 1.86099 9.46773 1.38285 8.0032 1.38393C6.53867 1.38393 5.10507 1.86315 3.47947 2.75912L3.98934 3.70463Z" fill="#959697"/>
</svg>
