<svg width="10" height="10" viewBox="0 0 10 10" fill="none" xmlns="http://www.w3.org/2000/svg">
<path d="M7.8916 7.19553L10 9.30344L9.30344 10L7.19553 7.8916C6.41121 8.52034 5.43566 8.86231 4.43044 8.86088C1.98484 8.86088 0 6.87605 0 4.43044C0 1.98484 1.98484 0 4.43044 0C6.87605 0 8.86088 1.98484 8.86088 4.43044C8.86231 5.43566 8.52034 6.41121 7.8916 7.19553ZM6.90411 6.83027C7.52885 6.18779 7.87775 5.32659 7.87634 4.43044C7.87634 2.52683 6.33406 0.984543 4.43044 0.984543C2.52683 0.984543 0.984543 2.52683 0.984543 4.43044C0.984543 6.33406 2.52683 7.87634 4.43044 7.87634C5.32659 7.87775 6.18779 7.52885 6.83027 6.90411L6.90411 6.83027Z" fill="#5C5872"/>
</svg>
