<svg width="16" height="17" viewBox="0 0 16 17" fill="none" xmlns="http://www.w3.org/2000/svg">
<path d="M1.33317 14.875C1.14428 14.875 0.98584 14.807 0.85784 14.671C0.72984 14.535 0.666062 14.3669 0.666506 14.1667C0.666506 13.966 0.730506 13.7976 0.858506 13.6616C0.986506 13.5256 1.14473 13.4579 1.33317 13.4583H14.6665C14.8554 13.4583 15.0138 13.5263 15.1418 13.6623C15.2698 13.7983 15.3336 13.9664 15.3332 14.1667C15.3332 14.3674 15.2692 14.5357 15.1412 14.6717C15.0132 14.8077 14.855 14.8755 14.6665 14.875H1.33317ZM2.66651 12.75C2.29984 12.75 1.98584 12.6112 1.72451 12.3335C1.46317 12.0558 1.33273 11.7224 1.33317 11.3333V3.54167C1.33317 3.15208 1.46384 2.81846 1.72517 2.54079C1.98651 2.26313 2.30028 2.12453 2.66651 2.125H13.3332C13.6998 2.125 14.0138 2.26383 14.2752 2.5415C14.5365 2.81917 14.667 3.15256 14.6665 3.54167V11.3333C14.6665 11.7229 14.5358 12.0565 14.2745 12.3342C14.0132 12.6119 13.6994 12.7505 13.3332 12.75H2.66651ZM2.66651 11.3333H13.3332V3.54167H2.66651V11.3333Z" fill="#978EBF"/>
</svg>
