<svg width="14" height="14" viewBox="0 0 14 14" fill="none" xmlns="http://www.w3.org/2000/svg">
<path d="M4.48 3.5L7 6.02L9.52 3.5L10.5 4.48L7.98 7L10.5 9.52L9.52 10.5L7 7.98L4.48 10.5L3.5 9.52L6.02 7L3.5 4.48L4.48 3.5ZM7 1.43051e-06C6.03167 1.43051e-06 5.12167 0.183868 4.27 0.551601C3.41833 0.919335 2.6775 1.41797 2.0475 2.0475C1.4175 2.6775 0.918867 3.41833 0.5516 4.27C0.184333 5.12167 0.000466667 6.03167 0 7C0 7.96833 0.183867 8.87833 0.5516 9.73C0.919333 10.5817 1.41797 11.3225 2.0475 11.9525C2.6775 12.5825 3.41833 13.0811 4.27 13.4484C5.12167 13.8157 6.03167 13.9995 7 14C7.96833 14 8.87833 13.8161 9.73 13.4484C10.5817 13.0807 11.3225 12.582 11.9525 11.9525C12.5825 11.3225 13.0814 10.5817 13.4491 9.73C13.8168 8.87833 14.0005 7.96833 14 7C14 6.03167 13.8161 5.12167 13.4484 4.27C13.0807 3.41833 12.582 2.6775 11.9525 2.0475C11.3225 1.4175 10.5817 0.918635 9.73 0.550902C8.87833 0.183169 7.96833 -0.000465236 7 1.43051e-06Z" fill="#CAA6F9"/>
</svg>
