<svg width="23" height="24" viewBox="0 0 23 24" fill="none" xmlns="http://www.w3.org/2000/svg">
<path d="M14.24 -0.000155717C12.5867 -0.000155717 11.08 0.439844 9.72 1.31984C8.36 2.19984 7.34667 3.38651 6.68 4.87984C6.01333 6.37318 5.8 7.91984 6.04 9.51984C6.28 11.1198 6.93333 12.5065 8 13.6798L0 22.8798L1.12 23.8398L9.12 14.7198C10.56 15.8398 12.1733 16.4265 13.96 16.4798C15.7467 16.5332 17.3867 16.0532 18.88 15.0398C20.3733 14.0265 21.4133 12.6665 22 10.9598C22.5867 9.25318 22.6133 7.53318 22.08 5.79984C21.5467 4.06651 20.5467 2.66651 19.08 1.59984C17.6133 0.533178 16 -0.000155717 14.24 -0.000155717ZM14.24 14.9598C13.0133 14.9598 11.88 14.6665 10.84 14.0798C9.8 13.4932 8.97333 12.6798 8.36 11.6398C7.74667 10.5998 7.44 9.46651 7.44 8.23984C7.44 7.01318 7.74667 5.87984 8.36 4.83984C8.97333 3.79984 9.8 2.98651 10.84 2.39984C11.88 1.81318 13.0133 1.51984 14.24 1.51984C15.4667 1.51984 16.5867 1.81318 17.6 2.39984C18.6133 2.98651 19.4267 3.79984 20.04 4.83984C20.6533 5.87984 20.96 7.01318 20.96 8.23984C20.96 9.46651 20.6533 10.5998 20.04 11.6398C19.4267 12.6798 18.6133 13.5065 17.6 14.1198C16.5867 14.7332 15.4667 15.0398 14.24 15.0398V14.9598Z" fill="#5F5C7C"/>
</svg>
