<svg width="23" height="22" viewBox="0 0 23 22" fill="none" xmlns="http://www.w3.org/2000/svg">
<path d="M0.8 -0.000155762H21.12L21.84 0.719844V9.35984C21.36 8.98651 20.8533 8.66651 20.32 8.39984V1.51984H1.6V15.5998H9.36C9.36 17.3065 9.89333 18.8532 10.96 20.2398H4.72V18.7198H9.36V17.1198H0.8L0 16.3998V0.719844L0.8 -0.000155762ZM17.2 9.35984C16.08 9.35984 15.04 9.63984 14.08 10.1998C13.12 10.7598 12.36 11.5198 11.8 12.4798C11.24 13.4398 10.96 14.4798 10.96 15.5998C10.96 16.7198 11.24 17.7598 11.8 18.7198C12.36 19.6798 13.12 20.4398 14.08 20.9998C15.04 21.5598 16.08 21.8398 17.2 21.8398C18.32 21.8398 19.36 21.5598 20.32 20.9998C21.28 20.4398 22.04 19.6798 22.6 18.7198C23.16 17.7598 23.44 16.7198 23.44 15.5998C23.44 14.4798 23.16 13.4398 22.6 12.4798C22.04 11.5198 21.28 10.7598 20.32 10.1998C19.36 9.63984 18.32 9.35984 17.2 9.35984ZM17.2 20.2398C16.3467 20.2398 15.56 20.0398 14.84 19.6398C14.12 19.2398 13.5467 18.6798 13.12 17.9598C12.6933 17.2398 12.48 16.4532 12.48 15.5998C12.48 14.7465 12.6933 13.9598 13.12 13.2398C13.5467 12.5198 14.12 11.9465 14.84 11.5198C15.56 11.0932 16.3467 10.8798 17.2 10.8798C18.0533 10.8798 18.84 11.0932 19.56 11.5198C20.28 11.9465 20.84 12.5198 21.24 13.2398C21.64 13.9598 21.84 14.7465 21.84 15.5998C21.84 16.4532 21.64 17.2398 21.24 17.9598C20.84 18.6798 20.28 19.2398 19.56 19.6398C18.84 20.0398 18.0533 20.2398 17.2 20.2398ZM19.76 17.1198L17.68 14.9598L19.76 12.7998L20.48 13.5198L18.96 14.9598L20.48 16.4798L19.76 17.1198ZM14.48 15.1198L15.92 16.5598L14.48 18.0798L15.12 18.7198L17.28 16.5598L15.12 14.3998L14.48 15.1198Z" fill="#5F5C7C"/>
</svg>
