<svg width="15" height="14" viewBox="0 0 15 14" fill="none" xmlns="http://www.w3.org/2000/svg">
<path d="M12.8449 0.759766H2.31518C1.73364 0.759766 1.26221 1.2165 1.26221 1.77991V11.9814C1.26221 12.5448 1.73364 13.0015 2.31518 13.0015H12.8449C13.4264 13.0015 13.8978 12.5448 13.8978 11.9814V1.77991C13.8978 1.2165 13.4264 0.759766 12.8449 0.759766Z" stroke="#978EBF" stroke-linecap="round" stroke-linejoin="round"/>
<path d="M6.59231 4.92188H4.29492V8.5944H6.44872M4.29492 6.75814H6.44872M8.02817 5.44652V8.5944V6.8893C8.02817 6.57622 8.16432 6.27597 8.40667 6.05459C8.64902 5.83321 8.97772 5.70884 9.32045 5.70884C9.66319 5.70884 9.99188 5.83321 10.2342 6.05459C10.4766 6.27597 10.6127 6.57622 10.6127 6.8893V8.5944" stroke="#978EBF" stroke-linecap="round" stroke-linejoin="round"/>
</svg>
