<svg width="143" height="391" viewBox="0 0 143 391" fill="none" xmlns="http://www.w3.org/2000/svg">
<path d="M1 181C1 181 33.6957 169.349 67.9239 135.08C102.152 100.812 142 118.631 142 118.631" stroke="#EFF1F5" stroke-opacity="0.73" stroke-width="2"/>
<path d="M1 181C1 181 33.6957 194.39 67.9239 233.773C102.152 273.157 142 252.677 142 252.677" stroke="#EFF1F5" stroke-opacity="0.73" stroke-width="2"/>
<path d="M1 181C1 181 27 170.425 40.5652 153.898C54.1304 137.371 55.8768 129.864 84.1884 65.4318C112.5 0.999996 141 1 141 1" stroke="#535A66"/>
<path d="M1 181C1 181 27 193.279 40.5652 212.469C54.1304 231.658 55.8768 240.375 84.1884 315.188C112.5 390 141 390 141 390" stroke="#535A66"/>
</svg>
