<svg width="14" height="15" viewBox="0 0 14 15" fill="none" xmlns="http://www.w3.org/2000/svg">
<path d="M9.98992 8.14918C11.1397 8.68557 12.12 9.52045 12.826 10.5645C13.5321 11.6085 13.9371 12.8223 13.9979 14.0761C14.0059 14.191 13.9906 14.3063 13.9529 14.4152C13.9152 14.5241 13.8558 14.6245 13.7782 14.7105C13.7006 14.7965 13.6064 14.8663 13.5011 14.9158C13.3958 14.9654 13.2815 14.9937 13.165 14.9991C13.0485 15.0044 12.9321 14.9868 12.8225 14.9471C12.713 14.9075 12.6126 14.8467 12.5273 14.7682C12.4419 14.6897 12.3733 14.5952 12.3254 14.4903C12.2775 14.3853 12.2514 14.2719 12.2485 14.1568C12.1848 12.8249 11.604 11.5684 10.6265 10.6481C9.64902 9.72777 8.35 9.21431 6.9991 9.21431C5.64819 9.21431 4.34917 9.72777 3.37169 10.6481C2.39421 11.5684 1.81335 12.8249 1.74968 14.1568C1.73395 14.3822 1.62941 14.5926 1.45845 14.7429C1.28748 14.8932 1.06369 14.9715 0.834992 14.9609C0.606293 14.9504 0.390869 14.8519 0.234852 14.6865C0.0788353 14.5211 -0.00537096 14.302 0.000265797 14.0761C0.0608307 12.8224 0.465685 11.6086 1.17149 10.5646C1.87729 9.52055 2.85747 8.68563 4.00711 8.14918C3.27022 7.54253 2.74055 6.72656 2.49015 5.81227C2.23975 4.89798 2.28078 3.92975 2.60765 3.03929C2.93452 2.14883 3.53137 1.37936 4.31701 0.835552C5.10264 0.291746 6.03893 0 6.99851 0C7.95809 0 8.89438 0.291746 9.68002 0.835552C10.4657 1.37936 11.0625 2.14883 11.3894 3.03929C11.7163 3.92975 11.7573 4.89798 11.5069 5.81227C11.2565 6.72656 10.7268 7.54253 9.98992 8.14918ZM9.91868 4.60708C9.91868 3.84283 9.61109 3.10988 9.06356 2.56947C8.51603 2.02906 7.77342 1.72546 6.9991 1.72546C6.22478 1.72546 5.48217 2.02906 4.93464 2.56947C4.38711 3.10988 4.07951 3.84283 4.07951 4.60708C4.07951 5.37134 4.38711 6.10429 4.93464 6.6447C5.48217 7.18511 6.22478 7.48871 6.9991 7.48871C7.77342 7.48871 8.51603 7.18511 9.06356 6.6447C9.61109 6.10429 9.91868 5.37134 9.91868 4.60708Z" fill="#959697"/>
</svg>
