<svg width="22" height="22" viewBox="0 0 22 22" fill="none" xmlns="http://www.w3.org/2000/svg">
<path d="M11 0C8.82441 0 6.69767 0.645139 4.88873 1.85383C3.07979 3.06253 1.66989 4.78049 0.83733 6.79048C0.00476613 8.80047 -0.213071 11.0122 0.211367 13.146C0.635804 15.2798 1.68345 17.2398 3.22183 18.7782C4.76021 20.3165 6.72022 21.3642 8.85401 21.7886C10.9878 22.2131 13.1995 21.9952 15.2095 21.1627C17.2195 20.3301 18.9375 18.9202 20.1462 17.1113C21.3549 15.3023 22 13.1756 22 11C21.9969 8.08356 20.837 5.28746 18.7748 3.22523C16.7125 1.16299 13.9164 0.00307981 11 0ZM11 17.7692C10.749 17.7692 10.5036 17.6948 10.2949 17.5553C10.0861 17.4159 9.92345 17.2176 9.82739 16.9857C9.73132 16.7538 9.70619 16.4986 9.75516 16.2524C9.80413 16.0062 9.92502 15.78 10.1025 15.6025C10.28 15.425 10.5062 15.3041 10.7524 15.2552C10.9986 15.2062 11.2538 15.2313 11.4857 15.3274C11.7176 15.4234 11.9159 15.5861 12.0553 15.7949C12.1948 16.0036 12.2692 16.249 12.2692 16.5C12.2692 16.8366 12.1355 17.1595 11.8975 17.3975C11.6595 17.6355 11.3366 17.7692 11 17.7692ZM11.8462 12.6162V12.6923C11.8462 12.9167 11.757 13.1319 11.5983 13.2906C11.4396 13.4493 11.2244 13.5385 11 13.5385C10.7756 13.5385 10.5604 13.4493 10.4017 13.2906C10.243 13.1319 10.1538 12.9167 10.1538 12.6923V11.8462C10.1538 11.6217 10.243 11.4065 10.4017 11.2478C10.5604 11.0891 10.7756 11 11 11C12.3993 11 13.5385 10.0481 13.5385 8.88461C13.5385 7.72115 12.3993 6.76923 11 6.76923C9.60068 6.76923 8.46154 7.72115 8.46154 8.88461V9.30769C8.46154 9.5321 8.37239 9.74733 8.21371 9.90601C8.05502 10.0647 7.8398 10.1538 7.61539 10.1538C7.39097 10.1538 7.17575 10.0647 7.01707 9.90601C6.85838 9.74733 6.76923 9.5321 6.76923 9.30769V8.88461C6.76923 6.78509 8.66673 5.07692 11 5.07692C13.3333 5.07692 15.2308 6.78509 15.2308 8.88461C15.2308 10.7229 13.7754 12.2618 11.8462 12.6162Z" fill="#7E789B" fill-opacity="0.74"/>
</svg>
