<svg width="23" height="23" viewBox="0 0 23 23" fill="none" xmlns="http://www.w3.org/2000/svg">
<path fill-rule="evenodd" clip-rule="evenodd" d="M1.3478 1.32805C-1.37091e-07 2.67593 0 4.84681 0 9.18741V13.7916C0 18.1322 -1.37091e-07 20.3031 1.3478 21.651C2.69445 23 4.86335 23 9.2 23H13.8C18.1367 23 20.3055 23 21.6522 21.651C23 20.3031 23 18.1322 23 13.7916V9.18741C23 5.91843 23 3.88108 22.425 2.49867V17.2448C21.8783 17.2448 21.3369 17.1371 20.8318 16.9278C20.3266 16.7184 19.8676 16.4115 19.481 16.0246L18.6162 15.1591C17.7859 14.328 17.3719 13.9136 16.9016 13.7387C16.3845 13.5462 15.8155 13.5462 15.2985 13.7387C14.8281 13.9136 14.4129 14.328 13.5849 15.1591L13.4538 15.2891C12.7811 15.9625 12.4441 16.2997 12.0865 16.3619C11.8087 16.4109 11.5226 16.356 11.2826 16.2077C10.9744 16.0166 10.787 15.578 10.411 14.7021L10.35 14.5594C9.4875 12.545 9.0574 11.539 8.3053 11.1615C7.92656 10.9714 7.50272 10.8897 7.08055 10.9255C6.2422 10.9969 5.4694 11.7715 3.9215 13.3197L1.725 15.5182V1C1.59111 1.09958 1.46501 1.20925 1.3478 1.32805Z" fill="#7E789B" fill-opacity="0.74"/>
<path d="M1.1499 9.1882C1.1499 6.9851 1.1522 5.44844 1.3086 4.28934C1.45925 3.16361 1.7364 2.56737 2.1596 2.14263C2.5851 1.71674 3.1808 1.44049 4.3055 1.2897C5.46355 1.13316 6.9988 1.13086 9.1999 1.13086H13.7999C16.001 1.13086 17.5363 1.13316 18.6943 1.2897C19.819 1.44049 20.4147 1.71789 20.8391 2.14148C21.2646 2.56737 21.5406 3.16361 21.6924 4.28934C21.8476 5.44844 21.8499 6.9851 21.8499 9.1882V13.7924C21.8499 15.9955 21.8476 17.5322 21.6924 18.6913C21.5406 19.817 21.2634 20.4132 20.8391 20.838C20.4147 21.2639 19.819 21.5401 18.6943 21.6921C17.5363 21.8474 16.001 21.8497 13.7999 21.8497H9.1999C6.9988 21.8497 5.46355 21.8474 4.3055 21.6921C3.1808 21.5401 2.5851 21.2627 2.16075 20.838C1.73525 20.4132 1.45925 19.817 1.3086 18.6913C1.1522 17.5322 1.1499 15.9955 1.1499 13.7924V9.1882Z" stroke="#7E789B" stroke-opacity="0.74" stroke-width="2"/>
<path d="M14.9499 10.3386C16.2202 10.3386 17.2499 9.30789 17.2499 8.03647C17.2499 6.76506 16.2202 5.73438 14.9499 5.73438C13.6796 5.73438 12.6499 6.76506 12.6499 8.03647C12.6499 9.30789 13.6796 10.3386 14.9499 10.3386Z" fill="#7E789B" fill-opacity="0.74"/>
</svg>
