<svg width="24" height="24" viewBox="0 0 24 24" fill="none" xmlns="http://www.w3.org/2000/svg">
<path d="M9.4001 10.5L14.1701 2.24003C12.6951 1.91063 11.1646 1.92038 9.69392 2.26856C8.22326 2.61674 6.85083 3.29426 5.6801 4.25003L9.3401 10.6L9.4001 10.5ZM21.5401 9.00003C20.6201 6.08003 18.3901 3.74003 15.5401 2.66003L11.8801 9.00003H21.5401ZM21.8001 10H14.3101L14.6001 10.5L19.3601 18.75C21.0608 16.9141 22.004 14.5027 22.0001 12C22.0001 11.31 21.9301 10.65 21.8001 10ZM8.5401 12L4.6401 5.25003C3.5686 6.41048 2.78852 7.80916 2.36425 9.3306C1.93999 10.852 1.88373 12.4526 2.2001 14H9.6901L8.5401 12ZM2.4601 15C3.3801 17.92 5.6101 20.26 8.4601 21.34L12.1201 15H2.4601ZM13.7301 15L9.8301 21.76C11.3051 22.0894 12.8356 22.0797 14.3063 21.7315C15.7769 21.3833 17.1494 20.7058 18.3201 19.75L14.6601 13.4L13.7301 15Z" fill="#9783F5"/>
</svg>
