<svg width="7" height="9" viewBox="0 0 7 9" fill="none" xmlns="http://www.w3.org/2000/svg">
<path fill-rule="evenodd" clip-rule="evenodd" d="M6.64522 3.82683C6.8724 4.00389 7 4.24391 7 4.49416C7 4.74441 6.8724 4.98443 6.64522 5.1615L2.07091 8.72354C1.84333 8.90061 1.53471 9.00006 1.21295 9C0.891176 8.99994 0.582617 8.90038 0.355145 8.72323C0.127674 8.54607 -7.58015e-05 8.30583 3.37439e-08 8.05536C7.5869e-05 7.80488 0.127971 7.56469 0.35555 7.38762L4.07257 4.49416L0.35555 1.60071C0.134458 1.42268 0.0120353 1.18419 0.0146483 0.936582C0.0172613 0.688977 0.144701 0.452077 0.36952 0.276905C0.594339 0.101734 0.898547 0.00230721 1.21663 3.96495e-05C1.5347 -0.00222791 1.8412 0.0928453 2.0701 0.264782L6.64603 3.8262L6.64522 3.82683Z" fill="#B8C2EE"/>
</svg>
