<svg width="10" height="18" viewBox="0 0 10 18" fill="none" xmlns="http://www.w3.org/2000/svg">
<path fill-rule="evenodd" clip-rule="evenodd" d="M9.61822 8.02755C9.86267 8.28108 10 8.6249 10 8.98339C10 9.34188 9.86267 9.68569 9.61822 9.93922L2.24185 17.5873C2.12156 17.7164 1.97768 17.8194 1.81859 17.8902C1.65951 17.9611 1.4884 17.9984 1.31527 17.9999C1.14213 18.0015 0.970431 17.9673 0.810182 17.8993C0.649933 17.8313 0.504345 17.731 0.381914 17.604C0.259484 17.4771 0.162663 17.3261 0.0970995 17.16C0.0315363 16.9938 -0.00145527 16.8158 4.92329e-05 16.6363C0.00155374 16.4568 0.0375246 16.2794 0.105863 16.1144C0.174201 15.9495 0.273537 15.8003 0.398077 15.6756L6.85257 8.98339L0.398077 2.29118C0.160554 2.0362 0.0291241 1.69469 0.0320951 1.34021C0.035066 0.985733 0.1722 0.646645 0.41396 0.395981C0.655721 0.145317 0.982765 0.00313187 1.32465 5.14984e-05C1.66654 -0.00302887 1.99592 0.13324 2.24185 0.379511L9.61822 8.02755Z" fill="#949BA4"/>
</svg>
