<svg width="7" height="11" viewBox="0 0 7 11" fill="none" xmlns="http://www.w3.org/2000/svg">
<path fill-rule="evenodd" clip-rule="evenodd" d="M6.70019 5.29412C6.8911 5.49456 6.99534 5.76329 6.99001 6.0413C6.98467 6.3193 6.8702 6.58384 6.67174 6.77681L2.6757 10.6587C2.47689 10.8517 2.21029 10.9571 1.93454 10.9517C1.65879 10.9463 1.39648 10.8307 1.20532 10.6301C1.01415 10.4296 0.909796 10.1606 0.9152 9.88234C0.920605 9.60409 1.03533 9.33936 1.23414 9.14639L4.48125 5.99316L1.35749 2.71768C1.17182 2.51627 1.07199 2.24931 1.0795 1.97429C1.08702 1.69927 1.20128 1.43819 1.39768 1.24729C1.59408 1.05638 1.85691 0.950933 2.12954 0.953644C2.40218 0.956356 2.66282 1.06701 2.85532 1.26178L6.7009 5.29343L6.70019 5.29412Z" fill="#B8C2EE"/>
</svg>
