<svg width="100" height="102" viewBox="0 0 100 102" fill="none" xmlns="http://www.w3.org/2000/svg">
<path d="M41.83 0.959274C42.4025 0.561487 43.0717 0.276617 43.7893 0.125183C44.507 -0.026252 45.2551 -0.0404808 45.98 0.0835207L95.98 8.58599C97.113 8.77854 98.1327 9.29881 98.8656 10.0583C99.5984 10.8179 99.9993 11.7698 100 12.7522V89.2489C99.9993 90.2313 99.5984 91.1832 98.8656 91.9427C98.1327 92.7023 97.113 93.2225 95.98 93.4151L45.98 101.918C45.2549 102.041 44.5067 102.026 43.7892 101.873C43.0718 101.721 42.403 101.436 41.831 101.037C41.259 100.639 40.7981 100.137 40.4815 99.569C40.1649 99.0009 40.0004 98.3801 40 97.7513V4.24973M70 50.9963C70 49.8688 69.4732 48.7875 68.5355 47.9902C67.5979 47.1929 66.3261 46.7451 65 46.7451C63.6739 46.7451 62.4021 47.1929 61.4645 47.9902C60.5268 48.7875 60 49.8688 60 50.9963C60 52.1238 60.5268 53.2051 61.4645 54.0024C62.4021 54.7996 63.6739 55.2475 65 55.2475C66.3261 55.2475 67.5979 54.7996 68.5355 54.0024C69.4732 53.2051 70 52.1238 70 50.9963ZM30 8.50096H5C3.67392 8.50096 2.40215 8.94886 1.46447 9.74612C0.526785 10.5434 0 11.6247 0 12.7522V89.2489C0 90.3764 0.526785 91.4577 1.46447 92.255C2.40215 93.0522 3.67392 93.5001 5 93.5001H30V8.50096ZM41.83 0.959274C41.2575 1.35834 40.7964 1.86053 40.4799 2.42956C40.1634 2.9986 39.9995 3.62028 40 4.24973L41.83 0.959274Z" fill="#2B2D31"/>
</svg>
