<svg width="17" height="17" viewBox="0 0 17 17" fill="none" xmlns="http://www.w3.org/2000/svg">
<path fill-rule="evenodd" clip-rule="evenodd" d="M10.1864 0.4607C10.2604 0.60435 10.279 0.7888 10.3156 1.1577C10.3853 1.8547 10.4201 2.2032 10.5663 2.3953C10.6574 2.51457 10.7785 2.6076 10.9172 2.66493C11.0559 2.72226 11.2073 2.74185 11.356 2.7217C11.594 2.69025 11.866 2.4684 12.4083 2.0247C12.6947 1.78925 12.8384 1.67195 12.9923 1.62265C13.1882 1.56004 13.4002 1.57061 13.589 1.6524C13.7377 1.717 13.8695 1.8479 14.1304 2.1097L14.8903 2.8696C15.1521 3.1314 15.283 3.2623 15.3476 3.41105C15.4294 3.5998 15.44 3.8118 15.3773 4.00775C15.328 4.1616 15.2107 4.30525 14.9761 4.5917C14.5316 5.13485 14.3098 5.406 14.2775 5.64485C14.2576 5.79351 14.2773 5.94479 14.3348 6.08333C14.3923 6.22187 14.4854 6.34273 14.6047 6.43365C14.7959 6.57985 15.1453 6.6147 15.8432 6.6844C16.2112 6.72095 16.3957 6.73965 16.5401 6.8136C16.7224 6.90812 16.8643 7.06543 16.9397 7.25645C17 7.4069 17 7.5922 17 7.9628V9.0372C17 9.4078 17 9.5931 16.9405 9.7427C16.8649 9.93433 16.7224 10.092 16.5393 10.1864C16.3957 10.2604 16.2112 10.279 15.8423 10.3156C15.1453 10.3853 14.7968 10.4201 14.6047 10.5663C14.4854 10.6574 14.3924 10.7785 14.3351 10.9172C14.2777 11.0559 14.2582 11.2073 14.2783 11.356C14.3106 11.594 14.5324 11.866 14.9761 12.4083C15.2107 12.6947 15.328 12.8376 15.3773 12.9923C15.44 13.1882 15.4294 13.4002 15.3476 13.589C15.283 13.7377 15.1521 13.8686 14.8903 14.1304L14.1304 14.8895C13.8686 15.1521 13.7377 15.283 13.589 15.3468C13.4002 15.4285 13.1882 15.4391 12.9923 15.3765C12.8384 15.3272 12.6947 15.2099 12.4083 14.9753C11.8651 14.5316 11.594 14.3098 11.356 14.2783C11.2073 14.2582 11.0559 14.2777 10.9172 14.3351C10.7785 14.3924 10.6574 14.4854 10.5663 14.6047C10.4201 14.7959 10.3853 15.1445 10.3156 15.8423C10.279 16.2112 10.2604 16.3957 10.1864 16.5393C10.0922 16.7222 9.93486 16.8648 9.74355 16.9405C9.5931 17 9.4078 17 9.0372 17H7.9628C7.5922 17 7.4069 17 7.2573 16.9405C7.06567 16.8649 6.908 16.7224 6.8136 16.5393C6.73965 16.3957 6.72095 16.2112 6.6844 15.8423C6.6147 15.1453 6.57985 14.7968 6.43365 14.6047C6.34264 14.4856 6.22173 14.3926 6.0832 14.3353C5.94467 14.278 5.79344 14.2583 5.64485 14.2783C5.406 14.3098 5.13485 14.5316 4.5917 14.9753C4.30525 15.2108 4.1616 15.328 4.00775 15.3773C3.8118 15.44 3.5998 15.4294 3.41105 15.3476C3.2623 15.283 3.13055 15.1521 2.8696 14.8903L2.1097 14.1304C1.8479 13.8686 1.717 13.7377 1.6524 13.589C1.57061 13.4002 1.56004 13.1882 1.62265 12.9923C1.67195 12.8384 1.78925 12.6947 2.02385 12.4083C2.4684 11.8651 2.69025 11.594 2.7217 11.3552C2.74169 11.2066 2.72203 11.0553 2.66471 10.9168C2.60738 10.7783 2.51444 10.6574 2.3953 10.5663C2.20405 10.4201 1.8547 10.3853 1.15685 10.3156C0.7888 10.279 0.60435 10.2604 0.45985 10.1864C0.277565 10.0919 0.135657 9.93458 0.0603501 9.74355C8.23289e-08 9.5931 0 9.4078 0 9.0372V7.9628C0 7.5922 -5.69969e-08 7.4069 0.0594999 7.2573C0.135054 7.06567 0.277623 6.908 0.4607 6.8136C0.60435 6.73965 0.7888 6.72095 1.1577 6.6844C1.8547 6.6147 2.20405 6.57985 2.3953 6.43365C2.51459 6.34273 2.6077 6.22187 2.66518 6.08333C2.72265 5.94479 2.74245 5.79351 2.72255 5.64485C2.69025 5.406 2.46755 5.13485 2.02385 4.59085C1.78925 4.3044 1.67195 4.1616 1.62265 4.0069C1.56004 3.81095 1.57061 3.59895 1.6524 3.4102C1.717 3.2623 1.8479 3.13055 2.1097 2.86875L2.8696 2.1097C3.1314 1.8479 3.2623 1.71615 3.41105 1.6524C3.5998 1.57061 3.8118 1.56004 4.00775 1.62265C4.1616 1.67195 4.30525 1.78925 4.5917 2.02385C5.13485 2.46755 5.406 2.6894 5.644 2.7217C5.79293 2.74191 5.94456 2.72227 6.08342 2.66478C6.22229 2.6073 6.34343 2.51401 6.4345 2.39445C6.579 2.2032 6.6147 1.8547 6.6844 1.15685C6.72095 0.7888 6.73965 0.60435 6.8136 0.45985C6.90796 0.277246 7.06528 0.135017 7.25645 0.0594999C7.4069 -5.69969e-08 7.5922 0 7.9628 0H9.0372C9.4078 0 9.5931 -5.69969e-08 9.7427 0.0594999C9.93433 0.135054 10.092 0.277623 10.1864 0.4607ZM8.5 11.9C9.40174 11.9 10.2665 11.5418 10.9042 10.9042C11.5418 10.2665 11.9 9.40174 11.9 8.5C11.9 7.59826 11.5418 6.73346 10.9042 6.09584C10.2665 5.45821 9.40174 5.1 8.5 5.1C7.59826 5.1 6.73346 5.45821 6.09584 6.09584C5.45821 6.73346 5.1 7.59826 5.1 8.5C5.1 9.40174 5.45821 10.2665 6.09584 10.9042C6.73346 11.5418 7.59826 11.9 8.5 11.9Z" fill="#959697"/>
</svg>
