<svg width="18" height="18" viewBox="0 0 18 18" fill="none" xmlns="http://www.w3.org/2000/svg">
<path d="M14.8334 0.666992H3.16675C1.75008 0.666992 0.666748 1.75033 0.666748 3.16699V14.8337C0.666748 16.2503 1.75008 17.3337 3.16675 17.3337H14.8334C16.2501 17.3337 17.3334 16.2503 17.3334 14.8337V3.16699C17.3334 1.75033 16.2501 0.666992 14.8334 0.666992ZM5.66675 13.167C5.66675 13.667 5.33341 14.0003 4.83341 14.0003C4.33341 14.0003 4.00008 13.667 4.00008 13.167V9.83366C4.00008 9.33366 4.33341 9.00033 4.83341 9.00033C5.33341 9.00033 5.66675 9.33366 5.66675 9.83366V13.167ZM9.83342 13.167C9.83342 13.667 9.50008 14.0003 9.00008 14.0003C8.50008 14.0003 8.16675 13.667 8.16675 13.167V4.83366C8.16675 4.33366 8.50008 4.00033 9.00008 4.00033C9.50008 4.00033 9.83342 4.33366 9.83342 4.83366V13.167ZM14.0001 13.167C14.0001 13.667 13.6667 14.0003 13.1667 14.0003C12.6667 14.0003 12.3334 13.667 12.3334 13.167V8.16699C12.3334 7.66699 12.6667 7.33366 13.1667 7.33366C13.6667 7.33366 14.0001 7.66699 14.0001 8.16699V13.167Z" fill="#7D7798" fill-opacity="0.75"/>
</svg>
