<svg width="18" height="18" viewBox="0 0 18 18" fill="none" xmlns="http://www.w3.org/2000/svg">
<path d="M8.9999 16.5C10.664 16.4998 12.2807 15.9461 13.5956 14.9261C14.9105 13.9062 15.8489 12.4779 16.2629 10.8662C16.677 9.2544 16.5432 7.5507 15.8828 6.02329C15.2223 4.49588 14.0726 3.2315 12.6147 2.42921C11.1567 1.62692 9.4734 1.33229 7.82965 1.5917C6.1859 1.8511 4.6751 2.64982 3.5351 3.8621C2.39511 5.07438 1.69066 6.63136 1.53267 8.28794C1.37467 9.94452 1.77211 11.6066 2.6624 13.0125L1.4999 16.5L4.9874 15.3375C6.18701 16.099 7.57902 16.5023 8.9999 16.5Z" fill="#7D7798" fill-opacity="0.85" stroke="#7D7798" stroke-opacity="0.86" stroke-width="2" stroke-linecap="round" stroke-linejoin="round"/>
</svg>
