<svg width="10" height="6" viewBox="0 0 10 6" fill="none" xmlns="http://www.w3.org/2000/svg">
<path fill-rule="evenodd" clip-rule="evenodd" d="M4.25203 0.304101C4.44877 0.109375 4.71546 0 4.99351 0C5.27157 0 5.53826 0.109375 5.735 0.304101L9.69283 4.22493C9.88957 4.42 10.0001 4.68453 10 4.96033C9.99993 5.23613 9.88931 5.50061 9.69248 5.69559C9.49564 5.89057 9.2287 6.00006 8.9504 6C8.67209 5.99993 8.40521 5.89031 8.20846 5.69524L4.99351 2.50922L1.77856 5.69524C1.58076 5.88475 1.31576 5.98968 1.04065 5.98744C0.76553 5.9852 0.502308 5.87597 0.307673 5.68327C0.113038 5.49057 0.00256356 5.22982 4.4055e-05 4.95718C-0.00247545 4.68454 0.103161 4.42183 0.294202 4.22562L4.25133 0.303406L4.25203 0.304101Z" fill="#B8C2EE"/>
</svg>
