<svg width="16" height="17" viewBox="0 0 16 17" fill="none" xmlns="http://www.w3.org/2000/svg">
<path d="M5.00312 4.65139C4.33715 5.07639 3.79172 5.62354 3.36683 6.29283C2.94194 6.96213 2.6882 7.69785 2.60562 8.5L2.00624 15.1111H13.9938L13.3944 8.5C13.3278 7.68148 13.0824 6.93757 12.6581 6.26828C12.2339 5.59898 11.6802 5.05215 10.9969 4.62778V6.61111C10.9969 7.39815 10.7055 8.06713 10.1228 8.61806C9.54006 9.16898 8.83247 9.44444 8 9.44444C7.16753 9.44444 6.45994 9.16898 5.87721 8.61806C5.29448 8.06713 5.00312 7.39815 5.00312 6.61111V4.65139ZM8 7.55556C8.28304 7.55556 8.52046 7.46489 8.71226 7.28356C8.90406 7.10222 8.99963 6.87807 8.99896 6.61111V2.83333C8.99896 2.56574 8.90306 2.34159 8.71126 2.16089C8.51946 1.98019 8.28237 1.88952 8 1.88889C7.71696 1.88889 7.47988 1.97956 7.28874 2.16089C7.09761 2.34222 7.00171 2.56637 7.00104 2.83333V6.61111C7.00104 6.8787 7.09694 7.10317 7.28874 7.2845C7.48054 7.46583 7.71763 7.55618 8 7.55556ZM2.00624 17C1.42352 17 0.932362 16.7954 0.532778 16.3861C0.133195 15.9769 -0.0416233 15.4968 0.00832466 14.9458L0.6077 8.31111C0.724245 6.97315 1.1821 5.79259 1.98127 4.76944C2.78044 3.7463 3.79605 2.98287 5.0281 2.47917C5.12799 1.77083 5.45698 1.18056 6.01507 0.708333C6.57315 0.236111 7.2348 0 8 0C8.76587 0 9.42785 0.232333 9.98593 0.697C10.544 1.16167 10.8727 1.74785 10.9719 2.45556C12.204 2.95926 13.2239 3.72678 14.0317 4.75811C14.8395 5.78944 15.2931 6.97378 15.3923 8.31111L15.9917 14.9458C16.0416 15.4968 15.8668 15.9769 15.4672 16.3861C15.0676 16.7954 14.5765 17 13.9938 17H2.00624Z" fill="#959697"/>
</svg>
